<svg xmlns="http://www.w3.org/2000/svg" viewBox="0 0 117.9 309.95"><defs><style>.cls-1{fill:#e06a43;}.cls-2{fill:#e79e73;}.cls-3{fill:#2b3448;}.cls-4{fill:#df895d;}</style></defs><g id="Layer_2" data-name="Layer 2"><g id="OBJECTS"><path class="cls-1" d="M70.27,51.3c-4.43,5.38-14.6,3.6-14.6,3.6L57,49.05a10,10,0,0,0,6.75,3.34h.6A9.38,9.38,0,0,0,70.07,50Z"/><path class="cls-1" d="M40.75,56.65l1.71-.11h0s0,1.24.1,3.21L41,59.87C40.88,57.87,40.75,56.65,40.75,56.65Z"/><path class="cls-1" d="M82.78,57.39l1.6.08s-5.21,19.08.75,24.13c-.79,5.27-2,13.81-3.21,21.64-15.48-7-43.58-2.23-43.58-2.23-.58-4.05-1.17-8.18-1.68-11.8,5.21-7,4.81-22.6,4.36-29.34l1.54-.12C43,67.47,45.7,79.2,60.5,79.2,79.1,79.2,82.78,57.39,82.78,57.39Z"/><path class="cls-2" d="M84.38,57.47l-1.6-.08S79.1,79.2,60.5,79.2C45.7,79.2,43,67.47,42.56,59.75c-.12-2-.1-3.21-.1-3.21h0c6-.34,12.9-.3,12.9-.3l.31-1.34s10.17,1.78,14.6-3.6l.91,5.86S78.28,57.11,84.38,57.47Z"/><path class="cls-2" d="M33.53,133.22c-6.53,1.79-9.37-4.65-9.37-4.65s-22.83-24.9-23.53-26a8.06,8.06,0,0,1,0-6.25c1-1.71,29.53-37.6,34.17-38.91a35.28,35.28,0,0,1,6-.8s.13,1.22.27,3.22c.45,6.74.85,22.31-4.36,29.34-.89-6.28-1.56-11-1.56-11l-20.72,19L29.81,123.4s4.06-1.51,7.35-2.71c2-.73,3.72-1.34,4.07-1.42a4.37,4.37,0,0,1,1.94.13s8.8,4.37,8.61,5.31-2.31,1.38-4,1.34-4.66-1.91-4.66-1.91l-1.28,1.1s4.84,2.78,4.88,3.38-.12,3.93-.12,3.93,2,3,1.79,3.58-2.65.13-2.65.13.58.88.16,1.43-2.9.18-2.9.18l-.16.7c-2.67.36-4.43-3.57-4.43-3.57L34.35,133C34.07,133.06,33.8,133.14,33.53,133.22Z"/><path class="cls-2" d="M82.26,120.88l1.12-.57a4.44,4.44,0,0,1,1.94-.12c.89.2,11.41,4.13,11.41,4.13l6.78-25.84-17.62-22s-.3,2-.76,5.12c-6-5-.75-24.13-.75-24.13a41,41,0,0,1,7.37.9c4.63,1.31,24.56,37.49,25.52,39.2a8.06,8.06,0,0,1,0,6.25c-.71,1.06-14.89,25.66-14.89,25.66s-3.08,7-10.18,4.39l-4.09,2a8.8,8.8,0,0,1-.71,1.25c-.75,1.12-2.06,2.55-3.72,2.33l-.15-.7s-2.47.37-2.9-.18.15-1.44.15-1.44-2.48.41-2.64-.13,1.67-3.39,1.78-3.57h0s-.17-3.33-.13-3.93,4.89-3.38,4.89-3.38l-1.29-1.11s-3,1.88-4.66,1.92-3.8-.4-4-1.34C74.61,124.9,79.89,122.1,82.26,120.88Z"/><path class="cls-2" d="M79.52,209.62a152.71,152.71,0,0,1,1.15,19.81c-.26,8.87-5.73,51.15-5.73,51.15l.12,6.24s2.87,18.17,1.88,19.52-11.11.29-11.11.29a8.05,8.05,0,0,1-3-.4c.09-3.26.29-9.72,0-13.72a24.7,24.7,0,0,1,1.13-5.8,56.62,56.62,0,0,0,2.44-6.91l-2.5-44.34C64.53,225.67,65,218,65,217.13c0-2.62-2.19-59.31-2.19-59.31l25-18.65a34.48,34.48,0,0,1,.68,6.41A467.61,467.61,0,0,1,79.52,209.62Z"/><path class="cls-1" d="M87.83,139.17l-25,18.65L33.2,147.23a54.79,54.79,0,0,1-.27-8.63s20.67,6.83,47-5.13c-.11.18-2,3.06-1.78,3.57s2.64.13,2.64.13-.58.89-.15,1.44,2.9.18,2.9.18l.15.7c1.66.22,3-1.21,3.72-2.33C87.56,137.84,87.7,138.51,87.83,139.17Z"/><path class="cls-2" d="M84.69,126.16l0,0c-.54.31-4.81,2.78-4.84,3.35s.13,3.93.13,3.93h0c-26.32,12-47,5.13-47,5.13a26.79,26.79,0,0,1,.6-5.38c.27-.08,3.36-12.43,3.63-12.53,1.55-4.33,2.93-7.54,2.93-7.54-.5-3.44-1.12-7.73-1.75-12.13,0,0,28.1-4.81,43.58,2.22-.7,4.74-1.37,9.22-1.85,12.55C80.07,115.79,83.42,123.1,84.69,126.16Z"/><path class="cls-2" d="M79.63,30.86c.63.24,1,1.21,1,3.35a7.82,7.82,0,0,1-2.39,5.47,1.71,1.71,0,0,1-1.54.14l-.23-.06a12.13,12.13,0,0,0,.26-1.6c.11-1.14.25-2.66.36-3.89a15.59,15.59,0,0,0,1.33-3.13,1.31,1.31,0,0,1,.63-.32A1.1,1.1,0,0,1,79.63,30.86Z"/><path class="cls-3" d="M57.15,11.65A14.15,14.15,0,0,1,64,9.87a14.55,14.55,0,0,1,9.94,4A16.58,16.58,0,0,1,79.18,26a16.81,16.81,0,0,1-.78,5.11,15.59,15.59,0,0,1-1.33,3.13c0-.57.08-1.07.1-1.44h0l-.86-.15-.26-.07-.18,0-.21-.06-.24-.07h-.18l0,0h0l-.13,0h0l-.13-.05-.32-.13c-.21-.1-.41-.2-.6-.31s-.35-.23-.52-.35l-.31-.25a2.23,2.23,0,0,1-.27-.26c-2.14-2.18-1.78-5.73-3.79-8.88a11.12,11.12,0,0,0-2.3-2.61l-.35-.29L66,18.83c-.26-.18-.51-.35-.76-.49s-.74-.42-1.08-.59l-.58-.27c-.28-.12-.55-.22-.79-.3l-.34-.12-.17,0-.13,0h0l-.37-.11-.11,0h0l-.1,0h0l-.1,0-.12,0h0c-.27.13-.52.27-.77.41s-.5.29-.74.45-.47.31-.69.47-.45.33-.66.5q-.69.55-1.29,1.14c-.14.13-.27.26-.4.4-.38.4-.74.81-1.09,1.24s-.44.56-.64.85-.41.58-.59.87a22.51,22.51,0,0,0-1.63,3c-.13.28-.25.56-.36.83s-.21.55-.31.81-.27.78-.38,1.15-.15.48-.21.71-.07.23-.1.34c-.12.44-.21.84-.29,1.19,0,.09,0,.17-.05.24s0,.06,0,.1S51,31.82,51,32a4.07,4.07,0,0,0-.06.41l0,.15c0,.1,0,.17,0,.23a.2.2,0,0,1,0,.08,6,6,0,0,0-1.22-1.69A17.12,17.12,0,0,1,48.89,26,16.25,16.25,0,0,1,57.15,11.65Z"/><path class="cls-2" d="M57,49.05a17.42,17.42,0,0,1-1.63-1.92,27.35,27.35,0,0,1-3.11-5.47,11.33,11.33,0,0,1-.61-1.78,11.2,11.2,0,0,1-.31-1.73c-.13-1.33-.24-2.71-.33-3.9,0-.55-.07-1.06-.09-1.5,0-.06,0-.13,0-.23l0-.15A4.07,4.07,0,0,1,51,32c0-.14.06-.3.09-.46s0-.06,0-.1,0-.15.06-.24c.07-.35.17-.75.28-1.19,0-.11.06-.23.1-.34s.13-.47.21-.71.24-.75.38-1.15.21-.53.31-.81.23-.55.36-.83a22.51,22.51,0,0,1,1.63-3c.18-.29.38-.58.59-.87s.42-.57.64-.85.71-.84,1.09-1.24l.4-.4q.6-.58,1.29-1.14c.21-.17.43-.33.66-.5s.45-.32.69-.47.49-.3.74-.45.5-.28.77-.41h.12l.1,0h0l.1,0h0l.11,0,.37.11h0l.13,0,.17,0,.34.12.79.3.58.27c.34.17.71.36,1.08.59s.5.31.76.49l.47.36c.12.09.24.18.35.28a11.12,11.12,0,0,1,2.3,2.61c2,3.15,1.65,6.7,3.79,8.88a2.23,2.23,0,0,0,.27.26l.31.25c.17.12.34.24.52.35s.39.21.6.31l.32.13.13.05h0l.12,0h0l0,0h.18l.24.07.21.06.18,0,.26.06.86.15h0c0,.37-.06.87-.1,1.44-.11,1.23-.25,2.75-.36,3.89a12.13,12.13,0,0,1-.26,1.6,11.61,11.61,0,0,1-.66,2,28.09,28.09,0,0,1-3.09,5.41A16.39,16.39,0,0,1,70.07,50a9.38,9.38,0,0,1-5.74,2.4h-.6A10,10,0,0,1,57,49.05Z"/><path class="cls-3" d="M75.28,9A7.8,7.8,0,0,1,74,13.84a14.55,14.55,0,0,0-9.94-4,14.15,14.15,0,0,0-6.88,1.78A4.61,4.61,0,0,1,55.64,8.4a6.5,6.5,0,0,1,2-4.67A13.09,13.09,0,0,1,62.14,1a10.82,10.82,0,0,1,5.3-1,8.74,8.74,0,0,1,5.49,3.24A10,10,0,0,1,75.28,9Z"/><path class="cls-2" d="M63.85,235.46c-1.33,19.41-3.34,47.19-3.34,47.19a58.18,58.18,0,0,0,1.81,7.11,13.32,13.32,0,0,1,.46,2.75c.33,4,.13,10.46,0,13.72,0,.8,0,1.42,0,1.75,0,2.08-4.16,1.44-4.16,1.44s-10.18.15-11-1.29,3.64-19.28,3.64-19.28l.68-6.2s-6.24-36.86-6.81-45.36,4.08-29,4.08-29c-11.62-30.72-15-50.66-16-61l29.65,10.59S65,214.51,65,217.13C65,218,64.53,225.67,63.85,235.46Z"/><path class="cls-2" d="M47.81,31.52a1.06,1.06,0,0,1,1.23-.7,1.24,1.24,0,0,1,.62.32,6,6,0,0,1,1.22,1.69.2.2,0,0,0,0-.08c0-.06,0-.13,0-.23,0,.1,0,.17,0,.23,0,.44.06,1,.09,1.5.09,1.19.2,2.57.33,3.9a11.2,11.2,0,0,0,.31,1.73,2.64,2.64,0,0,1-1.79-.2,8,8,0,0,1-2.39-5.47A6.71,6.71,0,0,1,47.81,31.52Z"/><polygon points="79.44 31.5 79.44 31.49 80.44 31.49 79.44 31.5"/><path class="cls-1" d="M63.09,40.38c0,.12.13.22.29.2.88-.09,3.29-.42,3.49-1.33s-1.81-4.6-2.73-6.25c-.1-.19-.49-.14-.51.06Z"/><path class="cls-3" d="M67.22,33.06a.47.47,0,0,1-.17,0,.49.49,0,0,1-.3-.63c0-.07.65-1.78,3.33-1.78h0c2.61,0,3.5,1.29,3.54,1.34a.5.5,0,1,1-.82.57c0-.05-.7-.9-2.73-.91h0c-1.94,0-2.37,1.07-2.39,1.12A.52.52,0,0,1,67.22,33.06Z"/><path class="cls-3" d="M73.74,30.56a.56.56,0,0,1-.32-.11,5.34,5.34,0,0,0-2.7-1.14,5.46,5.46,0,0,0-2.9.48.5.5,0,0,1-.67-.24.5.5,0,0,1,.24-.66,6.27,6.27,0,0,1,3.44-.57,6.42,6.42,0,0,1,3.22,1.35.5.5,0,0,1-.31.89Z"/><path class="cls-3" d="M69.25,31.19c-.19.06-.16.37-.16.59a1.14,1.14,0,0,0,2.28,0,1.1,1.1,0,0,0-.15-.57A4.3,4.3,0,0,0,69.25,31.19Z"/><path class="cls-3" d="M61,33a.5.5,0,0,1-.48-.34s-.44-1.11-2.4-1.12-2.71.85-2.73.89a.51.51,0,0,1-.7.11.5.5,0,0,1-.12-.69c0-.05.93-1.31,3.52-1.31h0c2.71,0,3.32,1.73,3.35,1.8a.5.5,0,0,1-.31.63Z"/><path class="cls-3" d="M54.5,30.49a.53.53,0,0,1-.4-.19.5.5,0,0,1,.08-.7,6.33,6.33,0,0,1,6.68-.74.51.51,0,0,1,.23.67.5.5,0,0,1-.67.23,5.47,5.47,0,0,0-2.9-.5,5.39,5.39,0,0,0-2.71,1.12A.56.56,0,0,1,54.5,30.49Z"/><path class="cls-3" d="M57,31.17c-.15.11-.15.36-.15.56a1.14,1.14,0,1,0,2.28,0,1.21,1.21,0,0,0-.16-.59S57.48,30.83,57,31.17Z"/><path class="cls-4" d="M68.73,38.48c-.07,1.08,1.23,2.05,2.89,2.16s3.08-.69,3.15-1.77-1.22-2-2.89-2.16S68.8,37.39,68.73,38.48Z"/><path class="cls-4" d="M53.8,37.77c-.07,1.08,1.22,2,2.89,2.16s3.07-.69,3.14-1.77-1.22-2-2.89-2.16S53.87,36.68,53.8,37.77Z"/><path class="cls-1" d="M77.35,38.64l-.13,0a.51.51,0,0,1-.35-.62,18,18,0,0,1,1.95-4.47.5.5,0,0,1,.85.52,17.21,17.21,0,0,0-1.84,4.22A.5.5,0,0,1,77.35,38.64Z"/><path class="cls-1" d="M50.74,38.43a.5.5,0,0,1-.49-.38,15,15,0,0,0-1.79-4.32.5.5,0,1,1,.85-.52,15.72,15.72,0,0,1,1.91,4.6.5.5,0,0,1-.37.61Z"/><path class="cls-3" d="M64.1,44.8a6,6,0,0,1-4.77-2,.49.49,0,0,1,.06-.7.51.51,0,0,1,.71.06c1.89,2.28,5.31,1.54,5.35,1.53a.5.5,0,0,1,.22,1A8,8,0,0,1,64.1,44.8Z"/><path class="cls-1" d="M46.64,136.92a2.88,2.88,0,0,1-1.08-.2.51.51,0,0,1-.26-.66.5.5,0,0,1,.66-.26,2,2,0,0,0,1.45,0,.69.69,0,0,0,.42-.34,6.9,6.9,0,0,0-1.59-2.55.49.49,0,0,1-.12-.34,25.65,25.65,0,0,0-.09-4c-.19-.18-2.26-1.5-4.11-2.64a.48.48,0,0,1-.24-.33.5.5,0,0,1,.1-.39l1-1.29a.51.51,0,0,1,.35-.2.52.52,0,0,1,.39.13s2.32,2,4.57,1.79c1.7-.2,2.42-.72,2.49-.88,0,0-.08-.05-.23-.12-.37-.17-1.12-.58-2-1.08a46.91,46.91,0,0,0-6.12-3,25.44,25.44,0,0,0-4.88.71.5.5,0,0,1-.59-.38.5.5,0,0,1,.38-.6,26.31,26.31,0,0,1,5.21-.72c.85.11,3.44,1.48,6.48,3.12.9.49,1.63.89,2,1.06.82.39.82,1,.78,1.18-.16,1-1.84,1.54-3.36,1.71a7.4,7.4,0,0,1-4.93-1.7l-.33.44a32.65,32.65,0,0,1,4,2.66c.1.14.37.5.25,4.43.81,1,2,2.55,1.65,3.4a1.7,1.7,0,0,1-1,.92A3,3,0,0,1,46.64,136.92Z"/><path class="cls-1" d="M45.25,138.69a6,6,0,0,1-2.08-.54.5.5,0,1,1,.42-.91,3.58,3.58,0,0,0,1.86.43A7,7,0,0,0,44.39,135c-.11-.19-.22-.38-.32-.57a7.1,7.1,0,0,1-.49-2.68c0-.32,0-.75-.09-.95-.79-.39-4.08-2.1-4.23-2.18a.5.5,0,1,1,.46-.88c1.1.57,4,2.08,4.32,2.22.45.2.48.74.53,1.73A6.59,6.59,0,0,0,45,134c.09.18.2.37.3.56a6.89,6.89,0,0,1,1.16,3.16,1,1,0,0,1-.43.82A1.36,1.36,0,0,1,45.25,138.69Zm-1.62-7.81Z"/><path class="cls-1" d="M42.13,138.76a1.43,1.43,0,0,1-.64-.15,5,5,0,0,1-2.73-3.29l-4.42-1.83c-.7.27-3.1,1-4.92.3a.5.5,0,0,1,.38-.93c1.72.72,4.33-.36,4.35-.37a.53.53,0,0,1,.39,0l4.84,2a.47.47,0,0,1,.29.35,4.1,4.1,0,0,0,2.26,2.87.43.43,0,0,0,.61-.41,5.19,5.19,0,0,0-1.1-3.09c-1-.76-4.89-3.63-4.93-3.66a.5.5,0,0,1-.11-.7.51.51,0,0,1,.7-.11c.16.12,4,2.91,5,3.68a6,6,0,0,1,1.47,3.82,1.42,1.42,0,0,1-.62,1.28A1.48,1.48,0,0,1,42.13,138.76Z"/><path class="cls-1" d="M28,125.52a.53.53,0,0,1-.24-.06.51.51,0,0,1-.2-.68,4.51,4.51,0,0,1,2-1.85.52.52,0,0,1,.65.3.5.5,0,0,1-.3.64,3.51,3.51,0,0,0-1.51,1.39A.51.51,0,0,1,28,125.52Z"/><path class="cls-1" d="M98.15,127.41a.5.5,0,0,1-.49-.4,4.07,4.07,0,0,0-1-2,.49.49,0,0,1,0-.7.5.5,0,0,1,.71,0,5.12,5.12,0,0,1,1.26,2.43.5.5,0,0,1-.39.59Z"/><path class="cls-1" d="M79.92,134a.49.49,0,0,1-.49-.41c-.1-.53-.55-3.24-.09-4.23.39-.83,3-2.43,4.48-3.26l-.48-.41A25,25,0,0,1,78,127.9a3.31,3.31,0,0,1-3.7-2.08.5.5,0,0,1,.26-.65,77.65,77.65,0,0,0,7.41-4.7.5.5,0,0,1,.57.82c-.21.15-4.83,3.4-7.09,4.56a2.18,2.18,0,0,0,2.34,1.07,26.37,26.37,0,0,0,5.37-2.3.5.5,0,0,1,.57,0L85,125.78a.48.48,0,0,1,.17.43.5.5,0,0,1-.25.39c-2.08,1.15-4.46,2.68-4.68,3.15a10.35,10.35,0,0,0,.16,3.63.5.5,0,0,1-.4.58Z"/><path class="cls-1" d="M80.21,138a.48.48,0,0,1-.37-.17.49.49,0,0,1,0-.7,5.18,5.18,0,0,0,1.73-3.61c0-.14,0-.29,0-.44a4.37,4.37,0,0,1,.15-1.37,4.48,4.48,0,0,1,1.93-2.19A4.53,4.53,0,0,0,85.22,128a.5.5,0,0,1,.9.44,5.34,5.34,0,0,1-1.82,1.84A3.75,3.75,0,0,0,82.73,132a3.68,3.68,0,0,0-.1,1.07c0,.17,0,.33,0,.49a6.17,6.17,0,0,1-2.08,4.31A.5.5,0,0,1,80.21,138Z"/><path class="cls-1" d="M83.16,139.58a.51.51,0,0,1-.37-.17.49.49,0,0,1,0-.7,2.33,2.33,0,0,0,.57-1.7l0-.44a5.44,5.44,0,0,1,.28-1.94,5.65,5.65,0,0,1,1.73-2.06,4,4,0,0,0,1.49-1.85.51.51,0,0,1,.61-.37.5.5,0,0,1,.36.61,4.74,4.74,0,0,1-1.81,2.37A4.84,4.84,0,0,0,84.63,135a4.45,4.45,0,0,0-.21,1.58c0,.15,0,.31,0,.46a3.26,3.26,0,0,1-.9,2.4A.5.5,0,0,1,83.16,139.58Z"/><path class="cls-1" d="M63.22,245h0a.51.51,0,0,1-.47-.53c0-.17,1.14-16.46,1.82-27.4s-2.16-58.77-2.19-59.25a.5.5,0,0,1,.47-.53.5.5,0,0,1,.53.47c0,.48,2.87,48.4,2.19,59.37s-1.81,27.24-1.82,27.41A.5.5,0,0,1,63.22,245Z"/><path class="cls-1" d="M59.21,213.35a9.07,9.07,0,0,1-6.42-2.63.5.5,0,1,1,.72-.7,8,8,0,0,0,8.52,1.8.49.49,0,0,1,.65.28.5.5,0,0,1-.28.65A8.73,8.73,0,0,1,59.21,213.35Z"/><path class="cls-1" d="M73.52,214.87a8.5,8.5,0,0,1-5.15-1.69.5.5,0,0,1,.61-.79,7.59,7.59,0,0,0,7.55.85.5.5,0,1,1,.41.91A8.2,8.2,0,0,1,73.52,214.87Z"/><path class="cls-1" d="M34.9,78.42a.49.49,0,0,1-.49-.42,38.17,38.17,0,0,0-1.21-5.39.5.5,0,0,1,.33-.62.51.51,0,0,1,.63.33,40.17,40.17,0,0,1,1.24,5.53.51.51,0,0,1-.42.57Z"/><path class="cls-1" d="M85.54,77h0a.51.51,0,0,1-.46-.54,11.39,11.39,0,0,1,1.55-4.84.5.5,0,0,1,.69-.17.49.49,0,0,1,.17.68A10.45,10.45,0,0,0,86,76.52.5.5,0,0,1,85.54,77Z"/><path class="cls-1" d="M103.53,99a.55.55,0,0,1-.25-.07.51.51,0,0,1-.18-.69A7.69,7.69,0,0,1,107,95a.5.5,0,0,1,.64.29.5.5,0,0,1-.29.65A6.7,6.7,0,0,0,104,98.74.5.5,0,0,1,103.53,99Z"/><path class="cls-1" d="M14.41,97.69a.5.5,0,0,1-.31-.1,5.28,5.28,0,0,0-3.41-1,.49.49,0,0,1-.53-.47.5.5,0,0,1,.47-.53,6.25,6.25,0,0,1,4.08,1.26.49.49,0,0,1,.09.7A.48.48,0,0,1,14.41,97.69Z"/><path class="cls-1" d="M60,129.92a.49.49,0,0,1-.32-.12L57.42,128a.5.5,0,0,1-.07-.7.5.5,0,0,1,.71-.07L60.3,129a.49.49,0,0,1,.06.7A.5.5,0,0,1,60,129.92Z"/><path class="cls-1" d="M54.1,285.57a.5.5,0,0,1-.11-1,14.67,14.67,0,0,1,4.18-.3.5.5,0,1,1-.07,1,13.38,13.38,0,0,0-3.89.29Z"/><path class="cls-1" d="M72.45,283.71l-.18,0a5.85,5.85,0,0,0-3.53-.24.53.53,0,0,1-.61-.37.51.51,0,0,1,.37-.61,6.94,6.94,0,0,1,4.13.28.5.5,0,0,1,.28.65A.48.48,0,0,1,72.45,283.71Z"/><path class="cls-1" d="M66.26,307.05a.5.5,0,0,1-.46-.3.51.51,0,0,1,.25-.66,1.16,1.16,0,0,0,.54-1.15,4.58,4.58,0,0,0-.61-1.63.51.51,0,0,1,.21-.68.49.49,0,0,1,.67.21,5.23,5.23,0,0,1,.72,2A2.13,2.13,0,0,1,66.46,307,.51.51,0,0,1,66.26,307.05Z"/><path class="cls-1" d="M69.93,307.6a.51.51,0,0,1-.32-.12.5.5,0,0,1-.06-.7,1.41,1.41,0,0,0,.33-1.06,1.43,1.43,0,0,0-.54-1A.5.5,0,0,1,70,304a2.42,2.42,0,0,1,.36,3.45A.5.5,0,0,1,69.93,307.6Z"/><path class="cls-1" d="M72.33,307.38a.5.5,0,0,1-.39-.82,1.19,1.19,0,0,0,.14-1,4.65,4.65,0,0,0-.65-1.22.5.5,0,0,1,.14-.69.51.51,0,0,1,.7.14,5.37,5.37,0,0,1,.77,1.51,2.13,2.13,0,0,1-.33,1.92A.49.49,0,0,1,72.33,307.38Z"/><path class="cls-1" d="M74.74,307.32a.5.5,0,0,1-.39-.18.51.51,0,0,1,.08-.71,1.12,1.12,0,0,0,.14-1.6.51.51,0,0,1,.05-.71.49.49,0,0,1,.7.05,2.12,2.12,0,0,1,.52,1.58,2.1,2.1,0,0,1-.79,1.46A.45.45,0,0,1,74.74,307.32Z"/><path class="cls-1" d="M58.76,310a.5.5,0,0,1-.34-.13,3.88,3.88,0,0,1-.49-5.2.5.5,0,0,1,.8.6,2.87,2.87,0,0,0,.36,3.86.5.5,0,0,1,0,.71A.49.49,0,0,1,58.76,310Z"/><path class="cls-1" d="M55,309.38a.49.49,0,0,1-.44-.26,3.39,3.39,0,0,1,.18-3.4.5.5,0,0,1,.7-.13.49.49,0,0,1,.13.69,2.39,2.39,0,0,0-.13,2.37.5.5,0,0,1-.21.68A.59.59,0,0,1,55,309.38Z"/><path class="cls-1" d="M52.24,309.46a.51.51,0,0,1-.44-.26,2.93,2.93,0,0,1,.78-3.62.51.51,0,0,1,.7.1.5.5,0,0,1-.09.7,2,2,0,0,0-.51,2.35.49.49,0,0,1-.2.67A.53.53,0,0,1,52.24,309.46Z"/><path class="cls-1" d="M49.58,309a.49.49,0,0,1-.4-.21,2.92,2.92,0,0,1-.2-3.11.51.51,0,0,1,.68-.2.5.5,0,0,1,.19.68,2,2,0,0,0,.13,2,.5.5,0,0,1-.1.7A.57.57,0,0,1,49.58,309Z"/><path class="cls-1" d="M62.79,307.6h0a.5.5,0,0,1-.49-.51c0-.08.17-8.11.16-10s-.26-5.39-.41-6.37a28.8,28.8,0,0,0-.95-3.29.51.51,0,0,1,.31-.64.5.5,0,0,1,.63.31,29.46,29.46,0,0,1,1,3.47,64.78,64.78,0,0,1,.42,6.52c0,1.92-.16,10-.16,10A.49.49,0,0,1,62.79,307.6Z"/></g></g></svg>