<svg xmlns="http://www.w3.org/2000/svg" viewBox="0 0 96.72 300.34"><defs><style>.cls-1{fill:#e06a43;}.cls-2{fill:#e79e73;}.cls-3{fill:#2b3448;}.cls-4{fill:#df895d;}</style></defs><g id="Layer_2" data-name="Layer 2"><g id="OBJECTS"><path class="cls-1" d="M50.62,37.26c2,2.69,4.79,5.13,8.38,5.25h.6a9.75,9.75,0,0,0,6.29-2.87l.24,2.18C60,47,49.75,45.33,49.75,45.33Z"/><path class="cls-2" d="M57.28,251c-2,10.42-4.43,24.08-4.36,26.08,0,.8.17,2.47.31,4.55.33,4.8.67,11.78-.26,15.45-.32,1.27-.8,2.14-1.49,2.38-3.51,1.21-10.92.07-12.39-1.29s0-8.08,1.06-11,1.73-9,1.73-9,0-31.91-.3-47.18,7.11-19.51,7.11-19.51c-15.06-34.72-17.83-55.86-18-65.92,0,0,21,1.81,31.8,13.83,0,0,4,47.18,3.44,51.49s-6.31,28-6.31,28S58.53,244.25,57.28,251Z"/><path class="cls-2" d="M77.22,52.65c4.41,2.11,8.85,4.6,10.28,6.58,3.12,4.34,8.37,49.3,8.37,49.3L96,141.9s.7,9.17.7,10.28-4.53,7-4.74,7.66-1.42,4.63-4.34,5.79C89.5,154,90.89,143,90.57,137.68a41.13,41.13,0,0,0-2.66-11.39,79.84,79.84,0,0,0-3.55-8.08h0l-3.31-15L77.48,88.37c1.46-2.76,2.78-6.07,2.76-9,0-6.45-7.88-29-7.88-29C73.86,51.08,75.54,51.84,77.22,52.65Z"/><path class="cls-2" d="M90.57,136.79c.32,5.35-1.07,17.39-2.93,29-3.1,19.33-7.5,40.46-7.5,40.46s1.44,15.77.45,23.11-14.11,42.77-14.11,42.77S69,291.66,67.54,295s-11.6,3.7-14.57,2.23c.93-3.67.59-10.65.26-15.45,0-.09,3.62-10.47,3.62-10.47l.43-20.16c1.25-6.72,2.3-12.1,2.3-12.1s5.78-23.66,6.31-28-3.44-52.55-3.44-52.55C67.82,142.26,90.57,136.79,90.57,136.79Z"/><path class="cls-1" d="M87.91,126.29a41.13,41.13,0,0,1,2.66,11.39s-22.75,5.48-28.12,21.73c-10.81-12-31.8-13.83-31.8-13.83a34.34,34.34,0,0,1,.39-7.11,13.6,13.6,0,0,0,2.34-1.29,17.65,17.65,0,0,0,5.71,1.55,4.13,4.13,0,0,0,3.59-1.47s2.46,1.53,3.44.3.11-1.7.11-1.7.59.1.72-.42c0,0,24.78,3.26,40.69-9Z"/><path class="cls-2" d="M87.91,126.29l-.26.11c-15.91,12.3-40.7,9-40.7,9,.14-.51-14.33.27-15.19-.28-.12-.08-.11-.3,0-.62v-9.08c2.13-13,3.92-14.59,3.92-14.59L32.43,97.32a69.72,69.72,0,0,1,41.63-1.56l2.29,8.94a112.47,112.47,0,0,1,8,13.5h0A82.1,82.1,0,0,1,87.91,126.29Z"/><path class="cls-1" d="M80.24,79.4c0,2.9-1.3,6.21-2.76,9a45.76,45.76,0,0,1-3.79,5.95l.37,1.44a69.66,69.66,0,0,0-41.63,1.57L28.71,81.85c14.95,0,9.15-33,9.06-33.5h0l2.55-.7c0,.49,2,23.53,19,23.09s10.13-21.28,10-21.57c.85.35,1.88.78,3,1.27C72.36,50.43,80.19,73,80.24,79.4Z"/><path class="cls-2" d="M73.9,29.42a4.33,4.33,0,0,1-.4.38,1.69,1.69,0,0,1-1.55.14l-.23-.05a12.13,12.13,0,0,0,.26-1.6c.11-1.14.25-2.67.36-3.89a16.76,16.76,0,0,0,1.34-3.13c.07-.22.13-.44.19-.67h0a4.06,4.06,0,0,1,2,3.73A8.15,8.15,0,0,1,73.9,29.42Z"/><path class="cls-2" d="M72.44,23h0c0,.37-.07.87-.11,1.44-.11,1.22-.25,2.75-.36,3.89a12.13,12.13,0,0,1-.26,1.6,11.5,11.5,0,0,1-.66,2A28.43,28.43,0,0,1,68,37.29a17.76,17.76,0,0,1-2.08,2.35,9.75,9.75,0,0,1-6.29,2.87H59c-3.59-.12-6.38-2.56-8.38-5.25a27.63,27.63,0,0,1-3.11-5.47A11.45,11.45,0,0,1,46.9,30a11.07,11.07,0,0,1-.31-1.72c-.13-1.33-.24-2.72-.33-3.9,0-.55-.06-1.06-.09-1.51h0c.34-.23,11.25-7.53,12.95-15.14a9.66,9.66,0,0,0,.19-1.16S70.26,8.6,72.44,23Z"/><path class="cls-2" d="M69.35,49.16c.09.29,7,21.12-10,21.57s-19-22.6-19-23.09c5.1-1.37,9.43-2.31,9.43-2.31S60,47,66.13,41.82l.7,6.33s1,.37,2.52,1Z"/><path class="cls-3" d="M59.31,6.57a9.66,9.66,0,0,1-.19,1.16c-1.7,7.61-12.61,14.91-12.95,15.14,0-.06,0-.13,0-.22,0,.09,0,.17,0,.22a.31.31,0,0,1,0,.09,5.84,5.84,0,0,0-1.22-1.69,1.3,1.3,0,0,0-.62-.33,1.07,1.07,0,0,0-1.23.71,6.54,6.54,0,0,0-.35,2.69,7.87,7.87,0,0,0,2.38,5.46,2.58,2.58,0,0,0,1.79.2,11.45,11.45,0,0,0,.61,1.79,27.63,27.63,0,0,0,3.11,5.47l-.87,8.07s-4.33.94-9.43,2.31l-2.55.7h0a76,76,0,0,0-10.1,3.48,11.24,11.24,0,0,0-3.33,3c-4.19-10.42,3.09-18.66,10-24.89a34.77,34.77,0,0,0,9.78-16.57l.22,0C45.6,5.79,51.82,0,59.3,0c8.37,0,15.15,7.23,15.15,16.16a17,17,0,0,1-.58,4.44c-.06.23-.12.45-.19.67a16.76,16.76,0,0,1-1.34,3.13c0-.57.08-1.07.11-1.44h0C70.26,8.6,59.31,6.57,59.31,6.57Z"/><path class="cls-3" d="M77.22,52.65c-1.68-.81-3.36-1.57-4.86-2.22-1.13-.49-2.16-.92-3-1.27h0c-1.54-.63-2.52-1-2.52-1l-.7-6.33-.24-2.18A17.76,17.76,0,0,0,68,37.29a28.43,28.43,0,0,0,3.09-5.42,11.5,11.5,0,0,0,.66-2l.23.05a1.69,1.69,0,0,0,1.55-.14,4.33,4.33,0,0,0,.4-.38C75,31.87,79.16,42.63,77.22,52.65Z"/><path class="cls-2" d="M31.76,125.46l5.36-5.14,7.94,1.51c0,3-7.11,2.65-7.11,2.65l-1.47,2.88s5.39.55,6.23,1.09,4.37,6.48,4.24,7-.72.42-.72.42.87.47-.11,1.7-3.44-.3-3.44-.3a4.13,4.13,0,0,1-3.59,1.47,17.65,17.65,0,0,1-5.71-1.55A13.6,13.6,0,0,1,31,138.47a11.6,11.6,0,0,1-4.43,1c-3.59,0-7.56-6.16-7.56-6.16S0,104.67,0,100.82c0-3.36,15.63-35.61,24.34-46a11.24,11.24,0,0,1,3.33-3,76,76,0,0,1,10.1-3.48c.09.51,5.89,33.47-9.06,33.5L28,78.76,14.14,99.08l12,29.48,5.48-3Z"/><path class="cls-2" d="M43.08,21.65a1.07,1.07,0,0,1,1.23-.71,1.3,1.3,0,0,1,.62.33A5.84,5.84,0,0,1,46.15,23a.31.31,0,0,0,0-.09c0-.05,0-.13,0-.22,0,.09,0,.16,0,.22h0c0,.45.06,1,.09,1.51.09,1.18.2,2.57.33,3.9A11.07,11.07,0,0,0,46.9,30a2.58,2.58,0,0,1-1.79-.2,7.87,7.87,0,0,1-2.38-5.46A6.54,6.54,0,0,1,43.08,21.65Z"/><polygon points="74.74 21.97 74.74 21.96 75.74 21.96 74.74 21.97"/><path class="cls-1" d="M58.39,30.85c0,.12.13.22.29.21.88-.1,3.29-.43,3.49-1.33s-1.81-4.6-2.73-6.25c-.1-.2-.49-.15-.51.06Z"/><path class="cls-3" d="M62.52,23.54a.33.33,0,0,1-.17,0,.49.49,0,0,1-.3-.63c0-.07.69-1.75,3.36-1.77s3.5,1.29,3.54,1.34a.49.49,0,0,1-.13.69.49.49,0,0,1-.69-.12c0-.05-.7-.9-2.73-.91h0c-1.94,0-2.37,1.07-2.39,1.11A.52.52,0,0,1,62.52,23.54Z"/><path class="cls-3" d="M69,21a.51.51,0,0,1-.31-.11A5.33,5.33,0,0,0,66,19.79a5.27,5.27,0,0,0-2.9.48.5.5,0,0,1-.43-.91,6.46,6.46,0,0,1,3.44-.57,6.35,6.35,0,0,1,3.22,1.36.5.5,0,0,1,.08.7A.52.52,0,0,1,69,21Z"/><path class="cls-3" d="M64.55,21.67c-.19,0-.16.37-.16.59a1.14,1.14,0,1,0,2.28,0,1.07,1.07,0,0,0-.15-.56A4.3,4.3,0,0,0,64.55,21.67Z"/><path class="cls-3" d="M56.3,23.52a.51.51,0,0,1-.48-.34s-.44-1.12-2.4-1.12h0c-2,0-2.67.85-2.7.88a.51.51,0,0,1-.7.11.49.49,0,0,1-.12-.68c0-.05,1-1.29,3.55-1.31s3.33,1.72,3.35,1.79a.5.5,0,0,1-.31.64A.45.45,0,0,1,56.3,23.52Z"/><path class="cls-3" d="M49.8,21a.53.53,0,0,1-.4-.19.51.51,0,0,1,.09-.71,6.34,6.34,0,0,1,3.23-1.33,6.49,6.49,0,0,1,3.44.6.5.5,0,1,1-.44.9,5.36,5.36,0,0,0-2.9-.5,5.3,5.3,0,0,0-2.71,1.12A.51.51,0,0,1,49.8,21Z"/><path class="cls-3" d="M52.3,21.64c-.15.12-.15.36-.15.57a1.15,1.15,0,0,0,1.14,1.15,1.14,1.14,0,0,0,1.14-1.14,1.07,1.07,0,0,0-.16-.59S52.78,21.31,52.3,21.64Z"/><path class="cls-4" d="M64,29C64,30,65.26,31,66.92,31.11s3.08-.68,3.15-1.76-1.22-2.05-2.89-2.16S64.1,27.87,64,29Z"/><path class="cls-4" d="M49.1,28.24C49,29.33,50.32,30.29,52,30.4s3.07-.68,3.14-1.76-1.22-2.06-2.89-2.16S49.17,27.16,49.1,28.24Z"/><path class="cls-1" d="M72.65,29.11h-.13a.51.51,0,0,1-.35-.62,17.79,17.79,0,0,1,2-4.47.5.5,0,1,1,.85.52,17.21,17.21,0,0,0-1.84,4.22A.49.49,0,0,1,72.65,29.11Z"/><path class="cls-1" d="M46,28.91a.51.51,0,0,1-.49-.39,15,15,0,0,0-1.79-4.31.51.51,0,0,1,.16-.69.5.5,0,0,1,.69.16,15.78,15.78,0,0,1,1.91,4.61.49.49,0,0,1-.36.6Z"/><path class="cls-3" d="M59.4,35.28a6,6,0,0,1-4.77-2,.51.51,0,0,1,.06-.71.52.52,0,0,1,.71.07c1.89,2.27,5.32,1.54,5.35,1.53a.5.5,0,0,1,.6.38.49.49,0,0,1-.38.59A6.88,6.88,0,0,1,59.4,35.28Z"/><path class="cls-1" d="M59.17,124.55a.54.54,0,0,1-.21,0,.49.49,0,0,1-.24-.66l1.43-3.12a.5.5,0,0,1,.66-.25.52.52,0,0,1,.25.67l-1.43,3.12A.52.52,0,0,1,59.17,124.55Z"/><path class="cls-1" d="M87.64,166.13h-.08a.5.5,0,0,1-.41-.58c4.89-27.19,2.77-32.67.72-38-.15-.37-.29-.74-.43-1.11A126.92,126.92,0,0,0,81,112.93a.5.5,0,1,1,.87-.49,126.44,126.44,0,0,1,6.56,13.68l.42,1.1c2.1,5.42,4.27,11-.66,38.5A.51.51,0,0,1,87.64,166.13Z"/><path class="cls-1" d="M89.6,156.71a.53.53,0,0,1-.2-.05.49.49,0,0,1-.25-.65,19.3,19.3,0,0,1,2.55-4.28.5.5,0,0,1,.7-.09.51.51,0,0,1,.09.7,19.06,19.06,0,0,0-2.43,4.07A.49.49,0,0,1,89.6,156.71Z"/><path class="cls-1" d="M27.1,80.53a.51.51,0,0,1-.28-.09.5.5,0,0,1-.13-.69l5.56-8.1a.5.5,0,0,1,.69-.12.49.49,0,0,1,.13.69l-5.55,8.09A.5.5,0,0,1,27.1,80.53Z"/><path class="cls-1" d="M14.14,99.58a.51.51,0,0,1-.47-.31c-.7-1.74-2.93-1.46-3-1.45a.5.5,0,0,1-.56-.43.5.5,0,0,1,.43-.56c1.06-.15,3.28.1,4.08,2.06a.51.51,0,0,1-.27.65A.46.46,0,0,1,14.14,99.58Z"/><path class="cls-1" d="M36.68,127.67a.5.5,0,0,1-.35-.15.49.49,0,0,1,0-.7,3.37,3.37,0,0,0,.59-1.1A3.45,3.45,0,0,1,38,124.09a3.42,3.42,0,0,1,1.88-.47,11.56,11.56,0,0,0,4.36-.79,1.62,1.62,0,0,0,.54-.37.34.34,0,0,0,.08-.31c-.08-.14-.46-.21-.6-.23L40,121.13a6.7,6.7,0,0,0-2.43-.16,6,6,0,0,0-3.17,2.18l-.43.5a10.43,10.43,0,0,1-2.77,2.52.5.5,0,0,1-.68-.2.51.51,0,0,1,.2-.68A9.58,9.58,0,0,0,33.23,123l.44-.51A7,7,0,0,1,37.41,120a7.88,7.88,0,0,1,2.8.17l4.22.78a1.7,1.7,0,0,1,1.3.77,1.29,1.29,0,0,1-.17,1.37,2.37,2.37,0,0,1-.91.66,12.4,12.4,0,0,1-4.73.89,2.58,2.58,0,0,0-1.35.29,2.55,2.55,0,0,0-.72,1.18,4,4,0,0,1-.81,1.43A.51.51,0,0,1,36.68,127.67Z"/><path class="cls-1" d="M47,136.27a.5.5,0,0,1-.23-1,.34.34,0,0,0,0-.11,1.41,1.41,0,0,0-.22-.47L44,130.69A4.66,4.66,0,0,0,42.57,129a4.66,4.66,0,0,0-1.46-.42l-5.53-1a.5.5,0,0,1-.4-.58.49.49,0,0,1,.58-.4l5.52,1a5.24,5.24,0,0,1,1.77.52,5.48,5.48,0,0,1,1.85,2.07l2.48,4.06a2.06,2.06,0,0,1,.36.85,1.1,1.1,0,0,1-.54,1.15A.59.59,0,0,1,47,136.27Z"/><path class="cls-1" d="M46.88,136.79a.46.46,0,0,1-.23-.06,11.91,11.91,0,0,1-2.67-2.1,10.36,10.36,0,0,0-2.55-2,10.67,10.67,0,0,0-3.37-.79,10.65,10.65,0,0,1-3.93-1,.5.5,0,1,1,.49-.88,9.54,9.54,0,0,0,3.57.91,11.53,11.53,0,0,1,3.68.89,11.28,11.28,0,0,1,2.8,2.18,11.31,11.31,0,0,0,2.44,1.94.49.49,0,0,1,.21.67A.5.5,0,0,1,46.88,136.79Z"/><path class="cls-1" d="M42.94,138.16a.51.51,0,0,1-.37-.17,12.23,12.23,0,0,0-10.15-3.87.5.5,0,0,1-.55-.44.5.5,0,0,1,.45-.55,13.22,13.22,0,0,1,11,4.19.5.5,0,0,1-.37.84Z"/><path class="cls-1" d="M57.22,254.26h-.1a.49.49,0,0,1-.39-.59c.06-.31,6.27-31.39,8.67-42.86S62,159.88,62,159.48a.51.51,0,0,1,.43-.57.5.5,0,0,1,.56.43c.24,1.63,5.86,40.1,3.44,51.66s-8.61,42.55-8.67,42.86A.5.5,0,0,1,57.22,254.26Z"/><path class="cls-1" d="M58.1,214a8.48,8.48,0,0,1-4.69-1.4.49.49,0,0,1-.14-.69.5.5,0,0,1,.69-.14,7.51,7.51,0,0,0,6.08,1,.5.5,0,1,1,.27,1A8.29,8.29,0,0,1,58.1,214Z"/><path class="cls-1" d="M70.23,213.43h-.51a.51.51,0,0,1-.47-.53.48.48,0,0,1,.53-.47,7.86,7.86,0,0,0,5.67-2,.5.5,0,1,1,.66.74A8.87,8.87,0,0,1,70.23,213.43Z"/><path class="cls-1" d="M52.78,297.54h-.07a.5.5,0,0,1-.42-.57,65.3,65.3,0,0,0,.08-20,.51.51,0,0,1,.42-.57.51.51,0,0,1,.57.42,66.3,66.3,0,0,1-.08,20.28A.51.51,0,0,1,52.78,297.54Z"/><path class="cls-1" d="M48.24,300.34a.47.47,0,0,1-.17,0,.51.51,0,0,1-.31-.64,4.23,4.23,0,0,0,.05-2.7.51.51,0,0,1,.33-.63.51.51,0,0,1,.63.33,5.27,5.27,0,0,1-.06,3.33A.51.51,0,0,1,48.24,300.34Z"/><path class="cls-1" d="M44.71,300.15a.43.43,0,0,1-.19,0,.51.51,0,0,1-.28-.65,4.37,4.37,0,0,0,.27-2.21.5.5,0,0,1,.43-.56.51.51,0,0,1,.56.43,5.33,5.33,0,0,1-.33,2.71A.48.48,0,0,1,44.71,300.15Z"/><path class="cls-1" d="M41.82,299.63a.45.45,0,0,1-.2,0,.49.49,0,0,1-.25-.66,4.32,4.32,0,0,0,.38-1.87.5.5,0,0,1,1,0,5.23,5.23,0,0,1-.47,2.31A.5.5,0,0,1,41.82,299.63Z"/><path class="cls-1" d="M40.06,298.94a.5.5,0,0,1-.44-.73,4.29,4.29,0,0,0,.45-1.53.51.51,0,0,1,.54-.46.5.5,0,0,1,.45.55,5.26,5.26,0,0,1-.55,1.9A.51.51,0,0,1,40.06,298.94Z"/><path class="cls-1" d="M55.8,298.38a.51.51,0,0,1-.5-.49l0-2.31a.5.5,0,0,1,1,0l0,2.32a.49.49,0,0,1-.49.51Z"/><path class="cls-1" d="M59.43,298.52a.51.51,0,0,1-.5-.49l0-2.37a.49.49,0,0,1,.49-.5h0a.51.51,0,0,1,.5.49l0,2.36a.5.5,0,0,1-.49.51Z"/><path class="cls-1" d="M62.34,298a.49.49,0,0,1-.49-.44l-.21-1.95a.5.5,0,0,1,1-.11l.21,2a.5.5,0,0,1-.44.55Z"/><path class="cls-1" d="M65.21,297.13a.5.5,0,0,1-.49-.42l-.25-1.58a.49.49,0,0,1,.41-.57.51.51,0,0,1,.58.41l.25,1.58a.51.51,0,0,1-.42.57Z"/><path class="cls-1" d="M43.13,277.93a.48.48,0,0,1-.47-.33A.5.5,0,0,1,43,277a7.3,7.3,0,0,1,4.41-.14.5.5,0,0,1-.28,1,6.29,6.29,0,0,0-3.79.12Z"/><path class="cls-1" d="M62.72,272.45h-.1a27.58,27.58,0,0,0-3.83-.54.5.5,0,0,1-.47-.53.5.5,0,0,1,.54-.46,29.24,29.24,0,0,1,4,.55.5.5,0,0,1-.1,1Z"/></g></g></svg>