<svg xmlns="http://www.w3.org/2000/svg" viewBox="0 0 100.97 309.71"><defs><style>.cls-1{fill:#e06a43;}.cls-2{fill:#e79e73;}.cls-3{fill:#2b3448;}.cls-4{fill:#df895d;}</style></defs><g id="Layer_2" data-name="Layer 2"><g id="OBJECTS"><path class="cls-1" d="M52.59,38.49l.33,2.06a18.73,18.73,0,0,1-2.75,2.38,13,13,0,0,1-13.88.91l.15-1,.69-4.48c1.91,2.2,4.39,4,7.46,4.11h.61C48.23,42.4,50.69,40.65,52.59,38.49Z"/><path class="cls-2" d="M75.67,125.41a7.8,7.8,0,0,1-7.12-.07l-3.38,2.31s-1.63,3.53-3.86,4a2.43,2.43,0,0,1-1.83-.39l3.42-5.54L67,122.31l-3.78.61s-4.21,6.78-6.81,4.89l3-5.75s-3.44,1.61-5-.15l1.77-2.16s-1.89.65-2.63-.91L59,114.55s8.21-2.26,10.81-2.29a1.94,1.94,0,0,1,.63.07c1.36.56,3.88,3.18,3.88,3.18S84.87,99.14,86.11,98.8L71.44,73.09,71,74.91H70.6c0-5.64-2.49-11-3.72-14.79A96.31,96.31,0,0,1,64.25,47.6c5,.72,10.54,1.88,13.62,3.64C84.37,55,90.62,67.32,94.3,77.05s7.86,24.6,6.35,28.23-21,17.34-21,17.34A13.92,13.92,0,0,1,75.67,125.41Z"/><path class="cls-1" d="M76.39,127.85c.35,1.27.67,2.57.93,3.92-13.76,6.07-29,28.44-29,28.44C40.52,146.81,20,142.32,20,142.32c-1.13-1.06-2-1.81-2-1.81-.18-1.49-.52-4.3-.94-7.64l.57-.07s18.71,6.5,44.05.09A96.2,96.2,0,0,0,76.39,127.85Z"/><path class="cls-2" d="M78,136.15c3.48,29.41-10.66,75.3-10.66,75.3s2.49,14.29-.91,24.72-12.24,51.49-12.24,51.49,1.69,6.12,4.21,9.85,5.09,9.13-7.43,10a10.63,10.63,0,0,0-.14-4.53c-.35-1.62-4.58-20.29-4.58-20.29S48.54,221,49,217.58s-.68-57.37-.68-57.37,15.25-22.37,29-28.44C77.61,133.19,77.84,134.65,78,136.15Z"/><path class="cls-2" d="M76.39,127.85a96.3,96.3,0,0,1-14.76,5c-25.33,6.41-44.05-.09-44.05-.09l-.57.07c-.41-3.21-.89-6.9-1.37-10.34A77.66,77.66,0,0,1,21,108.18l-.85-12s18.78-5.21,44.92,0l.1,9.13a52.79,52.79,0,0,1,4.71,7c3.62,4.79,5.83,13.15,5.83,13.15C75.92,126.2,76.16,127,76.39,127.85Z"/><path class="cls-2" d="M53.88,46.51s3.55.2,8,.77c0,0-.52,25.36-19.09,24.38S25.15,47.21,25.15,47.21c.3-.05,11-2.22,11-2.22l.18-1.15a13,13,0,0,0,13.88-.91l1.39.81a17.09,17.09,0,0,0,1.89.1Z"/><path class="cls-2" d="M52.92,40.55l.53,3.29a17.09,17.09,0,0,1-1.89-.1l-1.39-.81A18.73,18.73,0,0,0,52.92,40.55Z"/><path class="cls-1" d="M17.87,89a23.59,23.59,0,0,1-2.37-6.66c-1.14-5.9,3.32-16.1,5.51-21.17s2.43-14,2.43-14c1,0,1.65.07,1.71.06s-.9,23.47,17.67,24.45S61.91,47.28,61.91,47.28c.76.09,1.54.2,2.34.32a96.31,96.31,0,0,0,2.63,12.51c1.23,3.77,3.75,9.15,3.72,14.79a16.77,16.77,0,0,1-.49,4A37.24,37.24,0,0,1,65,90.52L65,96.16c-26.15-5.22-44.93,0-44.93,0L19.81,92A18.62,18.62,0,0,1,17.87,89Z"/><path class="cls-2" d="M60.49,21c.63.24,1,1.2,1,3.35a7.83,7.83,0,0,1-2.39,5.46,1.67,1.67,0,0,1-1.54.14l-.24-.05a12.14,12.14,0,0,0,.27-1.6c.11-1.14.25-2.67.35-3.89a16.13,16.13,0,0,0,1.34-3.13,1.39,1.39,0,0,1,.62-.33A1,1,0,0,1,60.49,21Z"/><path class="cls-2" d="M37.13,38.4c-.32-.37-.63-.75-.92-1.14a28.68,28.68,0,0,1-3.11-5.47A11.45,11.45,0,0,1,32.49,30a11.05,11.05,0,0,1-.3-1.72c-.14-1.33-.25-2.72-.33-3.9,0-.55-.07-1.06-.1-1.51,0-.05,0-.12,0-.22s0-.1,0-.16,0-.25.07-.4.05-.3.08-.47l0-.09a2,2,0,0,1,.05-.24c.08-.35.17-.76.29-1.2l.09-.33q.11-.35.21-.72c.12-.36.25-.75.39-1.14s.2-.54.31-.81.23-.55.35-.84a23.13,23.13,0,0,1,1.63-3c.19-.29.39-.58.59-.86s.43-.57.65-.86.7-.83,1.09-1.24L38,9.87c.41-.39.84-.78,1.29-1.14.22-.17.43-.34.66-.5l.7-.48.73-.45.77-.41h.13S47.83,22,58,23h0c0,.37-.07.87-.11,1.44-.1,1.22-.24,2.75-.35,3.89a12.14,12.14,0,0,1-.27,1.6,11.47,11.47,0,0,1-.65,2,29,29,0,0,1-3.09,5.42c-.31.4-.63.81-1,1.2-1.9,2.16-4.36,3.91-7.39,4h-.61C41.52,42.4,39,40.6,37.13,38.4Z"/><path class="cls-2" d="M50.85,303a10.63,10.63,0,0,1,.14,4.53,1.82,1.82,0,0,1-1.24,1.41c-2,.51-15.48,1.82-17.34-.8s.35-8,1.41-13.41a35.81,35.81,0,0,0,.6-9.68s-7.71-40.62-8.77-49.29a36.58,36.58,0,0,1,1.11-15c-14.28-35.95-14.11-57.61-14.11-57.61a5.85,5.85,0,0,0,2.72,2.77s4.56,5.85,6,6.75,2.09-3.39.4-6l3.18,4a3.66,3.66,0,0,0,.8-4.64,65.08,65.08,0,0,1-2.77-6.25l.26-2.57a19.71,19.71,0,0,0,3.73,4.54,3.65,3.65,0,0,0,3.87.35s-2.51-3-2.51-3.82-2.17-7.57-2.83-9.64c-.42-1.33-3.43-4.31-5.5-6.25,0,0,20.57,4.49,28.36,17.89,0,0,1.14,54,.68,57.37s-2.72,65.09-2.72,65.09S50.5,301.34,50.85,303Z"/><path class="cls-3" d="M67.41,38.32a20.34,20.34,0,0,1-14,5.52l-.53-3.29-.33-2.06c.35-.39.67-.8,1-1.2a29,29,0,0,0,3.09-5.42,11.47,11.47,0,0,0,.65-2l.24.05a1.67,1.67,0,0,0,1.54-.14,7.83,7.83,0,0,0,2.39-5.46c0-2.15-.36-3.11-1-3.35a1,1,0,0,0-.6,0,1.39,1.39,0,0,0-.62.33,16.13,16.13,0,0,1-1.34,3.13c0-.57.09-1.07.11-1.44h0c-10.2-1-15.72-16-15.72-16l-.12,0h0l-.77.41-.73.45-.7.48c-.23.16-.44.33-.66.5-.45.36-.88.75-1.29,1.14-.13.12-.26.26-.39.39-.39.41-.75.82-1.09,1.24s-.44.57-.65.86-.4.57-.59.86a23.13,23.13,0,0,0-1.63,3c-.12.29-.24.56-.35.84s-.21.54-.31.81-.27.78-.39,1.14-.15.49-.21.72l-.09.33c-.12.44-.22.85-.3,1.2,0,.08,0,.16,0,.24l0,.09c0,.17-.06.33-.08.47s-.05.29-.07.4,0,.11,0,.16a1.12,1.12,0,0,0,0,.22.62.62,0,0,0,0,.09,6.06,6.06,0,0,0-1.22-1.69,1.39,1.39,0,0,0-.62-.33,1.06,1.06,0,0,0-1.23.71,6.51,6.51,0,0,0-.36,2.69,7.83,7.83,0,0,0,2.39,5.46,2.55,2.55,0,0,0,1.78.2,11.45,11.45,0,0,0,.61,1.79,28.68,28.68,0,0,0,3.11,5.47c.29.39.59.77.92,1.14l-.69,4.48h-.12A14.92,14.92,0,0,1,31.38,41c-2.17-1.4-4.65-2.74-7.2-2.34,1-4.86.95-9.86,1.28-14.81s1.06-10,3.4-14.36S36.92.85,41.85.33h0a14.49,14.49,0,0,1,3-.32A15,15,0,0,1,58.13,8.29C63.48,17.35,63,28.78,67.41,38.32Z"/><path class="cls-2" d="M28.68,21.65a1.06,1.06,0,0,1,1.23-.71,1.39,1.39,0,0,1,.62.33A6.06,6.06,0,0,1,31.75,23a.62.62,0,0,1,0-.09,1.12,1.12,0,0,1,0-.22c0,.1,0,.17,0,.22,0,.45.06,1,.1,1.51.08,1.18.19,2.57.33,3.9a11.05,11.05,0,0,0,.3,1.72,2.55,2.55,0,0,1-1.78-.2,7.83,7.83,0,0,1-2.39-5.46A6.51,6.51,0,0,1,28.68,21.65Z"/><path class="cls-2" d="M18,140.51s.86.75,2,1.81c2.07,1.94,5.08,4.92,5.5,6.25.66,2.07,2.83,8.77,2.83,9.64S30.79,162,30.79,162a3.65,3.65,0,0,1-3.87-.35,19.71,19.71,0,0,1-3.73-4.54l-.26,2.57A65.08,65.08,0,0,0,25.7,166a3.66,3.66,0,0,1-.8,4.64l-3.18-4c1.69,2.65,1,6.95-.4,6s-6-6.75-6-6.75a5.85,5.85,0,0,1-2.72-2.77,14.17,14.17,0,0,1-2.88-7.56c-.25-4.31,0-11.53,0-11.94-1.93-6.18-9.37-30-9.72-31.91C-.36,109.51,1.66,67,5.8,56.29c3.31-8.6,13.54-9.22,17.64-9.14,0,0-.23,8.93-2.43,14S14.36,76.42,15.5,82.32A23.59,23.59,0,0,0,17.87,89l-4,22.45c.45,1.9,1.11,6.26,1.79,11.1.47,3.44,1,7.13,1.37,10.34S17.78,139,18,140.51Z"/><polygon points="28.88 21.59 28.88 21.59 29.88 21.59 28.88 21.59"/><path class="cls-1" d="M46.23,30.48c0,.12-.14.22-.3.2-.88-.09-3.28-.42-3.49-1.33s1.81-4.6,2.73-6.25c.1-.19.49-.14.51.06Z"/><path class="cls-3" d="M42.09,23.16a.52.52,0,0,1-.47-.33s-.45-1.11-2.39-1.11h0c-2,0-2.7.88-2.73.91a.5.5,0,0,1-.69.12.51.51,0,0,1-.13-.69s.93-1.33,3.55-1.34h0c2.68,0,3.31,1.71,3.34,1.78a.5.5,0,0,1-.31.63A.51.51,0,0,1,42.09,23.16Z"/><path class="cls-3" d="M35.57,20.66a.49.49,0,0,1-.39-.19.5.5,0,0,1,.08-.7A6.31,6.31,0,0,1,41.93,19a.5.5,0,0,1-.43.9,5.3,5.3,0,0,0-5.61.66A.54.54,0,0,1,35.57,20.66Z"/><path class="cls-3" d="M40.06,21.29c.19.06.16.37.16.59a1.14,1.14,0,0,1-2.28,0,1.1,1.1,0,0,1,.15-.57A4.3,4.3,0,0,1,40.06,21.29Z"/><path class="cls-3" d="M48.32,23.14a.47.47,0,0,1-.17,0,.5.5,0,0,1-.31-.63c0-.07.65-1.79,3.35-1.8h0c2.59,0,3.49,1.26,3.52,1.31a.51.51,0,0,1-.12.7.52.52,0,0,1-.7-.12c0-.05-.69-.89-2.7-.89h0c-1.95,0-2.39,1.08-2.4,1.13A.52.52,0,0,1,48.32,23.14Z"/><path class="cls-3" d="M54.82,20.59a.51.51,0,0,1-.31-.11,5.46,5.46,0,0,0-2.72-1.12,5.38,5.38,0,0,0-2.9.5.49.49,0,0,1-.66-.23.5.5,0,0,1,.23-.67,6.31,6.31,0,0,1,6.67.74.5.5,0,0,1,.08.7A.52.52,0,0,1,54.82,20.59Z"/><path class="cls-3" d="M52.31,21.27c.16.11.15.36.15.56A1.13,1.13,0,0,1,51.33,23a1.15,1.15,0,0,1-1.15-1.14,1.18,1.18,0,0,1,.16-.59S51.84,20.93,52.31,21.27Z"/><path class="cls-4" d="M40.58,28.58c.07,1.08-1.22,2.05-2.89,2.16s-3.08-.69-3.15-1.77,1.23-2,2.89-2.16S40.51,27.49,40.58,28.58Z"/><path class="cls-4" d="M55.52,27.87c.07,1.08-1.23,2.05-2.89,2.16s-3.08-.69-3.15-1.77,1.22-2.05,2.89-2.16S55.45,26.78,55.52,27.87Z"/><path class="cls-1" d="M32,28.74a.5.5,0,0,1-.48-.37,17.21,17.21,0,0,0-1.84-4.22.49.49,0,0,1,.17-.68.5.5,0,0,1,.69.16,17.92,17.92,0,0,1,1.94,4.47.5.5,0,0,1-.34.62Z"/><path class="cls-1" d="M58.58,28.53h-.12a.51.51,0,0,1-.37-.61A15.88,15.88,0,0,1,60,23.31a.5.5,0,1,1,.85.52,15,15,0,0,0-1.79,4.32A.49.49,0,0,1,58.58,28.53Z"/><path class="cls-3" d="M45.21,34.9a8.15,8.15,0,0,1-1.57-.15.5.5,0,0,1-.37-.6.51.51,0,0,1,.59-.38s3.46.75,5.36-1.53a.5.5,0,1,1,.76.64A6,6,0,0,1,45.21,34.9Z"/><path class="cls-1" d="M25.45,149.07a.48.48,0,0,1-.47-.34c-.42-1.32-4.7-5.9-7.47-8.66a.5.5,0,0,1-.14-.31c-.54-6.29-2.2-17-2.22-17.15a.5.5,0,0,1,1-.16c0,.11,1.66,10.7,2.21,17,1.15,1.15,7,7,7.58,8.93a.5.5,0,0,1-.33.63A.39.39,0,0,1,25.45,149.07Z"/><path class="cls-1" d="M28.36,163.83a1.19,1.19,0,0,1-.44-.09,1.84,1.84,0,0,1-.79-.67l-4.31-5.64a.5.5,0,0,1,.8-.61l4.31,5.64c.1.14.23.31.35.35s.54-.22.67-.52a4.5,4.5,0,0,0-.35-3.08l-3.85-10.74a.5.5,0,1,1,.94-.34l3.85,10.74a5.31,5.31,0,0,1,.33,3.8A1.76,1.76,0,0,1,28.36,163.83Z"/><path class="cls-1" d="M24.69,169.86a2.06,2.06,0,0,1-1.53-.79,5.2,5.2,0,0,1-.66-1.13,5.24,5.24,0,0,0-.23-.48,9.64,9.64,0,0,0-2-2.33,10.25,10.25,0,0,1-2.22-2.63,10.46,10.46,0,0,1-.83-4.55,10.1,10.1,0,0,0-.65-4,.5.5,0,0,1,.24-.67.5.5,0,0,1,.66.24,10.79,10.79,0,0,1,.75,4.38A9.37,9.37,0,0,0,19,162a9.46,9.46,0,0,0,2,2.36,10.76,10.76,0,0,1,2.2,2.59c.09.17.17.35.25.53a4.5,4.5,0,0,0,.52.92.93.93,0,0,0,.95.38c.44-.2.4-1,.24-1.7a29.73,29.73,0,0,0-1.41-4.21c-.1-.24-.21-.49-.32-.73a17.14,17.14,0,0,1-1.06-2.89,16.61,16.61,0,0,1-.1-5.12,16.35,16.35,0,0,0,0-4.53.5.5,0,1,1,1-.19,17.16,17.16,0,0,1,0,4.8,15.52,15.52,0,0,0,.08,4.82,14.85,14.85,0,0,0,1,2.71c.11.24.21.49.32.74a29.25,29.25,0,0,1,1.46,4.35c.35,1.41.05,2.48-.81,2.86A1.4,1.4,0,0,1,24.69,169.86Z"/><path class="cls-1" d="M21.05,173.09a1.29,1.29,0,0,1-.43-.07,2.33,2.33,0,0,1-1-.86l-2.77-3.57a16.43,16.43,0,0,1-2.15-3.26,16.34,16.34,0,0,1-1.08-5.14,16.41,16.41,0,0,0-.92-4.63.5.5,0,1,1,.93-.38,17.62,17.62,0,0,1,1,4.91,15.22,15.22,0,0,0,1,4.83,15.29,15.29,0,0,0,2,3.06l2.77,3.57a1.4,1.4,0,0,0,.56.52c.43.14.91-.49,1.09-1a5.25,5.25,0,0,0-.41-4.39.5.5,0,1,1,.86-.5,6.27,6.27,0,0,1,.5,5.23A2.32,2.32,0,0,1,21.05,173.09Z"/><path class="cls-1" d="M14.94,166a.52.52,0,0,1-.29-.09,8.8,8.8,0,0,1-3.16-4.62,25.18,25.18,0,0,1-.89-5.39.51.51,0,0,1,.45-.55.51.51,0,0,1,.55.46,23.83,23.83,0,0,0,.84,5.18,7.89,7.89,0,0,0,2.79,4.1.51.51,0,0,1,.12.7A.49.49,0,0,1,14.94,166Z"/><path class="cls-1" d="M49.74,309.4a.54.54,0,0,1-.33-.12.51.51,0,0,1,0-.71s1.11-1.39,1-5.6c-.12-4.42-4.52-20-4.56-20.16a.44.44,0,0,1,0-.16c0-.54,2.11-53.62,2.72-65.1s-.67-56.86-.68-57.32a.5.5,0,0,1,.49-.52.55.55,0,0,1,.51.49c0,.46,1.29,45.91.68,57.4-.6,11.27-2.63,62.66-2.72,65,.38,1.33,4.46,15.9,4.58,20.33.14,4.68-1.17,6.23-1.23,6.29A.48.48,0,0,1,49.74,309.4Z"/><path class="cls-1" d="M37.63,223.34A8.83,8.83,0,0,1,32.82,222a.5.5,0,0,1,.55-.84A8,8,0,0,0,42.1,221a.5.5,0,0,1,.69.13.51.51,0,0,1-.12.7A8.9,8.9,0,0,1,37.63,223.34Z"/><path class="cls-1" d="M57.65,220.43a10.18,10.18,0,0,1-4-.81.5.5,0,0,1,.39-.92,9.53,9.53,0,0,0,9.58-1.34.52.52,0,0,1,.71.07.51.51,0,0,1-.08.71A10.5,10.5,0,0,1,57.65,220.43Z"/><path class="cls-1" d="M37.68,284.08a.5.5,0,0,1-.48-.34.5.5,0,0,1,.32-.63,11.48,11.48,0,0,1,5.9-.29.49.49,0,0,1,.38.59.51.51,0,0,1-.59.39,10.56,10.56,0,0,0-5.38.26A.39.39,0,0,1,37.68,284.08Z"/><path class="cls-1" d="M45.76,309.5a.5.5,0,0,1-.49-.43l-.59-4a.5.5,0,0,1,1-.14l.59,4a.5.5,0,0,1-.43.56Z"/><path class="cls-1" d="M42.08,309.51h0a.49.49,0,0,1-.47-.52,11.73,11.73,0,0,0-.29-3.29.5.5,0,0,1,1-.23,11.92,11.92,0,0,1,.31,3.57A.5.5,0,0,1,42.08,309.51Z"/><path class="cls-1" d="M38.19,309.71h0a.5.5,0,0,1-.48-.52l.12-3.43a.53.53,0,0,1,.52-.48.5.5,0,0,1,.48.52l-.12,3.43A.5.5,0,0,1,38.19,309.71Z"/><path class="cls-1" d="M35.1,309.71a.51.51,0,0,1-.5-.5l0-2.92a.51.51,0,0,1,.5-.51.47.47,0,0,1,.5.5l0,2.92a.5.5,0,0,1-.49.51Z"/><path class="cls-1" d="M53.73,307.18h-.1a.51.51,0,0,1-.39-.59,5.06,5.06,0,0,0-.48-3.31.5.5,0,0,1,.89-.46,6.1,6.1,0,0,1,.57,4A.51.51,0,0,1,53.73,307.18Z"/><path class="cls-1" d="M57.1,306.28H57a.49.49,0,0,1-.43-.55,4.6,4.6,0,0,0-.42-2.56.5.5,0,1,1,.9-.43,5.56,5.56,0,0,1,.51,3.11A.5.5,0,0,1,57.1,306.28Z"/><path class="cls-1" d="M59.73,304.57a.52.52,0,0,1-.5-.46,5.09,5.09,0,0,0-.74-2.2.5.5,0,0,1,.17-.69.49.49,0,0,1,.68.17,6.14,6.14,0,0,1,.89,2.63.5.5,0,0,1-.45.54Z"/><path class="cls-1" d="M84.41,101.13a.48.48,0,0,1-.34-.14.5.5,0,0,1,0-.71,19.26,19.26,0,0,1,9.47-5.45.5.5,0,0,1,.6.37.5.5,0,0,1-.37.6,18.18,18.18,0,0,0-9,5.17A.52.52,0,0,1,84.41,101.13Z"/><path class="cls-1" d="M69.92,77.46a.54.54,0,0,1-.21,0,.51.51,0,0,1-.25-.66l3.75-8.11a.5.5,0,0,1,.67-.24.49.49,0,0,1,.24.66l-3.75,8.11A.49.49,0,0,1,69.92,77.46Z"/><path class="cls-1" d="M18.38,70.7a.48.48,0,0,1-.47-.34,17,17,0,0,0-2.24-4.52.5.5,0,1,1,.83-.57,18.52,18.52,0,0,1,2.36,4.78.51.51,0,0,1-.33.63Z"/><path class="cls-1" d="M43.24,121.08a.39.39,0,0,1-.18,0,4.73,4.73,0,0,1-2.35-2,.49.49,0,0,1,.18-.68.51.51,0,0,1,.69.18,3.69,3.69,0,0,0,1.85,1.61.5.5,0,0,1-.19,1Z"/><path class="cls-1" d="M55.17,120.18a2.58,2.58,0,0,1-1.59-.41,1.23,1.23,0,0,1-.5-.87c0-.3-.14-1.19,5.68-4.77a.31.31,0,0,1,.13-.06c.38-.1,9.34-2.49,11.63-2.23s4.7,4.18,5,4.63a.5.5,0,0,1-.87.5c-.62-1.09-2.59-4-4.19-4.14s-8.59,1.5-11.19,2.19c-2.34,1.44-5,3.32-5.15,3.85,0,0,0,0,.12.11a3.16,3.16,0,0,0,2,.11.5.5,0,1,1,.16,1A7.29,7.29,0,0,1,55.17,120.18Z"/><path class="cls-1" d="M56.83,122.81a6.35,6.35,0,0,1-2.8-.61.94.94,0,0,1-.55-.69c0-.23,0-.76,7.21-5.66.81-.54,4.82.08,7.14.49a.5.5,0,0,1-.18,1c-2.69-.48-5.91-.86-6.41-.63-1.65,1.11-5.42,3.77-6.53,4.73a5.56,5.56,0,0,0,4.53-.21.5.5,0,1,1,.49.88A6,6,0,0,1,56.83,122.81Z"/><path class="cls-1" d="M60.33,131.78a6.67,6.67,0,0,1-.92-.05.47.47,0,0,1-.38-.27.5.5,0,0,1,0-.46l2.68-5a.57.57,0,0,1,.13-.14l2.93-2.39-1.27-.08c-.32.45-1.1,1.51-2.26,2.92s-3.72,3-4.87,2.39c-.28-.16-.72-.56-.42-1.54.66-2.21,4-7.32,5.09-8s5.59-.09,7,.08a.49.49,0,0,1,.43.56.5.5,0,0,1-.56.43c-2.66-.33-5.84-.51-6.33-.22-.79.48-4,5.34-4.65,7.39a.68.68,0,0,0-.05.39c.33.19,2.39-.68,3.6-2.15,1.5-1.81,2.37-3.07,2.37-3.09a.49.49,0,0,1,.45-.21l2.83.16a.51.51,0,0,1,.45.35.5.5,0,0,1-.16.54l-3.85,3.14-2.27,4.17h0c1.1,0,3.11-.22,4.2-1.73A24.42,24.42,0,0,1,68.23,125a.47.47,0,0,1,.55-.06,8.44,8.44,0,0,0,6.7,0,.5.5,0,1,1,.38.92,9.37,9.37,0,0,1-7.23.06,25.69,25.69,0,0,0-3.32,3.71A6.07,6.07,0,0,1,60.33,131.78Z"/></g></g></svg>