<svg xmlns="http://www.w3.org/2000/svg" viewBox="0 0 416.32 434.29"><defs><style>.cls-1{fill:#e1f7ff;}.cls-2{fill:#9465e0;}.cls-3{fill:#6c4aaf;}.cls-4{fill:#ab80ff;}.cls-5{fill:#c1e1ea;}.cls-6{fill:#fff;}.cls-7{fill:#74a844;}.cls-8{fill:#a7cc48;}.cls-9{fill:#f4b54e;}.cls-10{fill:#ffcc71;}.cls-11{fill:#93257c;}.cls-12{fill:#ef3364;}.cls-13{fill:#4e77d1;}.cls-14{fill:#7faaf7;}.cls-15{fill:#252538;}.cls-16{fill:#97b9c6;}.cls-17,.cls-18{fill:none;stroke-miterlimit:10;}.cls-17{stroke:#ef3364;stroke-width:4px;}.cls-18{stroke:#fff;stroke-width:5.1px;}.cls-19{fill:#f2729a;}.cls-20{fill:#e06a43;}.cls-21{fill:#e79e73;}.cls-22{fill:#2b3448;}.cls-23{fill:#df895d;}</style></defs><g id="Layer_2" data-name="Layer 2"><g id="OBJECTS"><path class="cls-1" d="M295.15,45a122.15,122.15,0,0,0-135,38.56,122.12,122.12,0,1,0,96.33,198.91A122.12,122.12,0,0,0,295.15,45Z"/><ellipse class="cls-1" cx="208.27" cy="408.33" rx="206.7" ry="25.96"/><rect class="cls-2" x="59.04" y="405.41" width="149.46" height="16.26"/><polygon class="cls-3" points="59.04 413.54 208.5 408.54 208.5 405.41 59.04 405.41 59.04 413.54"/><path class="cls-4" d="M208.9,397.59H58.64a4,4,0,0,0-4,4h0a4,4,0,0,0,4,4H208.9a4,4,0,0,0,4-4h0A4,4,0,0,0,208.9,397.59Z"/><path class="cls-5" d="M225.68,100.32v-5a95.32,95.32,0,1,1,190.64,0v5Z"/><path class="cls-6" d="M227.68,98.32v-3a93.32,93.32,0,1,1,186.64,0v3Z"/><path class="cls-7" d="M321,5a90.32,90.32,0,0,0-90.32,90.32H411.32A90.32,90.32,0,0,0,321,5Z"/><path class="cls-8" d="M234.78,91.32a86.32,86.32,0,0,1,172.45,0Z"/><path class="cls-7" d="M343.78,60.35a40.11,40.11,0,0,0-63,35h80.13A40.1,40.1,0,0,0,343.78,60.35Z"/><path class="cls-9" d="M411.32,95.32A90.32,90.32,0,0,0,321,5V95.32Z"/><path class="cls-10" d="M321,9V91.32h86.23A86.42,86.42,0,0,0,321,9Z"/><path class="cls-11" d="M384.87,31.45,321,95.32h90.32A90,90,0,0,0,384.87,31.45Z"/><path class="cls-12" d="M325,91.32h82.23a86,86,0,0,0-25.23-57Z"/><path class="cls-13" d="M257.14,31.45,321,95.32H230.68A90,90,0,0,1,257.14,31.45Z"/><path class="cls-14" d="M234.78,91.32H317l-57-57A86,86,0,0,0,234.78,91.32Z"/><path class="cls-13" d="M287.91,70.3a39.92,39.92,0,0,0-7.15,25H321L291.53,65.84A40.69,40.69,0,0,0,287.91,70.3Z"/><path class="cls-9" d="M343.78,60.35A39.93,39.93,0,0,0,321,53.14V95.32h39.89A40.1,40.1,0,0,0,343.78,60.35Z"/><path class="cls-11" d="M360.89,95.32A40.19,40.19,0,0,0,350.29,66L321,95.32Z"/><path class="cls-5" d="M312.54,85.93A10.1,10.1,0,1,1,315,100,10.08,10.08,0,0,1,312.54,85.93Z"/><path class="cls-15" d="M339.35,65.15h0a2.9,2.9,0,0,1,.72,4L324.86,91l-4.76-3.33,15.21-21.8A2.9,2.9,0,0,1,339.35,65.15Z"/><path class="cls-6" d="M316.12,88.43a5.73,5.73,0,1,1,1.42,8A5.72,5.72,0,0,1,316.12,88.43Z"/><path class="cls-14" d="M265.25,149.49H232.39a32.87,32.87,0,0,1,32.86-32.87h0Z"/><path class="cls-13" d="M247.56,149.49h17.69V131.8A17.69,17.69,0,0,0,247.56,149.49Z"/><rect class="cls-5" x="275.02" y="116.62" width="139.31" height="32.86" rx="5.61"/><path class="cls-16" d="M280.63,149.49H408.71a5.62,5.62,0,0,0,5.61-5.62V133.06H275v10.81A5.62,5.62,0,0,0,280.63,149.49Z"/><rect class="cls-6" x="332.24" y="67.4" width="24.86" height="131.31" rx="1.61" transform="translate(477.72 -211.62) rotate(90)"/><rect class="cls-1" x="334.24" y="69.4" width="20.86" height="127.31" transform="translate(477.72 -211.62) rotate(90)"/><rect class="cls-14" x="282.25" y="123.77" width="11.23" height="18.58"/><rect class="cls-14" x="294.89" y="123.77" width="11.23" height="18.58"/><rect class="cls-14" x="307.53" y="123.77" width="11.23" height="18.58"/><rect class="cls-14" x="320.17" y="123.77" width="11.23" height="18.58"/><rect class="cls-14" x="332.81" y="123.77" width="11.23" height="18.58"/><rect class="cls-14" x="345.44" y="123.77" width="11.23" height="18.58"/><rect class="cls-14" x="358.08" y="123.77" width="11.23" height="18.58"/><rect class="cls-13" x="282.25" y="133.06" width="11.23" height="9.29"/><rect class="cls-13" x="294.89" y="133.06" width="11.23" height="9.29"/><rect class="cls-13" x="307.53" y="133.06" width="11.23" height="9.29"/><rect class="cls-13" x="320.17" y="133.06" width="11.23" height="9.29"/><rect class="cls-13" x="332.81" y="133.06" width="11.23" height="9.29"/><rect class="cls-13" x="345.44" y="133.06" width="11.23" height="9.29"/><rect class="cls-13" x="358.08" y="133.06" width="11.23" height="9.29"/><rect class="cls-5" x="370.72" y="123.77" width="11.23" height="18.58"/><rect class="cls-5" x="383.36" y="123.77" width="11.23" height="18.58"/><rect class="cls-5" x="396" y="123.77" width="11.23" height="18.58"/><path class="cls-8" d="M265.25,193.75H232.39a32.86,32.86,0,0,1,32.86-32.86h0Z"/><path class="cls-7" d="M247.56,193.75h17.69V176.06A17.69,17.69,0,0,0,247.56,193.75Z"/><rect class="cls-5" x="275.02" y="160.89" width="139.31" height="32.86" rx="5.61"/><path class="cls-16" d="M280.63,193.75H408.71a5.61,5.61,0,0,0,5.61-5.61V177.33H275v10.81A5.61,5.61,0,0,0,280.63,193.75Z"/><rect class="cls-6" x="332.24" y="111.67" width="24.86" height="131.31" rx="1.61" transform="translate(521.99 -167.35) rotate(90)"/><rect class="cls-1" x="334.24" y="113.67" width="20.86" height="127.31" transform="translate(521.99 -167.35) rotate(90)"/><rect class="cls-8" x="282.25" y="168.04" width="11.23" height="18.58"/><rect class="cls-8" x="294.89" y="168.04" width="11.23" height="18.58"/><rect class="cls-8" x="307.53" y="168.04" width="11.23" height="18.58"/><rect class="cls-8" x="320.17" y="168.04" width="11.23" height="18.58"/><rect class="cls-5" x="332.81" y="168.04" width="11.23" height="18.58"/><rect class="cls-5" x="345.44" y="168.04" width="11.23" height="18.58"/><rect class="cls-5" x="358.08" y="168.04" width="11.23" height="18.58"/><rect class="cls-7" x="282.25" y="177.33" width="11.23" height="9.29"/><rect class="cls-7" x="294.89" y="177.33" width="11.23" height="9.29"/><rect class="cls-7" x="307.53" y="177.33" width="11.23" height="9.29"/><rect class="cls-7" x="320.17" y="177.33" width="11.23" height="9.29"/><rect class="cls-5" x="370.72" y="168.04" width="11.23" height="18.58"/><rect class="cls-5" x="383.36" y="168.04" width="11.23" height="18.58"/><rect class="cls-5" x="396" y="168.04" width="11.23" height="18.58"/><path class="cls-10" d="M265.25,238H232.39a32.87,32.87,0,0,1,32.86-32.87h0Z"/><path class="cls-9" d="M247.56,238h17.69V220.33A17.69,17.69,0,0,0,247.56,238Z"/><rect class="cls-5" x="275.02" y="205.15" width="139.31" height="32.86" rx="5.61"/><path class="cls-16" d="M280.63,238H408.71a5.62,5.62,0,0,0,5.61-5.62V221.59H275V232.4A5.62,5.62,0,0,0,280.63,238Z"/><rect class="cls-6" x="332.24" y="155.93" width="24.86" height="131.31" rx="1.61" transform="translate(566.26 -123.09) rotate(90)"/><rect class="cls-1" x="334.24" y="157.93" width="20.86" height="127.31" transform="translate(566.26 -123.09) rotate(90)"/><rect class="cls-10" x="282.25" y="212.3" width="11.23" height="18.58"/><rect class="cls-10" x="294.89" y="212.3" width="11.23" height="18.58"/><rect class="cls-10" x="307.53" y="212.3" width="11.23" height="18.58"/><rect class="cls-10" x="320.17" y="212.3" width="11.23" height="18.58"/><rect class="cls-10" x="332.81" y="212.3" width="11.23" height="18.58"/><rect class="cls-10" x="345.44" y="212.3" width="11.23" height="18.58"/><rect class="cls-10" x="358.08" y="212.3" width="11.23" height="18.58"/><rect class="cls-9" x="282.25" y="221.59" width="11.23" height="9.29"/><rect class="cls-9" x="294.89" y="221.59" width="11.23" height="9.29"/><rect class="cls-9" x="307.53" y="221.59" width="11.23" height="9.29"/><rect class="cls-9" x="320.17" y="221.59" width="11.23" height="9.29"/><rect class="cls-9" x="332.81" y="221.59" width="11.23" height="9.29"/><rect class="cls-9" x="345.44" y="221.59" width="11.23" height="9.29"/><rect class="cls-9" x="358.08" y="221.59" width="11.23" height="9.29"/><rect class="cls-10" x="370.72" y="212.3" width="11.23" height="18.58"/><rect class="cls-9" x="370.72" y="221.58" width="11.23" height="9.3"/><rect class="cls-5" x="383.36" y="212.3" width="11.23" height="18.58"/><rect class="cls-5" x="396" y="212.3" width="11.23" height="18.58"/><path class="cls-12" d="M265.25,282.28H232.39a32.86,32.86,0,0,1,32.86-32.86h0Z"/><path class="cls-11" d="M247.56,282.28h17.69V264.59A17.69,17.69,0,0,0,247.56,282.28Z"/><rect class="cls-5" x="275.02" y="249.42" width="139.31" height="32.86" rx="5.61"/><path class="cls-16" d="M280.63,282.28H408.71a5.61,5.61,0,0,0,5.61-5.61V265.86H275v10.81A5.61,5.61,0,0,0,280.63,282.28Z"/><rect class="cls-6" x="332.24" y="200.2" width="24.86" height="131.31" rx="1.61" transform="translate(610.52 -78.82) rotate(90)"/><rect class="cls-1" x="334.24" y="202.2" width="20.86" height="127.31" transform="translate(610.52 -78.82) rotate(90)"/><rect class="cls-12" x="282.25" y="256.57" width="11.23" height="18.58"/><rect class="cls-12" x="294.89" y="256.57" width="11.23" height="18.58"/><rect class="cls-12" x="307.53" y="256.57" width="11.23" height="18.58"/><rect class="cls-12" x="320.17" y="256.57" width="11.23" height="18.58"/><rect class="cls-12" x="332.81" y="256.57" width="11.23" height="18.58"/><rect class="cls-5" x="345.44" y="256.57" width="11.23" height="18.58"/><rect class="cls-5" x="358.08" y="256.57" width="11.23" height="18.58"/><rect class="cls-11" x="282.25" y="265.86" width="11.23" height="9.29"/><rect class="cls-11" x="294.89" y="265.86" width="11.23" height="9.29"/><rect class="cls-11" x="307.53" y="265.86" width="11.23" height="9.29"/><rect class="cls-11" x="320.17" y="265.86" width="11.23" height="9.29"/><rect class="cls-11" x="332.81" y="265.86" width="11.23" height="9.29"/><rect class="cls-5" x="370.72" y="256.57" width="11.23" height="18.58"/><rect class="cls-5" x="383.36" y="256.57" width="11.23" height="18.58"/><rect class="cls-5" x="396" y="256.57" width="11.23" height="18.58"/><line class="cls-17" x1="24.19" y1="34.37" x2="24.19" y2="386.77"/><polygon class="cls-12" points="24.19 20.09 12.57 38.32 24.19 38.32 35.8 38.32 24.19 20.09"/><polygon class="cls-12" points="24.19 395.75 35.8 377.53 24.19 377.53 12.57 377.53 24.19 395.75"/><circle class="cls-8" cx="24.19" cy="210.32" r="24.19" transform="matrix(1, -0.02, 0.02, 1, -5.22, 0.67)"/><path class="cls-7" d="M0,210.32a24.19,24.19,0,0,0,24.19,24.19V186.14A24.18,24.18,0,0,0,0,210.32Z"/><polyline class="cls-18" points="12.58 210.14 20.38 217.94 37.88 200.44"/><path class="cls-11" d="M398,421.72H267.59a10.7,10.7,0,0,1-10.65-9.54l-6.65-70.38a10.71,10.71,0,0,1,10.65-11.87H404.68a10.71,10.71,0,0,1,10.64,11.87l-6.65,70.38A10.7,10.7,0,0,1,398,421.72Z"/><path class="cls-12" d="M398,411.76H267.59a10.7,10.7,0,0,1-10.65-9.54l-6.65-70.38A10.71,10.71,0,0,1,260.94,320H404.68a10.71,10.71,0,0,1,10.64,11.87l-6.65,70.38A10.7,10.7,0,0,1,398,411.76Z"/><circle class="cls-12" cx="332.81" cy="332.99" r="38.1" transform="translate(-131.95 257.85) rotate(-35.83)"/><path class="cls-11" d="M363.85,333c0,17.15-13.9,16.71-31,16.71s-31.05.44-31.05-16.71a31,31,0,0,1,62.09,0Z"/><path class="cls-5" d="M330.3,345.7c-8,0-14.42-.15-18.72-1.93-2.88-1.2-5.82-3.42-5.82-10.78a27,27,0,0,1,54.09,0c0,11.61-6.73,12.71-24.53,12.71Z"/><path class="cls-6" d="M330.3,343.7c-7.75,0-14-.13-17.95-1.78-2.22-.92-4.59-2.45-4.59-8.93a25,25,0,0,1,50.09,0c0,9.11-3.37,10.71-22.53,10.71Z"/><path class="cls-3" d="M335.82,339.09a4.71,4.71,0,1,1-6.28-7c1.93-1.74,14.17-6.38,14.17-6.38S337.76,337.35,335.82,339.09Z"/><rect class="cls-19" x="266.98" y="355.6" width="131.65" height="47.32" rx="14.69"/><path class="cls-20" d="M124.94,65.23c2.6,3.5,6.24,6.68,10.91,6.84h.79a12.69,12.69,0,0,0,8.18-3.75l.31,2.84C137.2,78,123.8,75.73,123.8,75.73Z"/><path class="cls-21" d="M133.6,343.46c-2.54,13.56-5.75,31.35-5.66,34,0,1,.21,3.21.4,5.93.42,6.23.87,15.33-.34,20.1-.42,1.66-1,2.8-1.94,3.1-4.57,1.58-14.22.1-16.14-1.67s0-10.53,1.39-14.27,2.25-11.71,2.25-11.71,0-41.54-.39-61.42,9.25-25.4,9.25-25.4c-19.61-45.2-23.2-72.72-23.48-85.82,0,0,27.32,2.35,41.4,18,0,0,5.17,61.43,4.48,67s-8.22,36.42-8.22,36.42S135.24,334.7,133.6,343.46Z"/><path class="cls-21" d="M159.57,85.26c5.74,2.76,11.52,6,13.38,8.58C177,99.48,183.85,158,183.85,158l.19,43.44s.92,12,.92,13.39-5.91,9.12-6.17,10-1.85,6-5.65,7.53c2.42-15.13,4.23-29.41,3.81-36.38a53.17,53.17,0,0,0-3.46-14.83,105.71,105.71,0,0,0-4.62-10.52h0l-4.31-19.49-4.65-19.35c1.91-3.6,3.63-7.9,3.6-11.68-.06-8.4-10.26-37.71-10.26-37.71C155.2,83.22,157.38,84.21,159.57,85.26Z"/><path class="cls-21" d="M177,194.81c.42,7-1.39,22.63-3.81,37.76-4,25.17-9.77,52.68-9.77,52.68s1.87,20.53.59,30.08S145.59,371,145.59,371s3.28,25.42,1.38,29.76-15.1,4.81-19,2.89c1.21-4.76.76-13.86.34-20.1,0-.13,4.71-13.64,4.71-13.64l.55-26.24c1.64-8.76,3-15.75,3-15.75s7.53-30.81,8.22-36.42-4.48-68.42-4.48-68.42C147.33,201.93,177,194.81,177,194.81Z"/><path class="cls-20" d="M173.49,181.14A53.17,53.17,0,0,1,177,196s-29.62,7.12-36.61,28.28c-14.08-15.65-41.4-18-41.4-18a45.47,45.47,0,0,1,.51-9.26,19,19,0,0,0,3-1.67,23.07,23.07,0,0,0,7.42,2,5.38,5.38,0,0,0,4.68-1.92s3.2,2,4.48.39.14-2.21.14-2.21.77.12.94-.55c0,0,32.27,4.24,53-11.77Z"/><path class="cls-21" d="M173.48,181.14l-.34.14c-20.71,16-53,11.77-53,11.77.18-.66-18.66.35-19.78-.36-.15-.11-.14-.39,0-.81V180.06c2.77-16.9,5.11-19,5.11-19l-4.24-17.64s24.44-10.18,54.2-2l3,11.64a147.11,147.11,0,0,1,10.43,17.58h0A105.39,105.39,0,0,1,173.48,181.14Z"/><path class="cls-20" d="M163.5,120.09c0,3.78-1.69,8.08-3.6,11.68a58.12,58.12,0,0,1-4.93,7.74l.48,1.88c-29.76-8.15-54.19,2-54.19,2l-4.84-20.16c19.45,0,11.91-42.94,11.79-43.6h0c1.12-.32,2.24-.62,3.32-.91,0,.63,2.63,30.63,24.72,30.05s13.2-27.7,13.07-28.08c1.11.45,2.45,1,3.92,1.66C153.24,82.38,163.44,111.69,163.5,120.09Z"/><path class="cls-21" d="M155.25,55a3.83,3.83,0,0,1-.53.5,2.2,2.2,0,0,1-2,.18l-.3-.07a16.1,16.1,0,0,0,.34-2.08c.14-1.49.33-3.47.46-5.06A20.53,20.53,0,0,0,155,44.41c.1-.28.18-.58.26-.87h.06a5.3,5.3,0,0,1,2.56,4.86A10.69,10.69,0,0,1,155.25,55Z"/><path class="cls-21" d="M153.35,46.61h0c0,.48-.08,1.13-.14,1.88-.13,1.59-.32,3.57-.46,5.06a16.1,16.1,0,0,1-.34,2.08,15.69,15.69,0,0,1-.85,2.59,37.44,37.44,0,0,1-4,7,21.2,21.2,0,0,1-2.71,3.06,12.69,12.69,0,0,1-8.18,3.75h-.79c-4.67-.16-8.31-3.34-10.91-6.84a35.74,35.74,0,0,1-4-7.13,14.79,14.79,0,0,1-.8-2.32,14.39,14.39,0,0,1-.39-2.24c-.18-1.74-.32-3.54-.44-5.08,0-.72-.08-1.38-.12-2h0c.45-.3,14.65-9.79,16.86-19.71a9.91,9.91,0,0,0,.25-1.51S150.51,27.92,153.35,46.61Z"/><path class="cls-21" d="M149.32,80.72c.13.38,9.1,27.5-13.07,28.08s-24.67-29.42-24.72-30c6.64-1.8,12.27-3,12.27-3s13.4,2.22,21.33-4.57l.92,8.24s1.27.49,3.27,1.31Z"/><path class="cls-22" d="M136.25,25.27a9.91,9.91,0,0,1-.25,1.51c-2.21,9.92-16.41,19.41-16.86,19.71,0-.07,0-.16,0-.28a2.16,2.16,0,0,0,0,.29.66.66,0,0,1,0,.11,7.8,7.8,0,0,0-1.58-2.2,1.78,1.78,0,0,0-.81-.43,1.39,1.39,0,0,0-1.6.92,8.55,8.55,0,0,0-.47,3.51,10.26,10.26,0,0,0,3.11,7.11,3.35,3.35,0,0,0,2.32.26,14.79,14.79,0,0,0,.8,2.32,35.74,35.74,0,0,0,4,7.13l-1.14,10.5s-5.63,1.22-12.27,3c-1.08.29-2.2.59-3.32.91h0a101.39,101.39,0,0,0-13.15,4.52,15,15,0,0,0-4.34,3.91c-5.45-13.57,4-24.3,13.07-32.4,10-8.93,12.73-21.57,12.73-21.57l.29,0c1.59-9.92,9.69-17.46,19.44-17.46,10.89,0,19.72,9.42,19.72,21a22,22,0,0,1-.76,5.78c-.08.29-.16.59-.26.87a20.53,20.53,0,0,1-1.74,4.08c.06-.75.12-1.4.14-1.88h0C150.51,27.92,136.25,25.27,136.25,25.27Z"/><path class="cls-22" d="M159.57,85.26c-2.19-1.05-4.37-2-6.33-2.88-1.47-.65-2.81-1.21-3.92-1.66h0c-2-.82-3.27-1.31-3.27-1.31l-.92-8.24-.31-2.84a21.2,21.2,0,0,0,2.71-3.06,37.44,37.44,0,0,0,4-7,15.69,15.69,0,0,0,.85-2.59l.3.07a2.2,2.2,0,0,0,2-.18,3.83,3.83,0,0,0,.53-.5C156.62,58.21,162.1,72.22,159.57,85.26Z"/><path class="cls-21" d="M100.39,180.06l7-6.69,10.33,2c0,3.88-9.26,3.44-9.26,3.44l-1.91,3.74s7,.72,8.12,1.43,5.68,8.44,5.51,9.1-.94.55-.94.55,1.14.61-.14,2.21-4.48-.39-4.48-.39a5.38,5.38,0,0,1-4.68,1.92,23.07,23.07,0,0,1-7.42-2,19,19,0,0,1-3,1.67,15,15,0,0,1-5.76,1.33c-4.68,0-9.85-8-9.85-8S59,153,59,148c0-4.37,20.34-46.36,31.68-59.87a15,15,0,0,1,4.34-3.91,101.39,101.39,0,0,1,13.15-4.52c.12.66,7.66,43.58-11.79,43.6l-1-4-18,26.46L93.09,184.1l7.14-3.89Z"/><path class="cls-21" d="M115.13,44.9a1.39,1.39,0,0,1,1.6-.92,1.78,1.78,0,0,1,.81.43,7.8,7.8,0,0,1,1.58,2.2.66.66,0,0,0,0-.11,2.16,2.16,0,0,1,0-.29c0,.12,0,.21,0,.28h0c0,.58.08,1.24.12,2,.12,1.54.26,3.34.44,5.08a14.39,14.39,0,0,0,.39,2.24,3.35,3.35,0,0,1-2.32-.26,10.26,10.26,0,0,1-3.11-7.11A8.55,8.55,0,0,1,115.13,44.9Z"/><polygon points="156.34 45.33 156.34 45.31 157.64 45.31 156.34 45.33"/><path class="cls-20" d="M135.05,56.89c0,.15.17.28.39.27,1.14-.13,4.27-.56,4.54-1.74s-2.36-6-3.55-8.14c-.14-.25-.64-.18-.67.09Z"/><path class="cls-22" d="M140.43,47.36a.57.57,0,0,1-.22,0,.63.63,0,0,1-.39-.82c0-.09.9-2.29,4.37-2.31s4.57,1.67,4.61,1.74a.65.65,0,0,1-.17.91.66.66,0,0,1-.9-.17c0-.06-.9-1.17-3.54-1.18h0c-2.53,0-3.1,1.39-3.12,1.45A.66.66,0,0,1,140.43,47.36Z"/><path class="cls-22" d="M148.92,44.11a.65.65,0,0,1-.41-.15A7,7,0,0,0,145,42.48a6.91,6.91,0,0,0-3.77.63.65.65,0,1,1-.56-1.18,8.21,8.21,0,0,1,8.68,1,.66.66,0,0,1,.1.92A.65.65,0,0,1,148.92,44.11Z"/><path class="cls-22" d="M143.08,44.93c-.25.07-.21.48-.22.76a1.49,1.49,0,0,0,3,0,1.54,1.54,0,0,0-.19-.74A5.75,5.75,0,0,0,143.08,44.93Z"/><path class="cls-22" d="M132.33,47.34a.66.66,0,0,1-.62-.44s-.58-1.46-3.12-1.46h0c-2.63,0-3.49,1.1-3.52,1.15a.67.67,0,0,1-.91.15.66.66,0,0,1-.16-.9c.05-.07,1.27-1.68,4.63-1.71,3.52,0,4.32,2.25,4.36,2.34a.66.66,0,0,1-.41.83A.78.78,0,0,1,132.33,47.34Z"/><path class="cls-22" d="M123.87,44a.65.65,0,0,1-.41-1.16,8.2,8.2,0,0,1,8.69-1,.65.65,0,1,1-.57,1.17,6.93,6.93,0,0,0-7.31.8A.61.61,0,0,1,123.87,44Z"/><path class="cls-22" d="M127.13,44.9c-.2.14-.2.47-.2.73a1.49,1.49,0,1,0,3,0,1.35,1.35,0,0,0-.21-.77S127.75,44.46,127.13,44.9Z"/><path class="cls-23" d="M142.4,54.41c-.09,1.42,1.6,2.67,3.77,2.82s4-.89,4.09-2.3-1.59-2.67-3.76-2.82S142.49,53,142.4,54.41Z"/><path class="cls-23" d="M123,53.49c-.1,1.41,1.59,2.67,3.76,2.81s4-.89,4.1-2.3-1.6-2.67-3.77-2.81S123.05,52.08,123,53.49Z"/><path class="cls-20" d="M153.62,54.62a.52.52,0,0,1-.17,0,.65.65,0,0,1-.45-.8A22.83,22.83,0,0,1,155.53,48a.65.65,0,1,1,1.11.67,22.21,22.21,0,0,0-2.39,5.5A.64.64,0,0,1,153.62,54.62Z"/><path class="cls-20" d="M119,54.35a.65.65,0,0,1-.63-.49A19.83,19.83,0,0,0,116,48.23a.65.65,0,0,1,.21-.89.66.66,0,0,1,.9.21,21,21,0,0,1,2.49,6,.65.65,0,0,1-.48.78A.44.44,0,0,1,119,54.35Z"/><path class="cls-22" d="M136.37,62.65A7.87,7.87,0,0,1,130.16,60a.65.65,0,0,1,1-.84c2.47,3,6.92,2,7,2a.65.65,0,0,1,.78.49.66.66,0,0,1-.49.78A10,10,0,0,1,136.37,62.65Z"/><path class="cls-20" d="M136.07,178.87a.66.66,0,0,1-.27-.06.65.65,0,0,1-.32-.86l1.86-4.07a.66.66,0,0,1,1.19.55l-1.87,4.06A.64.64,0,0,1,136.07,178.87Z"/><path class="cls-20" d="M173.14,233H173a.66.66,0,0,1-.52-.76c6.36-35.4,3.6-42.52.93-49.42-.19-.48-.37-.95-.55-1.44a162.68,162.68,0,0,0-8.46-17.63.66.66,0,0,1,.26-.89.65.65,0,0,1,.88.26,165.19,165.19,0,0,1,8.54,17.8l.54,1.43c2.74,7.06,5.57,14.36-.86,50.12A.65.65,0,0,1,173.14,233Z"/><path class="cls-20" d="M175.69,220.73a.63.63,0,0,1-.26,0,.64.64,0,0,1-.33-.86,26,26,0,0,1,3.32-5.57.63.63,0,0,1,.91-.11.65.65,0,0,1,.11.91,25.5,25.5,0,0,0-3.15,5.29A.65.65,0,0,1,175.69,220.73Z"/><path class="cls-20" d="M94.33,121.56a.62.62,0,0,1-.37-.11.66.66,0,0,1-.17-.91L101,110a.65.65,0,1,1,1.07.73l-7.23,10.54A.65.65,0,0,1,94.33,121.56Z"/><path class="cls-20" d="M77.44,146.36a.64.64,0,0,1-.6-.41c-.92-2.25-3.81-1.9-3.94-1.88a.65.65,0,0,1-.17-1.29c1.38-.19,4.27.13,5.31,2.68a.65.65,0,0,1-.35.85A.74.74,0,0,1,77.44,146.36Z"/><path class="cls-20" d="M106.79,182.93a.61.61,0,0,1-.45-.19.65.65,0,0,1,0-.92,4.19,4.19,0,0,0,.78-1.42,4.26,4.26,0,0,1,1.39-2.12,4.4,4.4,0,0,1,2.44-.62,15,15,0,0,0,5.68-1,1.86,1.86,0,0,0,.7-.48.45.45,0,0,0,.1-.4c-.09-.18-.59-.27-.77-.31l-5.51-1a8.76,8.76,0,0,0-3.17-.21,7.83,7.83,0,0,0-4.12,2.84l-.56.65A13.64,13.64,0,0,1,99.68,181a.65.65,0,1,1-.62-1.14,12.48,12.48,0,0,0,3.24-3l.58-.66c1.17-1.32,2.78-2.89,4.86-3.26a10,10,0,0,1,3.64.21l5.5,1a2.24,2.24,0,0,1,1.7,1,1.71,1.71,0,0,1-.23,1.8,3.18,3.18,0,0,1-1.18.86A16.38,16.38,0,0,1,111,179a3.46,3.46,0,0,0-1.76.38,3.25,3.25,0,0,0-.93,1.54,5.34,5.34,0,0,1-1.06,1.86A.66.66,0,0,1,106.79,182.93Z"/><path class="cls-20" d="M120.2,194.13a.66.66,0,0,1-.59-.36.65.65,0,0,1,.29-.87.5.5,0,0,0,0-.15,2,2,0,0,0-.29-.61l-3.24-5.28a6.1,6.1,0,0,0-1.93-2.24,5.81,5.81,0,0,0-1.9-.54l-7.19-1.25a.64.64,0,0,1-.52-.76.63.63,0,0,1,.75-.52l7.19,1.25a5.48,5.48,0,0,1,4.71,3.38l3.24,5.28a3,3,0,0,1,.47,1.11,1.44,1.44,0,0,1-.71,1.49A.65.65,0,0,1,120.2,194.13Z"/><path class="cls-20" d="M120.07,194.81a.64.64,0,0,1-.3-.08A15.48,15.48,0,0,1,116.3,192a13.49,13.49,0,0,0-3.33-2.6,13.92,13.92,0,0,0-4.38-1,13.79,13.79,0,0,1-5.12-1.34.65.65,0,0,1,.63-1.14,12.7,12.7,0,0,0,4.66,1.19,14.79,14.79,0,0,1,4.78,1.15,14.75,14.75,0,0,1,3.66,2.83,14.33,14.33,0,0,0,3.17,2.53.66.66,0,0,1,.28.88A.67.67,0,0,1,120.07,194.81Z"/><path class="cls-20" d="M114.94,196.59a.64.64,0,0,1-.48-.22,15.91,15.91,0,0,0-13.21-5,.65.65,0,1,1-.14-1.29,17.19,17.19,0,0,1,14.31,5.46.64.64,0,0,1,0,.92A.66.66,0,0,1,114.94,196.59Z"/><path class="cls-20" d="M133.53,347.74h-.13a.66.66,0,0,1-.51-.77c.08-.41,8.17-40.87,11.29-55.81s-4.41-66.28-4.49-66.8a.65.65,0,1,1,1.29-.19c.32,2.12,7.63,52.21,4.48,67.26s-11.21,55.39-11.29,55.8A.66.66,0,0,1,133.53,347.74Z"/><path class="cls-20" d="M134.67,295.38a11.12,11.12,0,0,1-6.1-1.82.66.66,0,0,1-.18-.91.64.64,0,0,1,.9-.18,9.8,9.8,0,0,0,7.92,1.27.64.64,0,0,1,.8.45.65.65,0,0,1-.45.8A10.83,10.83,0,0,1,134.67,295.38Z"/><path class="cls-20" d="M150.46,294.59l-.65,0a.65.65,0,0,1-.61-.69.62.62,0,0,1,.69-.61,10.22,10.22,0,0,0,7.37-2.57.65.65,0,0,1,.87,1A11.6,11.6,0,0,1,150.46,294.59Z"/><path class="cls-20" d="M127.76,404.08h-.11a.65.65,0,0,1-.54-.74,85,85,0,0,0,.11-26,.65.65,0,1,1,1.28-.19,85.92,85.92,0,0,1-.1,26.4A.65.65,0,0,1,127.76,404.08Z"/><path class="cls-20" d="M121.84,407.72a.78.78,0,0,1-.22,0,.65.65,0,0,1-.4-.83,5.58,5.58,0,0,0,.06-3.52.65.65,0,0,1,.43-.81.64.64,0,0,1,.81.42,6.86,6.86,0,0,1-.07,4.34A.65.65,0,0,1,121.84,407.72Z"/><path class="cls-20" d="M117.24,407.48a.67.67,0,0,1-.24,0,.66.66,0,0,1-.36-.85,5.76,5.76,0,0,0,.35-2.88.65.65,0,1,1,1.29-.17,7.09,7.09,0,0,1-.43,3.53A.65.65,0,0,1,117.24,407.48Z"/><path class="cls-20" d="M113.49,406.81a.63.63,0,0,1-.27-.06.66.66,0,0,1-.33-.86,5.67,5.67,0,0,0,.51-2.43.65.65,0,0,1,.63-.67.66.66,0,0,1,.67.64,6.87,6.87,0,0,1-.62,3A.65.65,0,0,1,113.49,406.81Z"/><path class="cls-20" d="M111.19,405.91a.6.6,0,0,1-.29-.08.64.64,0,0,1-.28-.87,5.62,5.62,0,0,0,.58-2,.65.65,0,1,1,1.3.12,6.72,6.72,0,0,1-.73,2.47A.64.64,0,0,1,111.19,405.91Z"/><path class="cls-20" d="M131.69,405.18a.64.64,0,0,1-.65-.64l-.06-3a.65.65,0,0,1,.63-.67.66.66,0,0,1,.67.64l.06,3a.66.66,0,0,1-.64.66Z"/><path class="cls-20" d="M136.41,405.36a.65.65,0,0,1-.65-.64l0-3.08a.65.65,0,0,1,.64-.66h0a.65.65,0,0,1,.65.64l0,3.08a.64.64,0,0,1-.64.66Z"/><path class="cls-20" d="M140.2,404.64a.65.65,0,0,1-.64-.58l-.28-2.54a.65.65,0,0,1,.58-.72.67.67,0,0,1,.72.58l.27,2.54a.65.65,0,0,1-.58.71Z"/><path class="cls-20" d="M143.94,403.55a.66.66,0,0,1-.65-.55L143,401a.65.65,0,1,1,1.28-.21l.33,2.06a.65.65,0,0,1-.54.74Z"/><path class="cls-20" d="M115.18,378.56a.65.65,0,0,1-.22-1.27,9.54,9.54,0,0,1,5.74-.19.65.65,0,0,1,.45.81.64.64,0,0,1-.8.44,8.28,8.28,0,0,0-4.95.17A.54.54,0,0,1,115.18,378.56Z"/><path class="cls-20" d="M140.69,371.42h-.13a36.32,36.32,0,0,0-5-.7.65.65,0,0,1,.09-1.3,37.39,37.39,0,0,1,5.17.72.66.66,0,0,1,.5.77A.64.64,0,0,1,140.69,371.42Z"/></g></g></svg>