<svg xmlns="http://www.w3.org/2000/svg" viewBox="0 0 102.07 317.01"><defs><style>.cls-1{fill:#2b3448;}.cls-2{fill:#e06a43;}.cls-3{fill:#e79e73;}.cls-4{fill:#df895d;}</style></defs><g id="Layer_2" data-name="Layer 2"><g id="OBJECTS"><path class="cls-1" d="M92.79,58.84a12.66,12.66,0,0,0-5-2.91c-1.16-.34-2.71-.88-4.39-1.49-1.38-.5-2.86-1.06-4.26-1.6-3.62-1.38-6.77-2.66-6.77-2.66l-21.17-3S45.1,48.49,39.22,49.9c-1.32.32-2.63.63-3.86,1-2.64.66-4.92,1.28-6.12,1.7-.74.26-1.94,1.52-3.45,3.54a5.58,5.58,0,0,1-.89-2.49,5.82,5.82,0,0,1,2.22-5.13,12.26,12.26,0,0,0,2.69-2c1.49-2,0-5,1.11-7.26,1.24-2.6,5.08-2.77,6.87-5,1.29-1.64,1.19-3.94.94-6s-.59-4.28.35-6.14c1.26-2.46,4.41-3.53,5.59-6,.93-2,1.19-9.87,7-11.22v0A16.3,16.3,0,0,1,79.22,13.2c.2,1,.3,2.07.43,3.11a11.58,11.58,0,0,0,1.43,4.76,16.27,16.27,0,0,0,2,2.3,6.81,6.81,0,0,1,2,3.16c.58,2.81-2,5.75-.88,8.39.85,2,3.57,2.92,4,5.07s-1.63,4.36-.8,6.39C88,48,90.3,48.56,91,50.21c.5,1.2,0,2.58.1,3.88s1.11,2.64,1.55,4A3.7,3.7,0,0,1,92.79,58.84Z"/><path class="cls-2" d="M53.54,39.22c2.1,2.7,5,5.13,8.82,5.26H63a11,11,0,0,0,7.48-3.71l.5,2.51c-9,10.18-19.81,3.88-19.81,3.88Z"/><path class="cls-3" d="M76.4,26.36c-.11,1.22-.26,2.75-.37,3.89a12.16,12.16,0,0,1-.28,1.6s0,0,0,0H76s-1.88,11.22-11.8,12.45a8.54,8.54,0,0,1-.9.1l-.3,0h-.63C51.19,44.47,49.7,32.73,49.62,32v0a11.07,11.07,0,0,1-.31-1.72c-.15-1.33-.26-2.72-.36-3.9,0-.55-.06-1.06-.09-1.51,0,0,0-.12,0-.22S50.72,8.09,63.21,8.09,76.78,22.47,76.4,26.36Z"/><path class="cls-2" d="M96.56,147c-18.34-.53-33.69,21-33.69,21-8.86-20-39.23-26.65-39.23-26.65a60.55,60.55,0,0,1,2.13-7.41h0c.5.39,30.2,23.61,67.9,1.94h0c.72,2.41,1.43,5,2.1,7.62C96.06,144.63,96.32,145.79,96.56,147Z"/><path class="cls-2" d="M29.16,88.12c.13-5.78,2.43-12.4,4-18,2-7.11,2.19-18.92,2.19-19.25,1.23-.31,2.54-.63,3.87-.94,0,0-3,29.91,22.37,29.91s17.5-27,17.5-27c1.4.54,2.88,1.09,4.27,1.6,0,0,8.47,20.76,8.92,30.52a30.86,30.86,0,0,1-4.46,17.08s-.23,2-.55,4.73c-24.42-11.59-53.84,0-53.84,0h0c-.06-2.86-.07-5-.07-5s-2-2.37-3.73-9A17.27,17.27,0,0,1,29.16,88.12Z"/><path class="cls-3" d="M92.79,58.84a16.2,16.2,0,0,1,4.95,10.25c.83,7.26,3.78,48.24,3.78,48.24s.83,31.52,0,38c0,0,.94,10.82.37,14.08s-4.31,9.71-4.31,9.71l-.12,0c1.13-10.49,1.2-21.64-.9-32.1-.24-1.16-.5-2.32-.79-3.47-.67-2.65-1.38-5.21-2.1-7.62a191.82,191.82,0,0,0-7.39-20.66c.33-2.78.71-5.91,1-8.42.32-2.73.55-4.73.55-4.73A30.86,30.86,0,0,0,92.29,85c-.45-9.76-8.92-30.52-8.92-30.52,1.67.61,3.23,1.14,4.39,1.48A12.94,12.94,0,0,1,92.79,58.84Z"/><path class="cls-3" d="M96.56,147c2.1,10.46,2,21.61.9,32.1a191.52,191.52,0,0,1-11.18,45.63s3.67,22.3,1,35.69-7.25,22.75-8.31,32.2,2.87,17.14,1.06,20.74c-1.48,2.93-12.47,1.77-17.66-1.13a6.81,6.81,0,0,0,.42-3.43,57.25,57.25,0,0,0-2.07-7.05c1.63-3.63,5.18-11,5.24-13.81.08-3.71-3.25-55.15-3.25-55.15l.14-1.25s1.95-47.64,0-63.51C62.87,168,78.22,146.42,96.56,147Z"/><path class="cls-3" d="M93.67,135.85q-2.37,1.36-4.7,2.49s-9.78,12-24.07,12-26.81-9.67-26.81-9.67a53.33,53.33,0,0,1-12.32-6.73A63.11,63.11,0,0,1,34,118.08c-.31-2.88-.46-7.66-.53-11.3a88,88,0,0,1,29-5.16,57.63,57.63,0,0,1,24.8,5.16c-.28,2.5-.66,5.64-1,8.42A189.65,189.65,0,0,1,93.67,135.85Z"/><path class="cls-3" d="M79.1,23c.67.24,1.08,1.21,1,3.35a7.68,7.68,0,0,1-2.52,5.47,1.88,1.88,0,0,1-1.62.14l-.25-.06a12.16,12.16,0,0,0,.28-1.6c.11-1.14.26-2.66.37-3.89a15.27,15.27,0,0,0,1.41-3.13,1.35,1.35,0,0,1,.66-.32A1.2,1.2,0,0,1,79.1,23Z"/><path class="cls-3" d="M79.1,52.85s7.9,27-17.5,27S39.23,49.91,39.23,49.91c5.88-1.41,11.94-2.75,11.94-2.75S62,53.46,71,43.28l1.36,6.91S75.48,51.46,79.1,52.85Z"/><path class="cls-3" d="M62.39,312.18c-1,2.48-3.73,4.72-9.56,4.72-8.55,0-12.33-3.76-11-5.78S45,297.41,45,297.41,34.16,252.13,33.78,244,37.1,224.3,37.1,224.3c-7-15-11.21-36.25-13.22-48.84-1-6.38-1.49-10.54-1.49-10.54,1.39,1.7,2.82,3.46,3.15,4,.68,1.06,4.4.71,2-5.07s-3.74-7.3-3.74-7.3,2-4.52-1.3-7.91a55.13,55.13,0,0,1,1.1-7.28S54,147.94,62.87,168c1.95,15.87,0,63.51,0,63.51l-.14,1.25c-.83,7.73-5.25,49.05-4.91,55.9.22,4.28,1.63,9.09,2.92,13.06a57.25,57.25,0,0,1,2.07,7.05A6.81,6.81,0,0,1,62.39,312.18Z"/><path class="cls-3" d="M45.6,23.62h0a1.12,1.12,0,0,1,1.3-.7,1.37,1.37,0,0,1,.65.32,6.07,6.07,0,0,1,1.28,1.69.2.2,0,0,0,0-.08c0-.06,0-.13,0-.23,0,.1,0,.17,0,.23,0,.44.06.95.1,1.5.09,1.19.2,2.57.35,3.9A10.32,10.32,0,0,0,49.62,32a3,3,0,0,1-1.88-.2,7.72,7.72,0,0,1-2.51-5.47A6.28,6.28,0,0,1,45.6,23.62Z"/><path class="cls-3" d="M22.39,164.92s.46,4.16,1.49,10.54h0a6.73,6.73,0,0,1-3.32-2.57c-.87-1.7-5.22-5.14-5.22-5.14l-.23-1.06c-.23-1.06-.12-6.63-.58-10S1.77,117.78.81,114.25A17.09,17.09,0,0,1,0,109C4.55,92.26,18.63,65.67,25.79,56.09c1.51-2,2.71-3.27,3.45-3.54,1.21-.42,3.48-1,6.12-1.7,0,.33-.2,12.14-2.19,19.25-1.58,5.62-3.88,12.24-4,18L16.44,111.63l4.15,35.48a8.42,8.42,0,0,1,1.95,1.5c3.27,3.39,1.3,7.91,1.3,7.91s1.37,1.51,3.74,7.3-1.36,6.13-2,5.07C25.21,168.38,23.78,166.62,22.39,164.92Z"/><polygon points="45.36 22.67 45.36 22.66 46.36 22.66 45.36 22.67"/><path class="cls-2" d="M63.77,32.11c0,.13-.14.23-.32.22-.93-.1-3.48-.45-3.7-1.42s1.92-4.88,2.9-6.64c.11-.2.52-.15.54.07Z"/><path class="cls-1" d="M59.38,24.31a.49.49,0,0,1-.47-.34s-.49-1.19-2.58-1.19h0c-2.19,0-2.89.94-2.92,1a.5.5,0,0,1-.69.11.49.49,0,0,1-.13-.68c0-.06,1-1.4,3.74-1.41h0c2.83,0,3.49,1.79,3.52,1.86a.51.51,0,0,1-.31.64A.45.45,0,0,1,59.38,24.31Z"/><path class="cls-1" d="M52.45,21.65a.48.48,0,0,1-.39-.19.5.5,0,0,1,.08-.7,6.66,6.66,0,0,1,7-.83.5.5,0,0,1,.24.67.49.49,0,0,1-.66.23,5.83,5.83,0,0,0-3.1-.51,5.73,5.73,0,0,0-2.9,1.22A.51.51,0,0,1,52.45,21.65Z"/><path class="cls-1" d="M57.22,22.35c.2.06.17.4.17.62a1.22,1.22,0,1,1-2.27-.59A4.7,4.7,0,0,1,57.22,22.35Z"/><path class="cls-1" d="M66,24.28a.51.51,0,0,1-.17,0,.49.49,0,0,1-.3-.63c0-.07.67-1.88,3.52-1.89h0c2.74,0,3.68,1.33,3.72,1.38a.51.51,0,0,1-.12.7.52.52,0,0,1-.7-.12c0-.05-.74-1-2.9-1h0c-2.11,0-2.57,1.17-2.59,1.22A.52.52,0,0,1,66,24.28Z"/><path class="cls-1" d="M72.9,21.57a.45.45,0,0,1-.31-.11,5.76,5.76,0,0,0-2.91-1.19,5.69,5.69,0,0,0-3.09.53.5.5,0,1,1-.44-.89,6.74,6.74,0,0,1,3.64-.64,6.82,6.82,0,0,1,3.42,1.41.5.5,0,0,1,.08.7A.48.48,0,0,1,72.9,21.57Z"/><path class="cls-1" d="M70.23,22.33c.17.11.16.38.17.6a1.22,1.22,0,1,1-2.26-.62S69.73,22,70.23,22.33Z"/><path class="cls-4" d="M57.77,30.09c.07,1.15-1.3,2.18-3.07,2.3s-3.27-.73-3.35-1.88,1.3-2.18,3.08-2.29S57.69,28.94,57.77,30.09Z"/><path class="cls-4" d="M73.64,29.34c.08,1.15-1.3,2.18-3.07,2.29s-3.27-.72-3.34-1.88,1.3-2.17,3.07-2.29S73.57,28.18,73.64,29.34Z"/><path class="cls-2" d="M48.61,30.23a.49.49,0,0,1-.48-.36,18.18,18.18,0,0,0-2-4.5.49.49,0,0,1,.17-.68.5.5,0,0,1,.69.16,19.1,19.1,0,0,1,2.06,4.75.49.49,0,0,1-.34.61A.36.36,0,0,1,48.61,30.23Z"/><path class="cls-2" d="M76.89,30h-.12a.51.51,0,0,1-.36-.61,17,17,0,0,1,2-4.88.51.51,0,0,1,.69-.17.51.51,0,0,1,.17.69,15.72,15.72,0,0,0-1.91,4.6A.5.5,0,0,1,76.89,30Z"/><path class="cls-1" d="M62.69,36.78A8.57,8.57,0,0,1,61,36.62a.5.5,0,0,1-.38-.6.52.52,0,0,1,.6-.38s3.69.8,5.72-1.63a.5.5,0,0,1,.7-.07.51.51,0,0,1,.07.71A6.42,6.42,0,0,1,62.69,36.78Z"/><path class="cls-2" d="M97.46,179.55h0A.5.5,0,0,1,97,179c1.87-17.87-.71-31.23-3.77-43a132.31,132.31,0,0,0-7.37-20.56.51.51,0,0,1,0-.27l1-8.42a.51.51,0,0,1,.56-.44.49.49,0,0,1,.43.55l-1,8.28a135.38,135.38,0,0,1,7.37,20.61c3.08,11.88,5.68,25.35,3.8,43.37A.51.51,0,0,1,97.46,179.55Z"/><path class="cls-2" d="M62.74,233.24h-.09a.51.51,0,0,1-.41-.58c3.65-20.93.17-64.2.13-64.63a.5.5,0,0,1,.46-.54.5.5,0,0,1,.54.46c0,.43,3.53,43.82-.14,64.88A.51.51,0,0,1,62.74,233.24Z"/><path class="cls-2" d="M54.22,229.19a10.46,10.46,0,0,1-3.49-.6,10.65,10.65,0,0,1-5.55-4.47.5.5,0,0,1,.86-.52,9.6,9.6,0,0,0,11.47,4,.5.5,0,1,1,.34.94A10.76,10.76,0,0,1,54.22,229.19Z"/><path class="cls-2" d="M74.22,229.19a10.92,10.92,0,0,1-6.29-2,.51.51,0,0,1-.12-.7.52.52,0,0,1,.7-.12,9.9,9.9,0,0,0,12.36-.76.48.48,0,0,1,.7,0,.5.5,0,0,1,0,.71,10.9,10.9,0,0,1-6.65,2.81C74.66,229.19,74.44,229.19,74.22,229.19Z"/><path class="cls-2" d="M62.11,312.49H62a.5.5,0,0,1-.37-.6,14.45,14.45,0,0,0-1.38-10,.5.5,0,0,1,.88-.48,15.45,15.45,0,0,1,1.47,10.69A.5.5,0,0,1,62.11,312.49Z"/><path class="cls-2" d="M56.73,316.78a.49.49,0,0,1-.41-.21,7.13,7.13,0,0,1-1-6,.5.5,0,1,1,1,.28,6.22,6.22,0,0,0,.83,5.15.5.5,0,0,1-.13.7A.46.46,0,0,1,56.73,316.78Z"/><path class="cls-2" d="M51.73,317a.49.49,0,0,1-.48-.36,9.46,9.46,0,0,1-.24-3.89.51.51,0,0,1,.57-.42.5.5,0,0,1,.42.57,8.47,8.47,0,0,0,.21,3.47.49.49,0,0,1-.34.61A.34.34,0,0,1,51.73,317Z"/><path class="cls-2" d="M48.26,316.76a.5.5,0,0,1-.5-.47,9.61,9.61,0,0,1,.51-3.72.5.5,0,0,1,.95.33,8.57,8.57,0,0,0-.46,3.33.51.51,0,0,1-.47.53Z"/><path class="cls-2" d="M44.41,315.25h0a.49.49,0,0,1-.47-.52,12.52,12.52,0,0,1,.58-3.21.5.5,0,0,1,.95.31,12.19,12.19,0,0,0-.54,2.95A.49.49,0,0,1,44.41,315.25Z"/><path class="cls-2" d="M66.18,314a.47.47,0,0,1-.17,0,.52.52,0,0,1-.3-.65,9.8,9.8,0,0,0,.6-2.61,2.16,2.16,0,0,0-.44-1.85.5.5,0,1,1,.67-.74,3.07,3.07,0,0,1,.76,2.68,10.64,10.64,0,0,1-.65,2.88A.51.51,0,0,1,66.18,314Z"/><path class="cls-2" d="M70,314.92a.68.68,0,0,1-.23-.05.51.51,0,0,1-.21-.68,4.77,4.77,0,0,0,.38-3.36.5.5,0,1,1,1-.25,5.8,5.8,0,0,1-.46,4.07A.51.51,0,0,1,70,314.92Z"/><path class="cls-2" d="M73.52,315.19a.43.43,0,0,1-.19,0,.49.49,0,0,1-.27-.65,5,5,0,0,0,.25-2.92.5.5,0,0,1,.39-.59.49.49,0,0,1,.59.38,5.94,5.94,0,0,1-.31,3.51A.49.49,0,0,1,73.52,315.19Z"/><path class="cls-2" d="M77.67,314.59a.44.44,0,0,1-.16,0,.5.5,0,0,1-.31-.64,3.72,3.72,0,0,0,0-2.31.5.5,0,0,1,.33-.62.51.51,0,0,1,.63.33,4.73,4.73,0,0,1-.07,2.93A.48.48,0,0,1,77.67,314.59Z"/><path class="cls-2" d="M75.17,291.53a.58.58,0,0,1-.18,0,22.52,22.52,0,0,0-5.15-1.37.5.5,0,0,1-.42-.56.49.49,0,0,1,.56-.43,23.36,23.36,0,0,1,5.38,1.43.5.5,0,0,1-.19,1Z"/><path class="cls-2" d="M47.4,295a.51.51,0,0,1-.46-.3.49.49,0,0,1,.26-.66,20.59,20.59,0,0,1,4.42-1.37.5.5,0,0,1,.19,1A19.78,19.78,0,0,0,47.6,295,.79.79,0,0,1,47.4,295Z"/><path class="cls-2" d="M62.75,129.8a.45.45,0,0,1-.31-.11.49.49,0,0,1-.08-.7l1.69-2.13a.49.49,0,0,1,.7-.08.49.49,0,0,1,.08.7l-1.69,2.13A.48.48,0,0,1,62.75,129.8Z"/><path class="cls-2" d="M27,170h-.18a1.23,1.23,0,0,1-.7-.51l-6.86-8.68a.5.5,0,0,1,.79-.62l6.85,8.68A1.66,1.66,0,0,0,27,169s.05-.07.12-.18a4.8,4.8,0,0,0,.3-4.4,16.16,16.16,0,0,0-2.35-3.86l-.24-.32a7,7,0,0,1-1.52-3,7.32,7.32,0,0,1,.09-2.15c0-.28.08-.56.1-.85a7.45,7.45,0,0,0-2.28-5.93.5.5,0,0,1,0-.71.49.49,0,0,1,.7,0,8.46,8.46,0,0,1,2.6,6.75c0,.3-.07.6-.11.9a4.57,4.57,0,0,0,1.24,4.42l.24.33a16.25,16.25,0,0,1,2.48,4.1,5.79,5.79,0,0,1-.41,5.33A1.21,1.21,0,0,1,27,170Zm0-1h0Z"/><path class="cls-2" d="M25.39,182.8a.5.5,0,0,1-.48-.38,146,146,0,0,1-3.5-18.31.5.5,0,0,1,.44-.56.49.49,0,0,1,.55.43,145.89,145.89,0,0,0,3.48,18.19.5.5,0,0,1-.36.61Z"/><path class="cls-2" d="M22.57,169.3a.5.5,0,0,1-.34-.13l-2.62-2.42a.51.51,0,0,1,0-.71.5.5,0,0,1,.71,0l2.62,2.42a.5.5,0,0,1-.34.86Z"/></g></g></svg>