<svg xmlns="http://www.w3.org/2000/svg" viewBox="0 0 416.32 434.29"><defs><style>.cls-1{fill:#e1f7ff;}.cls-2{fill:#9465e0;}.cls-3{fill:#6c4aaf;}.cls-4{fill:#ab80ff;}.cls-5{fill:#c1e1ea;}.cls-6{fill:#fff;}.cls-7{fill:#74a844;}.cls-8{fill:#a7cc48;}.cls-9{fill:#f4b54e;}.cls-10{fill:#ffcc71;}.cls-11{fill:#93257c;}.cls-12{fill:#ef3364;}.cls-13{fill:#4e77d1;}.cls-14{fill:#7faaf7;}.cls-15{fill:#252538;}.cls-16{fill:#97b9c6;}.cls-17,.cls-18{fill:none;stroke-miterlimit:10;}.cls-17{stroke:#ef3364;stroke-width:4px;}.cls-18{stroke:#fff;stroke-width:5.1px;}.cls-19{fill:#f2729a;}.cls-20{fill:#e06a43;}.cls-21{fill:#e79e73;}.cls-22{fill:#2b3448;}.cls-23{fill:#df895d;}</style></defs><g id="Layer_2" data-name="Layer 2"><g id="OBJECTS"><path class="cls-1" d="M295.15,45a122.15,122.15,0,0,0-135,38.56,122.12,122.12,0,1,0,96.33,198.91A122.12,122.12,0,0,0,295.15,45Z"/><ellipse class="cls-1" cx="208.27" cy="408.33" rx="206.7" ry="25.96"/><rect class="cls-2" x="59.04" y="405.41" width="149.46" height="16.26"/><polygon class="cls-3" points="59.04 413.54 208.5 408.54 208.5 405.41 59.04 405.41 59.04 413.54"/><path class="cls-4" d="M208.9,397.59H58.64a4,4,0,0,0-4,4h0a4,4,0,0,0,4,4H208.9a4,4,0,0,0,4-4h0A4,4,0,0,0,208.9,397.59Z"/><path class="cls-5" d="M225.68,100.32v-5a95.32,95.32,0,1,1,190.64,0v5Z"/><path class="cls-6" d="M227.68,98.32v-3a93.32,93.32,0,1,1,186.64,0v3Z"/><path class="cls-7" d="M321,5a90.32,90.32,0,0,0-90.32,90.32H411.32A90.32,90.32,0,0,0,321,5Z"/><path class="cls-8" d="M234.78,91.32a86.32,86.32,0,0,1,172.45,0Z"/><path class="cls-7" d="M343.78,60.35a40.11,40.11,0,0,0-63,35h80.13A40.1,40.1,0,0,0,343.78,60.35Z"/><path class="cls-9" d="M411.32,95.32A90.32,90.32,0,0,0,321,5V95.32Z"/><path class="cls-10" d="M321,9V91.32h86.23A86.42,86.42,0,0,0,321,9Z"/><path class="cls-11" d="M384.87,31.45,321,95.32h90.32A90,90,0,0,0,384.87,31.45Z"/><path class="cls-12" d="M325,91.32h82.23a86,86,0,0,0-25.23-57Z"/><path class="cls-13" d="M257.14,31.45,321,95.32H230.68A90,90,0,0,1,257.14,31.45Z"/><path class="cls-14" d="M234.78,91.32H317l-57-57A86,86,0,0,0,234.78,91.32Z"/><path class="cls-13" d="M287.91,70.3a39.92,39.92,0,0,0-7.15,25H321L291.53,65.84A40.69,40.69,0,0,0,287.91,70.3Z"/><path class="cls-9" d="M343.78,60.35A39.93,39.93,0,0,0,321,53.14V95.32h39.89A40.1,40.1,0,0,0,343.78,60.35Z"/><path class="cls-11" d="M360.89,95.32A40.19,40.19,0,0,0,350.29,66L321,95.32Z"/><path class="cls-5" d="M312.54,85.93A10.1,10.1,0,1,1,315,100,10.08,10.08,0,0,1,312.54,85.93Z"/><path class="cls-15" d="M339.35,65.15h0a2.9,2.9,0,0,1,.72,4L324.86,91l-4.76-3.33,15.21-21.8A2.9,2.9,0,0,1,339.35,65.15Z"/><path class="cls-6" d="M316.12,88.43a5.73,5.73,0,1,1,1.42,8A5.72,5.72,0,0,1,316.12,88.43Z"/><path class="cls-14" d="M265.25,149.49H232.39a32.87,32.87,0,0,1,32.86-32.87h0Z"/><path class="cls-13" d="M247.56,149.49h17.69V131.8A17.69,17.69,0,0,0,247.56,149.49Z"/><rect class="cls-5" x="275.02" y="116.62" width="139.31" height="32.86" rx="5.61"/><path class="cls-16" d="M280.63,149.49H408.71a5.62,5.62,0,0,0,5.61-5.62V133.06H275v10.81A5.62,5.62,0,0,0,280.63,149.49Z"/><rect class="cls-6" x="332.24" y="67.4" width="24.86" height="131.31" rx="1.61" transform="translate(477.72 -211.62) rotate(90)"/><rect class="cls-1" x="334.24" y="69.4" width="20.86" height="127.31" transform="translate(477.72 -211.62) rotate(90)"/><rect class="cls-14" x="282.25" y="123.77" width="11.23" height="18.58"/><rect class="cls-14" x="294.89" y="123.77" width="11.23" height="18.58"/><rect class="cls-14" x="307.53" y="123.77" width="11.23" height="18.58"/><rect class="cls-14" x="320.17" y="123.77" width="11.23" height="18.58"/><rect class="cls-14" x="332.81" y="123.77" width="11.23" height="18.58"/><rect class="cls-14" x="345.44" y="123.77" width="11.23" height="18.58"/><rect class="cls-14" x="358.08" y="123.77" width="11.23" height="18.58"/><rect class="cls-13" x="282.25" y="133.06" width="11.23" height="9.29"/><rect class="cls-13" x="294.89" y="133.06" width="11.23" height="9.29"/><rect class="cls-13" x="307.53" y="133.06" width="11.23" height="9.29"/><rect class="cls-13" x="320.17" y="133.06" width="11.23" height="9.29"/><rect class="cls-13" x="332.81" y="133.06" width="11.23" height="9.29"/><rect class="cls-13" x="345.44" y="133.06" width="11.23" height="9.29"/><rect class="cls-13" x="358.08" y="133.06" width="11.23" height="9.29"/><rect class="cls-5" x="370.72" y="123.77" width="11.23" height="18.58"/><rect class="cls-5" x="383.36" y="123.77" width="11.23" height="18.58"/><rect class="cls-5" x="396" y="123.77" width="11.23" height="18.58"/><path class="cls-8" d="M265.25,193.75H232.39a32.86,32.86,0,0,1,32.86-32.86h0Z"/><path class="cls-7" d="M247.56,193.75h17.69V176.06A17.69,17.69,0,0,0,247.56,193.75Z"/><rect class="cls-5" x="275.02" y="160.89" width="139.31" height="32.86" rx="5.61"/><path class="cls-16" d="M280.63,193.75H408.71a5.61,5.61,0,0,0,5.61-5.61V177.33H275v10.81A5.61,5.61,0,0,0,280.63,193.75Z"/><rect class="cls-6" x="332.24" y="111.67" width="24.86" height="131.31" rx="1.61" transform="translate(521.99 -167.35) rotate(90)"/><rect class="cls-1" x="334.24" y="113.67" width="20.86" height="127.31" transform="translate(521.99 -167.35) rotate(90)"/><rect class="cls-8" x="282.25" y="168.04" width="11.23" height="18.58"/><rect class="cls-8" x="294.89" y="168.04" width="11.23" height="18.58"/><rect class="cls-8" x="307.53" y="168.04" width="11.23" height="18.58"/><rect class="cls-8" x="320.17" y="168.04" width="11.23" height="18.58"/><rect class="cls-5" x="332.81" y="168.04" width="11.23" height="18.58"/><rect class="cls-5" x="345.44" y="168.04" width="11.23" height="18.58"/><rect class="cls-5" x="358.08" y="168.04" width="11.23" height="18.58"/><rect class="cls-7" x="282.25" y="177.33" width="11.23" height="9.29"/><rect class="cls-7" x="294.89" y="177.33" width="11.23" height="9.29"/><rect class="cls-7" x="307.53" y="177.33" width="11.23" height="9.29"/><rect class="cls-7" x="320.17" y="177.33" width="11.23" height="9.29"/><rect class="cls-5" x="370.72" y="168.04" width="11.23" height="18.58"/><rect class="cls-5" x="383.36" y="168.04" width="11.23" height="18.58"/><rect class="cls-5" x="396" y="168.04" width="11.23" height="18.58"/><path class="cls-10" d="M265.25,238H232.39a32.87,32.87,0,0,1,32.86-32.87h0Z"/><path class="cls-9" d="M247.56,238h17.69V220.33A17.69,17.69,0,0,0,247.56,238Z"/><rect class="cls-5" x="275.02" y="205.15" width="139.31" height="32.86" rx="5.61"/><path class="cls-16" d="M280.63,238H408.71a5.62,5.62,0,0,0,5.61-5.62V221.59H275V232.4A5.62,5.62,0,0,0,280.63,238Z"/><rect class="cls-6" x="332.24" y="155.93" width="24.86" height="131.31" rx="1.61" transform="translate(566.26 -123.09) rotate(90)"/><rect class="cls-1" x="334.24" y="157.93" width="20.86" height="127.31" transform="translate(566.26 -123.09) rotate(90)"/><rect class="cls-10" x="282.25" y="212.3" width="11.23" height="18.58"/><rect class="cls-10" x="294.89" y="212.3" width="11.23" height="18.58"/><rect class="cls-10" x="307.53" y="212.3" width="11.23" height="18.58"/><rect class="cls-10" x="320.17" y="212.3" width="11.23" height="18.58"/><rect class="cls-10" x="332.81" y="212.3" width="11.23" height="18.58"/><rect class="cls-10" x="345.44" y="212.3" width="11.23" height="18.58"/><rect class="cls-10" x="358.08" y="212.3" width="11.23" height="18.58"/><rect class="cls-9" x="282.25" y="221.59" width="11.23" height="9.29"/><rect class="cls-9" x="294.89" y="221.59" width="11.23" height="9.29"/><rect class="cls-9" x="307.53" y="221.59" width="11.23" height="9.29"/><rect class="cls-9" x="320.17" y="221.59" width="11.23" height="9.29"/><rect class="cls-9" x="332.81" y="221.59" width="11.23" height="9.29"/><rect class="cls-9" x="345.44" y="221.59" width="11.23" height="9.29"/><rect class="cls-9" x="358.08" y="221.59" width="11.23" height="9.29"/><rect class="cls-10" x="370.72" y="212.3" width="11.23" height="18.58"/><rect class="cls-9" x="370.72" y="221.58" width="11.23" height="9.3"/><rect class="cls-5" x="383.36" y="212.3" width="11.23" height="18.58"/><rect class="cls-5" x="396" y="212.3" width="11.23" height="18.58"/><path class="cls-12" d="M265.25,282.28H232.39a32.86,32.86,0,0,1,32.86-32.86h0Z"/><path class="cls-11" d="M247.56,282.28h17.69V264.59A17.69,17.69,0,0,0,247.56,282.28Z"/><rect class="cls-5" x="275.02" y="249.42" width="139.31" height="32.86" rx="5.61"/><path class="cls-16" d="M280.63,282.28H408.71a5.61,5.61,0,0,0,5.61-5.61V265.86H275v10.81A5.61,5.61,0,0,0,280.63,282.28Z"/><rect class="cls-6" x="332.24" y="200.2" width="24.86" height="131.31" rx="1.61" transform="translate(610.52 -78.82) rotate(90)"/><rect class="cls-1" x="334.24" y="202.2" width="20.86" height="127.31" transform="translate(610.52 -78.82) rotate(90)"/><rect class="cls-12" x="282.25" y="256.57" width="11.23" height="18.58"/><rect class="cls-12" x="294.89" y="256.57" width="11.23" height="18.58"/><rect class="cls-12" x="307.53" y="256.57" width="11.23" height="18.58"/><rect class="cls-12" x="320.17" y="256.57" width="11.23" height="18.58"/><rect class="cls-12" x="332.81" y="256.57" width="11.23" height="18.58"/><rect class="cls-5" x="345.44" y="256.57" width="11.23" height="18.58"/><rect class="cls-5" x="358.08" y="256.57" width="11.23" height="18.58"/><rect class="cls-11" x="282.25" y="265.86" width="11.23" height="9.29"/><rect class="cls-11" x="294.89" y="265.86" width="11.23" height="9.29"/><rect class="cls-11" x="307.53" y="265.86" width="11.23" height="9.29"/><rect class="cls-11" x="320.17" y="265.86" width="11.23" height="9.29"/><rect class="cls-11" x="332.81" y="265.86" width="11.23" height="9.29"/><rect class="cls-5" x="370.72" y="256.57" width="11.23" height="18.58"/><rect class="cls-5" x="383.36" y="256.57" width="11.23" height="18.58"/><rect class="cls-5" x="396" y="256.57" width="11.23" height="18.58"/><line class="cls-17" x1="24.19" y1="34.37" x2="24.19" y2="386.77"/><polygon class="cls-12" points="24.19 20.09 12.57 38.32 24.19 38.32 35.8 38.32 24.19 20.09"/><polygon class="cls-12" points="24.19 395.75 35.8 377.53 24.19 377.53 12.57 377.53 24.19 395.75"/><circle class="cls-8" cx="24.19" cy="210.32" r="24.19" transform="matrix(1, -0.02, 0.02, 1, -5.22, 0.67)"/><path class="cls-7" d="M0,210.32a24.19,24.19,0,0,0,24.19,24.19V186.14A24.18,24.18,0,0,0,0,210.32Z"/><polyline class="cls-18" points="12.58 210.14 20.38 217.94 37.88 200.44"/><path class="cls-11" d="M398,421.72H267.59a10.7,10.7,0,0,1-10.65-9.54l-6.65-70.38a10.71,10.71,0,0,1,10.65-11.87H404.68a10.71,10.71,0,0,1,10.64,11.87l-6.65,70.38A10.7,10.7,0,0,1,398,421.72Z"/><path class="cls-12" d="M398,411.76H267.59a10.7,10.7,0,0,1-10.65-9.54l-6.65-70.38A10.71,10.71,0,0,1,260.94,320H404.68a10.71,10.71,0,0,1,10.64,11.87l-6.65,70.38A10.7,10.7,0,0,1,398,411.76Z"/><circle class="cls-12" cx="332.81" cy="332.99" r="38.1" transform="translate(-131.95 257.85) rotate(-35.83)"/><path class="cls-11" d="M363.85,333c0,17.15-13.9,16.71-31,16.71s-31.05.44-31.05-16.71a31,31,0,0,1,62.09,0Z"/><path class="cls-5" d="M330.3,345.7c-8,0-14.42-.15-18.72-1.93-2.88-1.2-5.82-3.42-5.82-10.78a27,27,0,0,1,54.09,0c0,11.61-6.73,12.71-24.53,12.71Z"/><path class="cls-6" d="M330.3,343.7c-7.75,0-14-.13-17.95-1.78-2.22-.92-4.59-2.45-4.59-8.93a25,25,0,0,1,50.09,0c0,9.11-3.37,10.71-22.53,10.71Z"/><path class="cls-3" d="M335.82,339.09a4.71,4.71,0,1,1-6.28-7c1.93-1.74,14.17-6.38,14.17-6.38S337.76,337.35,335.82,339.09Z"/><rect class="cls-19" x="266.98" y="355.6" width="131.65" height="47.32" rx="14.69"/><path class="cls-20" d="M167.73,194.85c.46,4.62.78,8.57.82,11-12.88,2.73-33.84,25-33.84,25h-1.88s-21-22.31-33.85-25c0-2.45.37-6.4.83-11,3.41,1.24,12.06,2.92,33.95,2.92S164.32,196.09,167.73,194.85Z"/><path class="cls-20" d="M145.84,65.38c-7.7,11.73-25.63,7.76-25.63,7.76L122,63.65a40.83,40.83,0,0,0,7.2,6.95,9.58,9.58,0,0,0,8.72,0,40.9,40.9,0,0,0,7.5-7.32Z"/><path class="cls-21" d="M119.14,55.11a1.94,1.94,0,0,1-1.77-.16,9,9,0,0,1-2.73-6.24c0-2,.25-3.07.75-3.57a1.12,1.12,0,0,1,1.06-.32c1.1.19,2.11,2.32,2.11,2.32C118.66,49.18,118.86,52.34,119.14,55.11Z"/><path class="cls-21" d="M151.71,45.07c.53.47.85,1.58.81,3.64A9,9,0,0,1,149.79,55a1.92,1.92,0,0,1-1.76.16c.27-2.78.47-6,.58-8h0c.12-.23,1.07-2.11,2.1-2.29A1.15,1.15,0,0,1,151.71,45.07Z"/><path class="cls-21" d="M122,63.65a11.55,11.55,0,0,1-2.17-3.72,35.32,35.32,0,0,1-.71-4.82c-.28-2.77-.48-5.93-.58-8-.07-1.31-.11-2.17-.11-2.17a35.8,35.8,0,0,1,1.4-8.62c1.37-4.78,4.16-6,5.73-5.83s3.32,1.14,8,1.14,6.43-.94,8-1.14,4.37,1.05,5.73,5.83a35.21,35.21,0,0,1,1.4,8.62s0,.84-.1,2.14h0c-.11,2-.31,5.21-.58,8a36.69,36.69,0,0,1-.72,4.82,10.46,10.46,0,0,1-1.87,3.35,40.9,40.9,0,0,1-7.5,7.32,9.58,9.58,0,0,1-8.72,0A40.83,40.83,0,0,1,122,63.65Z"/><path class="cls-21" d="M197,212.08a30.58,30.58,0,0,1-.74,4.52s.3,14,.37,16.71-3.39,6.63-3.39,6.63a68.74,68.74,0,0,1-1.62,7c-.57,1.32-7,5.73-7.63,6.15s-1.46-1.24-1.46-1.24l-2.26,2.21s-2.54-.35-1.13-4a35.13,35.13,0,0,1,5-7.85l1-9.54a40.48,40.48,0,0,0-4.35,7.22c-1.18,3-2.34,4.75-2.87,4.75s-2.12-.77-1.86-3.9,3.1-9.37,3.1-9.37a41.62,41.62,0,0,1,1-9.38c1-3.62,5.53-9.88,5.53-9.88s-9.47-28.72-11.58-35.19-1.66-19-1.66-19l-5.72-25-3.62,24.55s3.07,22.21,4.6,37.3c-3.41,1.24-12.07,2.92-34,2.92s-30.54-1.68-33.95-2.92c1.53-15.09,4.59-37.3,4.59-37.3L100.79,133l-5.73,25s.45,12.5-1.65,19-11.58,35.19-11.58,35.19,4.48,6.26,5.53,9.88a41.62,41.62,0,0,1,1,9.38s2.85,6.24,3.1,9.37-1.32,3.9-1.86,3.9S87.93,243,86.74,240a39.86,39.86,0,0,0-4.35-7.22l1,9.54a35.52,35.52,0,0,1,5,7.85c1.41,3.61-1.13,4-1.13,4L85,251.88s-.85,1.67-1.47,1.24-7.06-4.83-7.63-6.15a68.17,68.17,0,0,1-1.61-7s-3.47-3.95-3.39-6.63.37-16.71.37-16.71a30.21,30.21,0,0,1-.75-4.52c0-1.36,3.31-32.53,3.16-36.6s3.92-17.93,3.92-17.93,4-52.36,5.19-59.86,7.61-13.11,13.33-14.84,24.1-9.71,24.1-9.71,17.93,4,25.63-7.76l1.48,7.76s18.37,8,24.1,9.71,12.09,7.35,13.33,14.84,5.19,59.86,5.19,59.86,4.08,13.86,3.92,17.93S197,210.72,197,212.08Z"/><path class="cls-21" d="M132.83,230.91l-11.71,68.68s.67,13.4-.91,23.79-10.24,53-10.24,53a50.67,50.67,0,0,1,.49,6s2.21,9.59,1.92,11.57-8.47,3.9-8.47,3.9c-1.44,1.8-6.38,4.35-6.38,4.35a12.18,12.18,0,0,1-6.84,2.2c-3.67-.14-11.94-.57-13.1-1.64s-2-1.5-2-3.11,8.5-6.24,9.72-7.56,11-12.48,11-12.48-.86-64.05-1.09-68.46,1.09-17.62,1.09-17.62c-2.75-20.33,2.6-77.41,2.67-87.36,0-.1,0-.22,0-.33C111.86,208.6,132.83,230.91,132.83,230.91Z"/><path class="cls-21" d="M182.21,392.12c1.21,1.32,9.74,6,9.71,7.56s-.81,2-2,3.11-9.42,1.5-13.1,1.64a12.17,12.17,0,0,1-6.83-2.2s-4.94-2.55-6.38-4.35c0,0-8.19-1.93-8.48-3.9s1.92-11.57,1.92-11.57a51.4,51.4,0,0,1,.5-6s-8.67-42.62-10.25-53-.9-23.79-.9-23.79l-11.71-68.68s21-22.31,33.84-25c0,.11,0,.23,0,.33.08,10,5.42,67,2.67,87.36,0,0,1.32,13.22,1.1,17.62s-1.1,68.46-1.1,68.46S181,390.79,182.21,392.12Z"/><path class="cls-22" d="M119,23.28a13,13,0,0,1,1.82-5A3.83,3.83,0,0,1,123,16.39a5.34,5.34,0,0,1,2.54.37,32.64,32.64,0,0,0,8.94.8,24.14,24.14,0,0,1,8.88,1.25c2.72,1.11,5.15,3.39,5.69,6.28A3.46,3.46,0,0,1,151,26.54a8.1,8.1,0,0,1,.94,4.1c.2,4.8,0,9.63-.22,14.43a1.15,1.15,0,0,0-1-.25c-1,.18-2,2.06-2.1,2.29.07-1.3.1-2.14.1-2.14a35.21,35.21,0,0,0-1.4-8.62c-1.36-4.78-4.16-6-5.73-5.83s-3.31,1.14-8,1.14-6.43-.94-8-1.14-4.36,1.05-5.73,5.83a35.8,35.8,0,0,0-1.4,8.62s0,.86.11,2.17c0,0-1-2.13-2.11-2.32a1.12,1.12,0,0,0-1.06.32,98.21,98.21,0,0,1-.45-12.83,16.23,16.23,0,0,1,1-5.4A7.18,7.18,0,0,1,119,23.28Z"/><path class="cls-20" d="M104.4,158.14a.59.59,0,0,1-.58-.49l-5.4-32.79-5.77-12a.59.59,0,1,1,1.06-.5l5.8,12.08a.75.75,0,0,1,0,.16L105,157.46a.58.58,0,0,1-.48.67Z"/><path class="cls-20" d="M114.41,138.49a.61.61,0,0,1-.54-.36.6.6,0,0,1,.32-.77c.56-.24,14-5.84,19.64-5.24s20.24,4.09,20.86,4.23a.59.59,0,0,1,.43.71.58.58,0,0,1-.7.43c-.16,0-15.24-3.61-20.71-4.2s-18.93,5.1-19.07,5.15A.59.59,0,0,1,114.41,138.49Z"/><path class="cls-20" d="M74.28,240.53a.59.59,0,0,1-.58-.48l-.91-5.2a.59.59,0,0,1,.48-.68.58.58,0,0,1,.68.48l.9,5.19a.58.58,0,0,1-.47.68Z"/><path class="cls-20" d="M85,252.47a.62.62,0,0,1-.4-.15c-.58-.53-5.68-5.15-6.46-6.51s-2.3-10-2.47-11a.58.58,0,1,1,1.15-.2c.63,3.61,1.83,9.68,2.34,10.57s4,4.22,6.23,6.23a.57.57,0,0,1,0,.82A.57.57,0,0,1,85,252.47Z"/><path class="cls-20" d="M102.16,298.8a6.74,6.74,0,0,1-5.8-3.37.59.59,0,0,1,.24-.8.58.58,0,0,1,.79.23,5.46,5.46,0,0,0,5.67,2.68.59.59,0,1,1,.22,1.16A6.06,6.06,0,0,1,102.16,298.8Z"/><path class="cls-20" d="M87.59,404.81a.43.43,0,0,1-.19,0A2.26,2.26,0,0,1,86,403.15a4.17,4.17,0,0,1,2.4-5,.59.59,0,1,1,.45,1.08,3,3,0,0,0-1.72,3.62,1.24,1.24,0,0,0,.61.84.59.59,0,0,1,.37.74A.6.6,0,0,1,87.59,404.81Z"/><path class="cls-20" d="M83.35,404.32h0a1.52,1.52,0,0,1-1.16-.83A3.34,3.34,0,0,1,83,399a.58.58,0,0,1,.82.12.59.59,0,0,1-.12.82,2.23,2.23,0,0,0-.86,1.34,2.28,2.28,0,0,0,.28,1.57c.12.19.22.25.24.25a.6.6,0,0,1,.55.63A.59.59,0,0,1,83.35,404.32Z"/><path class="cls-20" d="M80.53,403.89h0a1.09,1.09,0,0,1-.85-.47,1.92,1.92,0,0,1-.28-.64,4.45,4.45,0,0,1,.6-3.5.59.59,0,0,1,1,.66,3.19,3.19,0,0,0-.44,2.55,1,1,0,0,0,.09.24.55.55,0,0,1,.53.6A.59.59,0,0,1,80.53,403.89Z"/><path class="cls-20" d="M77.92,403.46a.59.59,0,0,1-.44-.19,3.36,3.36,0,0,1,.63-5,.59.59,0,0,1,.65,1,2.2,2.2,0,0,0-.41,3.28.59.59,0,0,1,0,.83A.58.58,0,0,1,77.92,403.46Z"/><path class="cls-20" d="M107.1,381.74a.57.57,0,0,1-.36-.13,9.31,9.31,0,0,1-2.09-2.29.59.59,0,0,1,.18-.81.58.58,0,0,1,.81.17,8.12,8.12,0,0,0,1.82,2,.58.58,0,0,1,.1.82A.56.56,0,0,1,107.1,381.74Z"/><path class="cls-20" d="M113.58,124.07c0,1-1.23,1.89-2.74,1.89s-2.74-.85-2.74-1.89,1.22-1.9,2.74-1.9S113.58,123,113.58,124.07Z"/><path class="cls-20" d="M159.44,124.07c0,1-1.23,1.89-2.74,1.89s-2.74-.85-2.74-1.89,1.23-1.9,2.74-1.9S159.44,123,159.44,124.07Z"/><path class="cls-20" d="M134,176.65a.62.62,0,0,1-.38-.14,13.77,13.77,0,0,1-2.55-2.89.59.59,0,0,1,1-.65,12.81,12.81,0,0,0,2.33,2.65.58.58,0,0,1,.07.82A.58.58,0,0,1,134,176.65Z"/><path class="cls-20" d="M163.13,158.14h-.07a.6.6,0,0,1-.51-.66L167,124.6a.48.48,0,0,1,.05-.17l5.8-12.08a.59.59,0,0,1,.79-.28.58.58,0,0,1,.27.78l-5.76,12-4.41,32.78A.59.59,0,0,1,163.13,158.14Z"/><path class="cls-20" d="M192.27,240.53h-.1a.58.58,0,0,1-.48-.68l.9-5.19a.58.58,0,0,1,.68-.48.59.59,0,0,1,.48.68l-.91,5.2A.58.58,0,0,1,192.27,240.53Z"/><path class="cls-20" d="M181.55,252.47a.57.57,0,0,1-.43-.2.57.57,0,0,1,0-.82c2.22-2,5.71-5.32,6.23-6.23s1.71-7,2.34-10.57a.59.59,0,0,1,.68-.48.6.6,0,0,1,.48.68c-.18,1-1.7,9.59-2.48,11s-5.88,6-6.46,6.51A.6.6,0,0,1,181.55,252.47Z"/><path class="cls-20" d="M164.39,298.8a6.09,6.09,0,0,1-1.13-.1.59.59,0,1,1,.22-1.16,5.46,5.46,0,0,0,5.67-2.68.59.59,0,0,1,.8-.23.6.6,0,0,1,.23.8A6.72,6.72,0,0,1,164.39,298.8Z"/><path class="cls-20" d="M179,404.81a.59.59,0,0,1-.19-1.14,1.21,1.21,0,0,0,.61-.84,3,3,0,0,0-1.72-3.62.59.59,0,1,1,.45-1.08,4.17,4.17,0,0,1,2.4,5,2.26,2.26,0,0,1-1.36,1.62A.43.43,0,0,1,179,404.81Z"/><path class="cls-20" d="M183.19,404.32a.59.59,0,0,1-.59-.55.61.61,0,0,1,.55-.63s.13-.06.24-.25a2.28,2.28,0,0,0,.28-1.57,2.23,2.23,0,0,0-.86-1.34.59.59,0,0,1-.12-.82.58.58,0,0,1,.82-.12,3.34,3.34,0,0,1,.88,4.45,1.51,1.51,0,0,1-1.16.83Z"/><path class="cls-20" d="M186,403.89a.58.58,0,0,1-.59-.56.59.59,0,0,1,.51-.6.59.59,0,0,0,.09-.24,3.19,3.19,0,0,0-.44-2.55.59.59,0,0,1,1-.66,4.41,4.41,0,0,1,.6,3.5,1.92,1.92,0,0,1-.28.64,1.09,1.09,0,0,1-.85.47Z"/><path class="cls-20" d="M188.62,403.46a.58.58,0,0,1-.39-.15.59.59,0,0,1,0-.83,2.18,2.18,0,0,0-.41-3.28.58.58,0,0,1-.16-.81.59.59,0,0,1,.81-.17,3.36,3.36,0,0,1,.63,5A.59.59,0,0,1,188.62,403.46Z"/><path class="cls-20" d="M159.44,381.74a.56.56,0,0,1-.46-.23.58.58,0,0,1,.1-.82,8.12,8.12,0,0,0,1.82-2,.58.58,0,0,1,.81-.17.59.59,0,0,1,.18.81,9.31,9.31,0,0,1-2.09,2.29A.55.55,0,0,1,159.44,381.74Z"/><path class="cls-20" d="M134.91,56.19c0,.15-.16.26-.35.24-1-.11-3.82-.49-4.06-1.55s2.11-5.35,3.18-7.27c.12-.22.57-.16.59.08Z"/><path class="cls-22" d="M130.1,47.69a.58.58,0,0,1-.55-.39S129,46,126.77,46h0c-2.37,0-3.13,1-3.16,1a.6.6,0,0,1-.82.14.59.59,0,0,1-.15-.81c0-.06,1.09-1.54,4.13-1.56h0c3.12,0,3.85,2,3.88,2.07a.58.58,0,0,1-.36.75A.63.63,0,0,1,130.1,47.69Z"/><path class="cls-22" d="M122.51,44.78a.59.59,0,0,1-.37-1,7.35,7.35,0,0,1,7.77-.92.59.59,0,0,1,.27.79.58.58,0,0,1-.78.27,6.14,6.14,0,0,0-6.52.77A.58.58,0,0,1,122.51,44.78Z"/><path class="cls-22" d="M127.73,45.51c.22.06.19.43.19.68a1.33,1.33,0,0,1-2.65,0,1.35,1.35,0,0,1,.17-.66A5.06,5.06,0,0,1,127.73,45.51Z"/><path class="cls-22" d="M137.34,47.66a.48.48,0,0,1-.2,0,.58.58,0,0,1-.36-.73c0-.09.75-2.09,3.9-2.1,3,0,4.1,1.47,4.14,1.53a.59.59,0,1,1-1,.67c-.05-.05-.87-1.05-3.17-1s-2.78,1.26-2.8,1.32A.6.6,0,0,1,137.34,47.66Z"/><path class="cls-22" d="M144.9,44.7a.59.59,0,0,1-.36-.13,6.14,6.14,0,0,0-3.16-1.3,6.21,6.21,0,0,0-3.37.58.58.58,0,0,1-.51-1.05,7.31,7.31,0,0,1,7.77.85.59.59,0,0,1,.09.82A.58.58,0,0,1,144.9,44.7Z"/><path class="cls-22" d="M142,45.48c.18.13.17.42.17.66a1.33,1.33,0,0,1-2.65,0,1.34,1.34,0,0,1,.18-.69S141.43,45.09,142,45.48Z"/><path class="cls-23" d="M128.34,54c.08,1.27-1.43,2.39-3.37,2.52s-3.58-.8-3.66-2.06,1.43-2.38,3.37-2.51S128.26,52.72,128.34,54Z"/><path class="cls-23" d="M145.72,53.16c.08,1.26-1.43,2.38-3.37,2.51s-3.58-.79-3.66-2.06,1.42-2.38,3.36-2.51S145.63,51.9,145.72,53.16Z"/><path class="cls-20" d="M118.31,54.18a.6.6,0,0,1-.57-.43,19.48,19.48,0,0,0-2.13-4.91.59.59,0,0,1,.19-.81.59.59,0,0,1,.81.2,20.55,20.55,0,0,1,2.26,5.2.58.58,0,0,1-.4.72Z"/><path class="cls-20" d="M149.28,53.94l-.14,0a.58.58,0,0,1-.43-.71,18.37,18.37,0,0,1,2.22-5.36.59.59,0,0,1,1,.61,17.6,17.6,0,0,0-2.08,5A.59.59,0,0,1,149.28,53.94Z"/><path class="cls-22" d="M133.73,61.35a8.43,8.43,0,0,1-1.83-.18.58.58,0,0,1-.44-.7.57.57,0,0,1,.7-.44s4,.86,6.22-1.78a.59.59,0,1,1,.9.75A7.06,7.06,0,0,1,133.73,61.35Z"/></g></g></svg>