<svg xmlns="http://www.w3.org/2000/svg" viewBox="0 0 112.38 327.65"><defs><style>.cls-1{fill:#e79e73;}.cls-2{fill:#e06a43;}.cls-3{fill:#2b3448;}.cls-4{fill:#df895d;}</style></defs><g id="Layer_2" data-name="Layer 2"><g id="OBJECTS"><path class="cls-1" d="M112.38,154.25v17.4c0,1.44-2.39,5.39-2.39,5.39s-.21,3.48-1.08,4.37-7.31,5.91-7.31,5.91-2.45-1.73-.65-4a46.08,46.08,0,0,0,3.92-6.55l-1.74-11S99.57,172,98,173.38s-4,.32-4,.32,3.25-7.77,4-9.3,1.32-8.51,3.53-9.26c0,0-10.57-36-10.86-38.26a42.34,42.34,0,0,1-.25-4.82l-3.92-9.18-.39,11a82.74,82.74,0,0,1,5.08,17.34c.45,2.68.89,8.05,1.24,14.69-4.11,3.57-15.55,11.51-36.24,11.51S24.06,149.52,19.94,146c.36-6.64.81-12,1.25-14.69a82.74,82.74,0,0,1,5.08-17.34l-.39-11L22,112.06a39.85,39.85,0,0,1-.25,4.82c-.3,2.3-10.86,38.26-10.86,38.26,2.22.75,2.8,7.71,3.54,9.26s4,9.3,4,9.3-2.4,1.1-4-.32-5.15-7.57-5.15-7.57l-1.73,11a46.08,46.08,0,0,0,3.92,6.55c1.8,2.25-.64,4-.64,4s-6.45-5-7.32-5.91S2.38,177,2.38,177,0,173.09,0,171.65v-17.4c0-.26,2.89-29.09,3.47-34.87a27.71,27.71,0,0,1,2.63-9.57S8.16,93.08,11.17,77,18.5,56.54,22.92,54.2,45.59,46,45.59,46s14.94,1.43,20.46-6.82L66.79,46S85,51.85,89.45,54.2,98.19,60.91,101.21,77s5.07,32.82,5.07,32.82a27.71,27.71,0,0,1,2.63,9.57C109.49,125.16,112.38,154,112.38,154.25Z"/><path class="cls-2" d="M59.53,42.81A36,36,0,0,0,65.81,37l.41,3.79C60.7,49,45.59,46,45.59,46l.87-8a34.24,34.24,0,0,0,5.36,4.78,8.79,8.79,0,0,0,7.71,0Z"/><path class="cls-1" d="M69,22.8c-.09,1.74-.27,4.43-.51,6.8,0,0,.28,15.08-12.76,14.1a12.12,12.12,0,0,1-2.83-.45C42.67,40.74,42.91,29.6,42.91,29.6c-.24-2.37-.42-5.06-.51-6.8-.06-1.12-.09-1.84-.09-1.84a29.35,29.35,0,0,1,1.23-7.36c1.21-4.08,3.68-5.14,5.07-5s2.93,1,7.07,1,5.68-.81,7.06-1,3.86.89,5.07,5A29.35,29.35,0,0,1,69,21S69,21.68,69,22.8Z"/><path class="cls-2" d="M92.43,146c.14,2.56.26,5.31.36,8.18-12.33.65-36.09,23-36.09,23h-1s-23.75-22.32-36.09-23c.1-2.87.22-5.62.35-8.18,4.12,3.57,15.56,11.51,36.25,11.51S88.32,149.52,92.43,146Z"/><path class="cls-1" d="M97.35,323.39A2.67,2.67,0,0,1,95.43,326c-1.54.61-8.42,1-10.47,1.29s-6.55-1.39-9.12-4c0,0-4.75,0-6.29-1.54s1.15-10.4,1.15-10.4-3.33-19.62-3.91-24-3.19-42.38-3-48.06l-7.1-62.26s23.76-22.33,36.09-23c.23,6.3.35,13.12.32,19.57,0,9.23-.41,17.72-1.28,22.9C89.38,211.34,84.89,235,84.89,235s3.22,20,2.89,31.34-4.23,43.8-4.23,43.8S89,317.39,92,319.28,97.35,322.43,97.35,323.39Z"/><path class="cls-1" d="M55.68,177.11l-7.1,62.26c.19,5.68-2.4,43.73-3,48.06s-3.91,24-3.91,24,2.69,8.86,1.16,10.4-6.3,1.54-6.3,1.54c-2.57,2.6-7.07,4.24-9.12,4S18.5,326.64,17,326A2.68,2.68,0,0,1,15,323.39c0-1,2.32-2.21,5.34-4.11s8.48-9.11,8.48-9.11-3.93-32.43-4.25-43.8S27.48,235,27.48,235,23,211.34,20.55,196.6c-.87-5.18-1.24-13.67-1.28-22.9,0-6.46.1-13.27.32-19.57C31.93,154.79,55.68,177.11,55.68,177.11Z"/><path class="cls-1" d="M41.35,29.46a7.57,7.57,0,0,1-2.41-5.32c0-2.69.63-3.47,1.6-3.31s1.86,2,1.86,2c.1,1.74.27,4.44.51,6.81A1.76,1.76,0,0,1,41.35,29.46Z"/><path class="cls-1" d="M70,29.46a1.76,1.76,0,0,1-1.56.15c.24-2.37.42-5.07.51-6.81,0,0,.89-1.81,1.86-2s1.65.62,1.6,3.31A7.53,7.53,0,0,1,70,29.46Z"/><path class="cls-3" d="M55.82,0c17.26,0,15,20.83,15,20.83-1,.16-1.86,2-1.86,2C69,21.68,69,21,69,21a29.41,29.41,0,0,0-1.23-7.36c-1.21-4.08-3.68-5.14-5.06-5s-2.94,1-7.07,1-5.69-.81-7.07-1-3.86.89-5.07,5A29.41,29.41,0,0,0,42.31,21s0,.72.09,1.84c0,0-.89-1.81-1.86-2C40.54,20.83,38.56,0,55.82,0Z"/><path class="cls-2" d="M25.88,103.38a.51.51,0,0,1-.5-.47c-.07-1-1.67-25.37-1.67-27a.5.5,0,0,1,1,0c0,1.61,1.65,26.69,1.67,26.94a.51.51,0,0,1-.47.54Z"/><path class="cls-2" d="M25,89.31a.52.52,0,0,1-.42-.22A51.84,51.84,0,0,1,21.05,82a.5.5,0,0,1,.93-.38,50.84,50.84,0,0,0,3.4,6.93.5.5,0,0,1-.13.7A.51.51,0,0,1,25,89.31Z"/><path class="cls-2" d="M40.48,95.12c-7.37,0-11.67-2.92-11.93-3.11a.5.5,0,0,1-.13-.69.51.51,0,0,1,.7-.13c.09.07,9.13,6.18,23.42.43a.5.5,0,0,1,.65.28.5.5,0,0,1-.28.65A33.29,33.29,0,0,1,40.48,95.12Z"/><path class="cls-2" d="M40.78,88.81c0,.89-1.05,1.61-2.34,1.61s-2.33-.72-2.33-1.61,1-1.62,2.33-1.62S40.78,87.91,40.78,88.81Z"/><path class="cls-2" d="M3.08,181.27a.49.49,0,0,1-.47-.34,26.28,26.28,0,0,1-.72-3.83l-.33-5A.5.5,0,0,1,2,171.6a.49.49,0,0,1,.53.47L2.88,177h0a26.27,26.27,0,0,0,.68,3.6.52.52,0,0,1-.32.64Z"/><path class="cls-2" d="M55.31,135a.5.5,0,0,1-.49-.38.51.51,0,0,1,.37-.61,9.29,9.29,0,0,0,3.66-1.86.49.49,0,0,1,.7.06.51.51,0,0,1-.06.71A10.23,10.23,0,0,1,55.43,135Z"/><path class="cls-2" d="M36.84,238.89a8.09,8.09,0,0,1-6-2.63.5.5,0,0,1,.75-.67,7,7,0,0,0,6.22,2.22.51.51,0,0,1,.58.41.51.51,0,0,1-.42.57A6.72,6.72,0,0,1,36.84,238.89Z"/><path class="cls-2" d="M38.47,315.3a.5.5,0,0,1-.33-.88,5.34,5.34,0,0,0,1.76-3.17.5.5,0,0,1,.57-.42.49.49,0,0,1,.41.57,6.38,6.38,0,0,1-2.08,3.78A.5.5,0,0,1,38.47,315.3Z"/><path class="cls-2" d="M26.92,327.56a.43.43,0,0,1-.25-.07,2.59,2.59,0,0,1-1.18-2,1.61,1.61,0,0,1,.23-1.15,1.66,1.66,0,0,1,.73-.53l1.83-.85a.51.51,0,0,1,.66.25.49.49,0,0,1-.24.66l-1.83.85a1,1,0,0,0-.34.2.61.61,0,0,0,0,.44,1.63,1.63,0,0,0,.68,1.25.5.5,0,0,1-.25.93Z"/><path class="cls-2" d="M23.35,327.37a.51.51,0,0,1-.44-.25,3.25,3.25,0,0,1-.59-2.4,2.38,2.38,0,0,1,1.09-1.38,5.93,5.93,0,0,1,1.43-.59.51.51,0,0,1,.63.33.51.51,0,0,1-.33.63,4.71,4.71,0,0,0-1.2.48,1.41,1.41,0,0,0-.65.78,2.46,2.46,0,0,0,.49,1.66.5.5,0,0,1-.19.68A.5.5,0,0,1,23.35,327.37Z"/><path class="cls-2" d="M20.8,326.91a.5.5,0,0,1-.39-.18,4.68,4.68,0,0,1-.94-1.49,2,2,0,0,1,.31-2,2.83,2.83,0,0,1,.83-.56l1.53-.76a.5.5,0,0,1,.44.9l-1.52.76a1.78,1.78,0,0,0-.54.34,1,1,0,0,0-.11,1,4.31,4.31,0,0,0,.77,1.17.49.49,0,0,1-.07.7A.47.47,0,0,1,20.8,326.91Z"/><path class="cls-2" d="M17.51,326.81a.5.5,0,0,1-.45-.27,6.48,6.48,0,0,1-.56-1.41,2.64,2.64,0,0,1,.12-1.68,2.71,2.71,0,0,1,1.18-1.22,6.75,6.75,0,0,1,1.41-.53.5.5,0,1,1,.29.95,6.45,6.45,0,0,0-1.21.46,1.66,1.66,0,0,0-.76.75,1.75,1.75,0,0,0-.06,1.05,5.55,5.55,0,0,0,.48,1.17.49.49,0,0,1-.22.67A.46.46,0,0,1,17.51,326.81Z"/><path class="cls-2" d="M86.31,103.47h0a.5.5,0,0,1-.46-.54c0-.25,1.66-25.33,1.66-26.94a.51.51,0,0,1,.5-.5.5.5,0,0,1,.5.5c0,1.64-1.6,26-1.66,27A.51.51,0,0,1,86.31,103.47Z"/><path class="cls-2" d="M87.22,89.4a.47.47,0,0,1-.28-.09.51.51,0,0,1-.14-.7,51.31,51.31,0,0,0,3.41-6.93.49.49,0,0,1,.65-.27.49.49,0,0,1,.27.65,51.21,51.21,0,0,1-3.5,7.12A.5.5,0,0,1,87.22,89.4Z"/><path class="cls-2" d="M71.71,95.21a33.37,33.37,0,0,1-12.44-2.57.5.5,0,0,1,.38-.93c14.28,5.74,23.32-.36,23.41-.43a.51.51,0,0,1,.7.13.5.5,0,0,1-.12.69C83.38,92.29,79.07,95.21,71.71,95.21Z"/><path class="cls-2" d="M109.1,181.36l-.16,0a.49.49,0,0,1-.31-.63,26.71,26.71,0,0,0,.67-3.63l.33-4.91a.51.51,0,0,1,.53-.47.5.5,0,0,1,.47.53l-.33,4.95a29,29,0,0,1-.72,3.85A.5.5,0,0,1,109.1,181.36Z"/><path class="cls-2" d="M56.88,135.13l-.13,0a10.43,10.43,0,0,1-4.06-2.06.51.51,0,0,1-.06-.71.49.49,0,0,1,.7-.06A9.26,9.26,0,0,0,57,134.14a.5.5,0,0,1,.36.61A.51.51,0,0,1,56.88,135.13Z"/><path class="cls-2" d="M75.35,239a6.75,6.75,0,0,1-1.19-.1.5.5,0,0,1-.41-.57.5.5,0,0,1,.57-.41,7.05,7.05,0,0,0,6.23-2.22.5.5,0,0,1,.7,0,.5.5,0,0,1,0,.71A8.08,8.08,0,0,1,75.35,239Z"/><path class="cls-2" d="M73.71,315.39a.54.54,0,0,1-.33-.12,6.38,6.38,0,0,1-2.08-3.78.5.5,0,0,1,1-.15A5.32,5.32,0,0,0,74,314.51a.51.51,0,0,1,0,.71A.52.52,0,0,1,73.71,315.39Z"/><path class="cls-2" d="M85.27,327.65a.5.5,0,0,1-.43-.25.51.51,0,0,1,.18-.69,1.65,1.65,0,0,0,.68-1.24.73.73,0,0,0,0-.44,1.17,1.17,0,0,0-.34-.2L83.49,324a.51.51,0,0,1-.25-.66.52.52,0,0,1,.67-.25l1.83.85a1.72,1.72,0,0,1,.73.53,1.55,1.55,0,0,1,.22,1.15,2.58,2.58,0,0,1-1.17,2A.47.47,0,0,1,85.27,327.65Z"/><path class="cls-2" d="M88.84,327.46a.54.54,0,0,1-.25-.06.5.5,0,0,1-.19-.68,2.49,2.49,0,0,0,.49-1.66,1.41,1.41,0,0,0-.65-.78,4.79,4.79,0,0,0-1.19-.48.5.5,0,0,1-.33-.63.49.49,0,0,1,.62-.33,5.93,5.93,0,0,1,1.43.59,2.38,2.38,0,0,1,1.09,1.38,3.36,3.36,0,0,1-.59,2.4A.5.5,0,0,1,88.84,327.46Z"/><path class="cls-2" d="M91.39,327a.49.49,0,0,1-.32-.12.5.5,0,0,1-.07-.7,3.81,3.81,0,0,0,.77-1.18,1,1,0,0,0-.11-1,1.73,1.73,0,0,0-.53-.34l-1.53-.76a.49.49,0,0,1-.22-.67.5.5,0,0,1,.67-.23l1.52.76a2.76,2.76,0,0,1,.83.56,2,2,0,0,1,.32,2,5,5,0,0,1-1,1.49A.49.49,0,0,1,91.39,327Z"/><path class="cls-2" d="M94.68,326.9a.46.46,0,0,1-.23-.06.5.5,0,0,1-.22-.67,5.15,5.15,0,0,0,.48-1.17,1.67,1.67,0,0,0-.06-1.05,1.69,1.69,0,0,0-.75-.75,6.3,6.3,0,0,0-1.22-.46.5.5,0,0,1-.33-.62.49.49,0,0,1,.62-.33,6.55,6.55,0,0,1,1.41.53,2.5,2.5,0,0,1,1.31,2.9,6.2,6.2,0,0,1-.57,1.41A.49.49,0,0,1,94.68,326.9Z"/><path class="cls-2" d="M76.44,88.81c0,.89-1,1.61-2.33,1.61s-2.34-.72-2.34-1.61,1-1.62,2.34-1.62S76.44,87.91,76.44,88.81Z"/><path class="cls-2" d="M56.52,30.57c0,.13-.13.23-.3.21-.88-.09-3.32-.43-3.53-1.35s1.83-4.66,2.76-6.33c.11-.2.5-.15.52.06Z"/><path class="cls-3" d="M52.34,23.15a.52.52,0,0,1-.48-.33s-.45-1.12-2.43-1.12h0c-2.07,0-2.74.88-2.77.92a.5.5,0,0,1-.82-.57c0-.05.94-1.34,3.59-1.35s3.37,1.71,3.4,1.79a.51.51,0,0,1-.31.64A.44.44,0,0,1,52.34,23.15Z"/><path class="cls-3" d="M45.73,20.62a.51.51,0,0,1-.39-.19.49.49,0,0,1,.07-.7,6.45,6.45,0,0,1,3.26-1.37,6.36,6.36,0,0,1,3.49.58.49.49,0,0,1,.24.66.5.5,0,0,1-.67.24,5.42,5.42,0,0,0-2.94-.49A5.49,5.49,0,0,0,46,20.51.51.51,0,0,1,45.73,20.62Z"/><path class="cls-3" d="M50.27,21.26c.2.06.17.38.17.6a1.16,1.16,0,0,1-2.31,0,1.14,1.14,0,0,1,.15-.58A4.38,4.38,0,0,1,50.27,21.26Z"/><path class="cls-3" d="M58.64,23.13l-.17,0a.5.5,0,0,1-.3-.63c0-.07.65-1.81,3.38-1.82s3.56,1.27,3.6,1.33a.49.49,0,0,1-.13.69.5.5,0,0,1-.69-.12c0-.05-.74-.87-2.77-.9s-2.43,1.1-2.45,1.15A.51.51,0,0,1,58.64,23.13Z"/><path class="cls-3" d="M65.23,20.54a.5.5,0,0,1-.31-.1,5.35,5.35,0,0,0-5.69-.63.5.5,0,1,1-.44-.9,6.43,6.43,0,0,1,3.48-.6,6.53,6.53,0,0,1,3.27,1.34.5.5,0,0,1,.08.71A.48.48,0,0,1,65.23,20.54Z"/><path class="cls-3" d="M62.69,21.24c.16.11.16.36.16.57A1.16,1.16,0,0,1,61.69,23a1.15,1.15,0,0,1-1.16-1.15,1.22,1.22,0,0,1,.16-.6S62.21,20.9,62.69,21.24Z"/><path class="cls-4" d="M50.8,28.65c.07,1.1-1.24,2.08-2.93,2.19s-3.12-.69-3.19-1.79,1.24-2.08,2.93-2.19S50.73,27.55,50.8,28.65Z"/><path class="cls-4" d="M65.94,27.93C66,29,64.7,30,63,30.12s-3.12-.69-3.19-1.79,1.24-2.08,2.93-2.19S65.87,26.83,65.94,27.93Z"/><path class="cls-2" d="M42.06,28.81a.52.52,0,0,1-.48-.37,17,17,0,0,0-1.86-4.28.5.5,0,0,1,.17-.69.49.49,0,0,1,.68.17,18.12,18.12,0,0,1,2,4.53.51.51,0,0,1-.35.62Z"/><path class="cls-2" d="M69,28.59h-.12a.49.49,0,0,1-.36-.6,16.47,16.47,0,0,1,1.93-4.67.5.5,0,1,1,.86.52,15.16,15.16,0,0,0-1.82,4.38A.5.5,0,0,1,69,28.59Z"/><path class="cls-3" d="M55.5,35.05a8.24,8.24,0,0,1-1.59-.15.5.5,0,1,1,.22-1s3.5.76,5.43-1.55a.5.5,0,0,1,.7-.07.51.51,0,0,1,.07.71A6.13,6.13,0,0,1,55.5,35.05Z"/></g></g></svg>