<svg xmlns="http://www.w3.org/2000/svg" viewBox="0 0 107.88 331.27"><defs><style>.cls-1{fill:#e06a43;}.cls-2{fill:#e79e73;}.cls-3{fill:#2b3448;}.cls-4{fill:#df895d;}</style></defs><g id="Layer_2" data-name="Layer 2"><g id="OBJECTS"><path class="cls-1" d="M82.9,152.23c.39,3.94.67,7.31.7,9.39C72.62,164,54.74,183,54.74,183h-1.6s-17.88-19-28.86-21.36c0-2.08.31-5.45.7-9.39,2.91,1.06,10.29,2.49,29,2.49S80,153.29,82.9,152.23Z"/><path class="cls-1" d="M64.24,41.82c-6.57,10-21.86,6.62-21.86,6.62l1.54-8.09a34.9,34.9,0,0,0,6.14,5.92,8.14,8.14,0,0,0,7.44,0A35,35,0,0,0,63.9,40Z"/><path class="cls-2" d="M41.46,33.06a1.62,1.62,0,0,1-1.5-.14,7.6,7.6,0,0,1-2.33-5.31c0-1.68.22-2.62.64-3.05a.94.94,0,0,1,.91-.27c.93.16,1.79,2,1.79,2C41.06,28,41.23,30.7,41.46,33.06Z"/><path class="cls-2" d="M69.24,24.5c.46.4.73,1.35.69,3.11a7.55,7.55,0,0,1-2.33,5.31,1.62,1.62,0,0,1-1.5.14c.24-2.37.4-5.07.5-6.81h0c.1-.2.91-1.8,1.79-1.95A1,1,0,0,1,69.24,24.5Z"/><path class="cls-2" d="M43.92,40.35a10,10,0,0,1-1.85-3.18,32.51,32.51,0,0,1-.61-4.11c-.23-2.36-.4-5.06-.49-6.8-.06-1.11-.09-1.84-.09-1.84a30.26,30.26,0,0,1,1.19-7.35c1.17-4.08,3.55-5.15,4.89-5a26.35,26.35,0,0,0,6.82,1,26.18,26.18,0,0,0,6.82-1c1.34-.17,3.73.9,4.89,5a30.26,30.26,0,0,1,1.19,7.35s0,.72-.08,1.82h0c-.1,1.74-.26,4.44-.5,6.81a30.76,30.76,0,0,1-.61,4.11A9.08,9.08,0,0,1,63.9,40a35,35,0,0,1-6.4,6.24,8.14,8.14,0,0,1-7.44,0A34.9,34.9,0,0,1,43.92,40.35Z"/><path class="cls-2" d="M107.88,166.92a25.44,25.44,0,0,1-.64,3.85s.26,12,.32,14.26-2.89,5.65-2.89,5.65a57.6,57.6,0,0,1-1.38,6c-.48,1.13-6,4.89-6.5,5.25s-1.25-1.06-1.25-1.06l-1.93,1.88s-2.17-.29-1-3.37a30,30,0,0,1,4.23-6.7l.87-8.14A34.33,34.33,0,0,0,94,190.7c-1,2.57-2,4-2.45,4s-1.81-.65-1.59-3.32,2.65-8,2.65-8a35.59,35.59,0,0,1,.86-8c.89-3.09,4.72-8.43,4.72-8.43s-8.07-24.48-9.87-30S87,120.81,87,120.81L82.07,99.49,79,120.42s2.62,18.94,3.92,31.81c-2.91,1.06-10.29,2.49-29,2.49s-26-1.43-29-2.49c1.31-12.87,3.92-31.81,3.92-31.81L25.81,99.49l-4.87,21.32s.38,10.66-1.42,16.18-9.87,30-9.87,30,3.82,5.34,4.72,8.43a35.59,35.59,0,0,1,.86,8s2.43,5.32,2.65,8-1.13,3.32-1.59,3.32-1.44-1.47-2.45-4a34.15,34.15,0,0,0-3.72-6.17l.88,8.14a30,30,0,0,1,4.23,6.7c1.21,3.08-1,3.37-1,3.37l-1.93-1.88s-.72,1.42-1.25,1.06-6-4.12-6.5-5.25a57.6,57.6,0,0,1-1.38-6S.26,187.31.32,185s.32-14.26.32-14.26A25.44,25.44,0,0,1,0,166.92c0-1.16,2.82-27.74,2.7-31.21S6,120.42,6,120.42s3.36-44.65,4.42-51S17,58.2,21.83,56.72s20.55-8.28,20.55-8.28,15.29,3.38,21.86-6.62l1.26,6.62s15.67,6.81,20.55,8.28S96.36,63,97.42,69.38s4.42,51,4.42,51,3.48,11.82,3.35,15.29S107.88,165.76,107.88,166.92Z"/><path class="cls-2" d="M53.14,183l-10,58.56s.58,11.43-.77,20.29-8.73,45.22-8.73,45.22a43.45,43.45,0,0,1,.41,5.12S36,320.35,35.7,322s-7.22,3.32-7.22,3.32c-1.23,1.54-5.44,3.71-5.44,3.71A10.39,10.39,0,0,1,17.21,331c-3.13-.12-10.19-.49-11.17-1.4s-1.67-1.28-1.69-2.65,7.24-5.32,8.28-6.45S22,309.8,22,309.8s-.74-54.61-.93-58.37.93-15,.93-15c-2.34-17.33,2.22-66,2.28-74.49,0-.09,0-.19,0-.29C35.26,164,53.14,183,53.14,183Z"/><path class="cls-2" d="M95.25,320.45c1,1.13,8.31,5.08,8.28,6.45s-.69,1.73-1.69,2.65-8,1.28-11.17,1.4a10.34,10.34,0,0,1-5.82-1.88s-4.22-2.17-5.44-3.71c0,0-7-1.64-7.23-3.32s1.63-9.87,1.63-9.87a42.65,42.65,0,0,1,.43-5.12s-7.39-36.35-8.74-45.22-.77-20.29-.77-20.29L54.74,183s17.88-19,28.86-21.36c0,.1,0,.2,0,.29.06,8.48,4.62,57.16,2.27,74.49,0,0,1.13,11.28.94,15s-.94,58.37-.94,58.37S94.21,319.32,95.25,320.45Z"/><path class="cls-3" d="M41.31,5.92A11.31,11.31,0,0,1,42.86,1.7,3.27,3.27,0,0,1,44.78.05,4.54,4.54,0,0,1,47,.36a28.19,28.19,0,0,0,7.62.69,20.5,20.5,0,0,1,7.57,1.06A7.69,7.69,0,0,1,67,7.46,3,3,0,0,1,68.63,8.7a7,7,0,0,1,.8,3.5c.17,4.09,0,8.21-.19,12.3a1,1,0,0,0-.85-.21c-.88.15-1.69,1.75-1.79,1.95.05-1.1.08-1.82.08-1.82a30.26,30.26,0,0,0-1.19-7.35c-1.16-4.08-3.55-5.15-4.89-5a26.18,26.18,0,0,1-6.82,1,26.35,26.35,0,0,1-6.82-1c-1.34-.17-3.72.9-4.89,5a30.26,30.26,0,0,0-1.19,7.35s0,.73.09,1.84c0,0-.86-1.81-1.79-2a.94.94,0,0,0-.91.27,83.29,83.29,0,0,1-.38-10.94A13.53,13.53,0,0,1,38.73,9,6.16,6.16,0,0,1,41.31,5.92Z"/><path class="cls-1" d="M28.9,120.92a.49.49,0,0,1-.49-.41l-4.62-28L18.88,82.31a.5.5,0,0,1,.9-.44l4.95,10.31a.5.5,0,0,1,0,.13l4.62,28a.5.5,0,0,1-.41.58Z"/><path class="cls-1" d="M37.44,104.17a.5.5,0,0,1-.46-.31.49.49,0,0,1,.26-.65c.49-.21,11.93-5,16.75-4.47s17.26,3.48,17.79,3.6a.51.51,0,0,1,.37.61.5.5,0,0,1-.6.37c-.13,0-13-3.08-17.66-3.59s-16.14,4.35-16.26,4.4A.65.65,0,0,1,37.44,104.17Z"/><path class="cls-1" d="M3.21,191.18a.49.49,0,0,1-.49-.41l-.78-4.43a.5.5,0,0,1,.41-.58.49.49,0,0,1,.58.4l.77,4.44a.48.48,0,0,1-.41.57Z"/><path class="cls-1" d="M12.34,201.36a.46.46,0,0,1-.33-.13c-.5-.44-4.85-4.39-5.51-5.55s-2-8.51-2.11-9.34a.5.5,0,1,1,1-.18c.54,3.09,1.56,8.26,2,9a49.75,49.75,0,0,0,5.31,5.31.5.5,0,0,1,0,.71A.49.49,0,0,1,12.34,201.36Z"/><path class="cls-1" d="M27,240.87A5.72,5.72,0,0,1,22,238a.5.5,0,1,1,.88-.48,4.68,4.68,0,0,0,4.84,2.29.5.5,0,0,1,.18,1A5.2,5.2,0,0,1,27,240.87Z"/><path class="cls-1" d="M14.56,331.27a.45.45,0,0,1-.16,0,2,2,0,0,1-1.16-1.38,3.59,3.59,0,0,1,2-4.29.51.51,0,0,1,.65.27.5.5,0,0,1-.27.66,2.57,2.57,0,0,0-1.47,3.08,1.05,1.05,0,0,0,.53.72.5.5,0,0,1,.31.63A.51.51,0,0,1,14.56,331.27Z"/><path class="cls-1" d="M11,330.85h0a1.29,1.29,0,0,1-1-.7,2.86,2.86,0,0,1,.76-3.8.48.48,0,0,1,.69.1.5.5,0,0,1-.1.7,1.92,1.92,0,0,0-.73,1.15,1.88,1.88,0,0,0,.24,1.33c.09.17.18.22.2.22a.5.5,0,0,1,0,1Z"/><path class="cls-1" d="M8.54,330.49h0a1,1,0,0,1-.73-.41,1.66,1.66,0,0,1-.24-.54,3.77,3.77,0,0,1,.52-3,.5.5,0,0,1,.69-.14.51.51,0,0,1,.14.7,2.77,2.77,0,0,0-.38,2.17.6.6,0,0,0,.08.2.49.49,0,0,1,.46.52A.52.52,0,0,1,8.54,330.49Z"/><path class="cls-1" d="M6.32,330.12a.51.51,0,0,1-.38-.16,2.88,2.88,0,0,1,.54-4.31.5.5,0,0,1,.69.14.51.51,0,0,1-.14.7,1.86,1.86,0,0,0-.34,2.8.49.49,0,0,1,0,.7A.46.46,0,0,1,6.32,330.12Z"/><path class="cls-1" d="M31.2,311.6a.51.51,0,0,1-.31-.11,7.91,7.91,0,0,1-1.78-2A.5.5,0,1,1,30,309a6.87,6.87,0,0,0,1.56,1.71.5.5,0,0,1,.09.7A.51.51,0,0,1,31.2,311.6Z"/><path class="cls-1" d="M36.72,91.87c0,.89-1,1.61-2.33,1.61s-2.34-.72-2.34-1.61,1.05-1.62,2.34-1.62S36.72,91,36.72,91.87Z"/><path class="cls-1" d="M75.83,91.87c0,.89-1,1.61-2.34,1.61s-2.33-.72-2.33-1.61,1-1.62,2.33-1.62S75.83,91,75.83,91.87Z"/><path class="cls-1" d="M54.12,136.71a.5.5,0,0,1-.33-.12,11.93,11.93,0,0,1-2.18-2.47.5.5,0,0,1,.14-.69.51.51,0,0,1,.7.14,10.69,10.69,0,0,0,2,2.26.5.5,0,0,1,.06.7A.49.49,0,0,1,54.12,136.71Z"/><path class="cls-1" d="M79,120.92h-.06a.5.5,0,0,1-.43-.56l3.77-28a.34.34,0,0,1,0-.14l4.94-10.31a.51.51,0,0,1,.91.44L83.24,92.54l-3.76,27.95A.51.51,0,0,1,79,120.92Z"/><path class="cls-1" d="M103.82,191.18h-.08a.49.49,0,0,1-.41-.57l.77-4.44a.49.49,0,0,1,.58-.4.5.5,0,0,1,.41.58l-.77,4.43A.51.51,0,0,1,103.82,191.18Z"/><path class="cls-1" d="M94.69,201.36a.49.49,0,0,1-.37-.16.5.5,0,0,1,0-.71,50.74,50.74,0,0,0,5.31-5.31c.43-.76,1.45-5.93,2-9a.49.49,0,0,1,.58-.4.51.51,0,0,1,.41.58c-.15.83-1.45,8.18-2.12,9.34s-5,5.11-5.51,5.55A.46.46,0,0,1,94.69,201.36Z"/><path class="cls-1" d="M80.05,240.87a5.2,5.2,0,0,1-1-.09.5.5,0,0,1,.18-1,4.68,4.68,0,0,0,4.84-2.29A.5.5,0,0,1,85,238,5.72,5.72,0,0,1,80.05,240.87Z"/><path class="cls-1" d="M92.47,331.27a.5.5,0,0,1-.17-1,1.05,1.05,0,0,0,.53-.72,2.57,2.57,0,0,0-1.47-3.08.5.5,0,0,1-.27-.66.51.51,0,0,1,.65-.27,3.63,3.63,0,0,1,1.84,1.76,3.57,3.57,0,0,1,.21,2.53,1.94,1.94,0,0,1-1.16,1.38A.45.45,0,0,1,92.47,331.27Z"/><path class="cls-1" d="M96.08,330.85a.5.5,0,0,1-.5-.47.51.51,0,0,1,.47-.53s.11-.05.21-.22a1.88,1.88,0,0,0-.5-2.48.5.5,0,1,1,.6-.8,2.91,2.91,0,0,1,1.11,1.75,2.89,2.89,0,0,1-.36,2,1.29,1.29,0,0,1-1,.7Z"/><path class="cls-1" d="M98.49,330.49A.5.5,0,0,1,98,330a.5.5,0,0,1,.43-.52.7.7,0,0,0,.08-.2,2.69,2.69,0,0,0-.38-2.17.51.51,0,0,1,.14-.7.5.5,0,0,1,.69.14,3.73,3.73,0,0,1,.52,3,1.59,1.59,0,0,1-.24.55,1,1,0,0,1-.72.4Z"/><path class="cls-1" d="M100.72,330.12a.5.5,0,0,1-.34-.13.49.49,0,0,1,0-.7,1.9,1.9,0,0,0,.46-1.48,1.86,1.86,0,0,0-.81-1.32.5.5,0,0,1,.56-.84,2.87,2.87,0,0,1,.53,4.31A.5.5,0,0,1,100.72,330.12Z"/><path class="cls-1" d="M75.83,311.6a.49.49,0,0,1-.39-.2.5.5,0,0,1,.08-.7A6.87,6.87,0,0,0,77.08,309a.5.5,0,0,1,.84.54,7.91,7.91,0,0,1-1.78,2A.51.51,0,0,1,75.83,311.6Z"/><path class="cls-1" d="M54.91,34c0,.12-.13.22-.29.2-.87-.09-3.26-.42-3.47-1.32s1.8-4.56,2.71-6.2c.1-.19.49-.14.51.06Z"/><path class="cls-3" d="M50.81,26.74a.5.5,0,0,1-.47-.34s-.45-1.09-2.37-1.09h0c-2,0-2.67.86-2.7.9a.52.52,0,0,1-.7.12.5.5,0,0,1-.12-.69c0-.05.92-1.32,3.52-1.33h0c2.67,0,3.29,1.69,3.31,1.76a.5.5,0,0,1-.3.64A.51.51,0,0,1,50.81,26.74Z"/><path class="cls-3" d="M44.34,24.25a.5.5,0,0,1-.31-.89,6.26,6.26,0,0,1,6.62-.77.5.5,0,0,1-.43.9,5.23,5.23,0,0,0-5.56.65A.5.5,0,0,1,44.34,24.25Z"/><path class="cls-3" d="M48.79,24.88c.19.05.17.37.17.58a1.15,1.15,0,0,1-1.13,1.14,1.14,1.14,0,0,1-1.14-1.13,1,1,0,0,1,.15-.56A4.21,4.21,0,0,1,48.79,24.88Z"/><path class="cls-3" d="M57,26.71a.45.45,0,0,1-.16,0,.5.5,0,0,1-.31-.63c0-.07.64-1.77,3.33-1.78s3.49,1.25,3.52,1.3a.5.5,0,1,1-.82.57c0-.05-.73-.9-2.7-.87s-2.37,1.07-2.39,1.11A.5.5,0,0,1,57,26.71Z"/><path class="cls-3" d="M63.43,24.18a.49.49,0,0,1-.31-.11A5.29,5.29,0,0,0,60.43,23a5.36,5.36,0,0,0-2.87.49.5.5,0,1,1-.44-.9,6.27,6.27,0,0,1,6.63.73.5.5,0,0,1,.08.7A.5.5,0,0,1,63.43,24.18Z"/><path class="cls-3" d="M61,24.85c.15.11.15.36.15.56a1.14,1.14,0,0,1-2.27,0,1.15,1.15,0,0,1,.16-.58S60.48,24.52,61,24.85Z"/><path class="cls-4" d="M49.31,32.1c.07,1.08-1.21,2-2.87,2.15s-3-.68-3.12-1.76,1.21-2,2.87-2.14S49.24,31,49.31,32.1Z"/><path class="cls-4" d="M64.13,31.4c.07,1.07-1.22,2-2.87,2.14s-3-.68-3.12-1.75,1.21-2,2.87-2.14S64.06,30.32,64.13,31.4Z"/><path class="cls-1" d="M40.76,32.27a.5.5,0,0,1-.48-.37,16.75,16.75,0,0,0-1.83-4.18.5.5,0,0,1,.86-.52,17.83,17.83,0,0,1,1.93,4.43.5.5,0,0,1-.35.62Z"/><path class="cls-1" d="M67.16,32.06h-.11a.5.5,0,0,1-.37-.61,16.18,16.18,0,0,1,1.89-4.57.5.5,0,0,1,.69-.16.49.49,0,0,1,.17.68,14.93,14.93,0,0,0-1.78,4.29A.5.5,0,0,1,67.16,32.06Z"/><path class="cls-3" d="M53.91,38.38a7.08,7.08,0,0,1-1.56-.15.5.5,0,0,1-.38-.6.49.49,0,0,1,.6-.37s3.42.73,5.3-1.52a.52.52,0,0,1,.71-.07.51.51,0,0,1,.06.71A6,6,0,0,1,53.91,38.38Z"/></g></g></svg>