<svg xmlns="http://www.w3.org/2000/svg" viewBox="0 0 109.36 331.22"><defs><style>.cls-1{fill:#e06a43;}.cls-2{fill:#e79e73;}.cls-3{fill:#2b3448;}.cls-4{fill:#df895d;}</style></defs><g id="Layer_2" data-name="Layer 2"><g id="OBJECTS"><path class="cls-1" d="M84.08,158.37c-19.72-.45-27.79,14.48-27.79,14.48a4.55,4.55,0,0,1-3.22,0s-7.39-14.43-27.79-14.39C25.41,152,25.71,147,26,145c0,0,6.76,3.43,27.71,3.43S83.4,145,83.4,145C83.65,147,84,152,84.08,158.37Z"/><path class="cls-1" d="M64.13,39.67l.31,3.1h0C57.63,52,44.21,49.94,44.21,49.94l.95-9.56a34.88,34.88,0,0,0,5.44,5.07,8.22,8.22,0,0,0,7.44,0,34.91,34.91,0,0,0,6.06-5.81Z"/><path class="cls-2" d="M91.23,323.15s5,2.17,2.26,5.11a5,5,0,0,1-3.66,2c-2,.17-6.71.43-8.67.53a2.82,2.82,0,0,1-1.61-.4l-5.32-3.21s-5-1.42-5.83-2.7,1.54-13,1.54-13-.67-2.12.09-6.23l-10-68.2s-.84-6.16-.9-9.25-2.83-55-2.83-55,8.07-14.93,27.79-14.48c.21,10.57,0,25.08-1.72,37-2.69,19.07-3.08,44.31-3.08,44.31S83,257.7,82.46,264.3s-1,46.09-1.16,48.17C81.3,312.47,85.54,319.64,91.23,323.15Z"/><path class="cls-2" d="M53.07,172.85s-2.77,51.89-2.83,55-.9,9.25-.9,9.25l-10,68.2c.77,4.11.09,6.23.09,6.23s2.41,11.73,1.54,13-5.83,2.7-5.83,2.7l-5.32,3.21a2.82,2.82,0,0,1-1.61.4c-2-.1-6.7-.36-8.67-.53a5,5,0,0,1-3.66-2c-2.75-2.94,2.27-5.11,2.27-5.11,5.68-3.51,9.92-10.68,9.92-10.68-.15-2.08-.68-41.57-1.16-48.17s3.18-24.66,3.18-24.66S29.69,214.4,27,195.33c-1.68-11.85-1.93-26.32-1.72-36.87C45.68,158.42,53.07,172.85,53.07,172.85Z"/><path class="cls-2" d="M107.92,167s1.87,16.14,1.35,17.59a7.73,7.73,0,0,1-1.54,2.5,23.86,23.86,0,0,1-.19,2.51c-.13.58-1.86,2.19-1.86,2.19a6.32,6.32,0,0,1-2.25,1.85c-1.38.65-4.5,1.81-4.5,1.81l-3.27,2.5a1.6,1.6,0,0,1-.9-2.57c1.12-2,2.95-4.81,2.95-4.81l.84-9.57a1.31,1.31,0,0,0-1.29,1.35c0,1.31-.38,6-1,6.74s-2.47,1.89-3.34,1.6,1-6.19.26-8.54a9.5,9.5,0,0,1,.25-5.52c.29-.87,4.56-10.4,4.56-10.4s-8-35.07-8.6-37.12-.39-7.19-.39-7.19L82.36,96.63,80,115.57s2.73,24,3.41,29.42c0,0-8.77,3.43-29.72,3.43S26,145,26,145c.68-5.43,3.41-29.42,3.41-29.42L27,96.63l-6.68,25.24s.25,5.13-.39,7.19-8.6,37.12-8.6,37.12,4.27,9.53,4.56,10.4a9.56,9.56,0,0,1,.26,5.52c-.71,2.35,1.12,8.25.25,8.54s-2.76-.83-3.34-1.6-1-5.43-1-6.74A1.3,1.3,0,0,0,10.82,181l.83,9.57s1.83,2.79,2.95,4.81a1.6,1.6,0,0,1-.89,2.57l-3.28-2.5s-3.11-1.16-4.5-1.81a6.23,6.23,0,0,1-2.24-1.85S2,190.13,1.82,189.55,1.63,187,1.63,187a7.73,7.73,0,0,1-1.54-2.5C-.42,183.09,1.44,167,1.44,167S4.33,132.84,5.29,128s3-12.46,3-12.46,4.23-38.92,6.8-48.29S28.93,57,28.93,57l15.28-7.07S57.63,52,64.44,42.77h0l.72,7.17L80.44,57s11.3.9,13.87,10.27,6.81,48.29,6.81,48.29,2,7.64,2.95,12.46S107.92,167,107.92,167Z"/><path class="cls-2" d="M66.64,32.25c.23-2.37.4-5.06.49-6.81a5.42,5.42,0,0,1,1.3-1.73,1.21,1.21,0,0,1,.5-.24c.94-.16,1.6.62,1.54,3.32a7.58,7.58,0,0,1-2.33,5.31A1.64,1.64,0,0,1,66.64,32.25Z"/><path class="cls-2" d="M41.5,25.43h0c0-1.11-.08-1.82-.08-1.82a30.37,30.37,0,0,1,1.19-7.36c1.17-4.08,3.55-5.14,4.89-5s2.83,1,6.82,1,5.49-.81,6.82-1,3.73.89,4.9,5a30.62,30.62,0,0,1,1.18,7.36s0,.73-.09,1.84c-.09,1.75-.26,4.44-.49,6.81a33.2,33.2,0,0,1-.6,4.1,10.16,10.16,0,0,1-1.94,3.29A34.91,34.91,0,0,1,58,45.45a8.22,8.22,0,0,1-7.44,0,34.88,34.88,0,0,1-5.44-5.07,11.82,11.82,0,0,1-2.55-4,31.38,31.38,0,0,1-.6-4.1C41.77,29.87,41.6,27.17,41.5,25.43Z"/><path class="cls-2" d="M41.5,25.43c.1,1.74.27,4.44.51,6.82h0a1.64,1.64,0,0,1-1.5-.15,7.62,7.62,0,0,1-2.33-5.31c-.05-2.7.61-3.48,1.55-3.32a1.1,1.1,0,0,1,.49.23,5.42,5.42,0,0,1,1.29,1.72Z"/><path class="cls-3" d="M61.26,4.28a15.62,15.62,0,0,1,3.29,1.4c3.14,1.83,5.5,5.76,4.92,9.39-.45,2.94-.89,7.13-1,8.64a5.42,5.42,0,0,0-1.3,1.73c.06-1.11.09-1.84.09-1.84A30.62,30.62,0,0,0,66,16.24c-1.17-4.08-3.56-5.14-4.9-5s-2.82,1-6.82,1-5.48-.81-6.82-1-3.72.89-4.89,5a30.37,30.37,0,0,0-1.19,7.36s0,.71.08,1.82a5.42,5.42,0,0,0-1.29-1.72c-.15-1.51-.58-5.69-1-8.63C38.59,11.44,41,7.51,44.1,5.68l.36-.2a8.89,8.89,0,0,1,1.4-2.74A7.06,7.06,0,0,1,49.52.24a8.4,8.4,0,0,1,5,.35A24.43,24.43,0,0,1,59,2.93Z"/><path class="cls-1" d="M29.38,116.07a.5.5,0,0,1-.5-.42C27.9,109.36,25,81.52,25,81.24a.5.5,0,0,1,.44-.55.49.49,0,0,1,.55.44c0,.28,2.94,28.1,3.92,34.37a.5.5,0,0,1-.42.57Z"/><path class="cls-1" d="M26.78,94.1a.51.51,0,0,1-.43-.24l-4.7-8a.5.5,0,0,1,.87-.51l4.69,8A.5.5,0,0,1,27,94,.48.48,0,0,1,26.78,94.1Z"/><path class="cls-1" d="M73.43,99.7h-.1c-14.11-2.84-39,0-39.21,0a.49.49,0,0,1-.56-.44A.5.5,0,0,1,34,98.7c.25,0,25.26-2.87,39.52,0a.5.5,0,0,1,.4.59A.51.51,0,0,1,73.43,99.7Z"/><path class="cls-1" d="M55,129.33h-.08A4.79,4.79,0,0,1,52.37,128a.5.5,0,0,1,0-.71.48.48,0,0,1,.7,0,3.78,3.78,0,0,0,2,1,.5.5,0,0,1-.09,1Z"/><path class="cls-1" d="M10.43,195.9a.52.52,0,0,1-.41-.21c-.48-.67-2.87-4.05-2.92-5.38,0-1-.89-5.69-1.34-8.05a.5.5,0,0,1,1-.19c0,.29,1.3,6.92,1.35,8.2,0,.76,1.62,3.28,2.73,4.83a.49.49,0,0,1-.11.7A.53.53,0,0,1,10.43,195.9Z"/><path class="cls-1" d="M4.24,192.87a.51.51,0,0,1-.4-.2c-1.38-1.85-1-8.38-1-9.12a.49.49,0,0,1,.53-.47.5.5,0,0,1,.47.53c-.11,1.9-.18,7.14.81,8.46a.51.51,0,0,1-.1.7A.49.49,0,0,1,4.24,192.87Z"/><path class="cls-1" d="M1.63,187.54a.49.49,0,0,1-.5-.46l-.32-3.94a.5.5,0,1,1,1-.08L2.13,187a.5.5,0,0,1-.46.54Z"/><path class="cls-1" d="M41.9,240.51a7.7,7.7,0,0,1-5.58-2.88.51.51,0,0,1,.11-.7.5.5,0,0,1,.7.1c.12.16,3,3.94,7.28,1.87a.49.49,0,0,1,.66.23.5.5,0,0,1-.23.67A6.71,6.71,0,0,1,41.9,240.51Z"/><path class="cls-1" d="M37.5,311.8a.46.46,0,0,1-.33-.13,4.3,4.3,0,0,1-1.42-3,.5.5,0,0,1,.48-.52.51.51,0,0,1,.52.48,3.37,3.37,0,0,0,1.09,2.34.49.49,0,0,1,0,.7A.48.48,0,0,1,37.5,311.8Z"/><path class="cls-1" d="M79.79,116.17h-.07a.5.5,0,0,1-.42-.57c1-6.27,3.89-34.09,3.92-34.37a.48.48,0,0,1,.55-.44.5.5,0,0,1,.44.55c0,.28-2.94,28.12-3.92,34.41A.5.5,0,0,1,79.79,116.17Z"/><path class="cls-1" d="M82.39,94.2a.48.48,0,0,1-.26-.07.5.5,0,0,1-.17-.68l4.69-8a.5.5,0,0,1,.87.51l-4.7,8A.52.52,0,0,1,82.39,94.2Z"/><path class="cls-1" d="M98.74,196a.46.46,0,0,1-.29-.1.5.5,0,0,1-.12-.7c1.12-1.55,2.71-4.07,2.74-4.83.05-1.27,1.3-7.91,1.35-8.2a.5.5,0,0,1,1,.19c-.45,2.36-1.31,7.09-1.34,8-.06,1.33-2.45,4.71-2.92,5.38A.54.54,0,0,1,98.74,196Z"/><path class="cls-1" d="M104.93,193a.49.49,0,0,1-.3-.1.51.51,0,0,1-.1-.7c1-1.32.92-6.56.81-8.46a.5.5,0,1,1,1-.06c0,.74.37,7.27-1,9.12A.51.51,0,0,1,104.93,193Z"/><path class="cls-1" d="M107.54,187.65h0a.5.5,0,0,1-.46-.53l.32-4a.5.5,0,0,1,.54-.46.5.5,0,0,1,.46.54l-.32,3.95A.5.5,0,0,1,107.54,187.65Z"/><path class="cls-1" d="M67.27,240.61a6.68,6.68,0,0,1-2.94-.71.5.5,0,0,1-.24-.67.51.51,0,0,1,.67-.23c4.28,2.07,7.16-1.71,7.28-1.87a.5.5,0,0,1,.7-.1.51.51,0,0,1,.11.7A7.7,7.7,0,0,1,67.27,240.61Z"/><path class="cls-1" d="M71.67,311.9a.47.47,0,0,1-.37-.16.5.5,0,0,1,0-.71,3.37,3.37,0,0,0,1.09-2.34.54.54,0,0,1,.52-.48.5.5,0,0,1,.48.52,4.3,4.3,0,0,1-1.42,3A.46.46,0,0,1,71.67,311.9Z"/><path class="cls-1" d="M37.24,90.07c0,.89-1.05,1.61-2.34,1.61s-2.33-.72-2.33-1.61,1-1.61,2.33-1.61S37.24,89.18,37.24,90.07Z"/><path class="cls-1" d="M74,90.07c0,.89-1.05,1.61-2.34,1.61s-2.33-.72-2.33-1.61,1-1.61,2.33-1.61S74,89.18,74,90.07Z"/><path class="cls-1" d="M26.21,331.22a.49.49,0,0,1-.32-.12,4,4,0,0,1,.19-6.31.5.5,0,0,1,.7.1.5.5,0,0,1-.1.7,3,3,0,0,0-.15,4.74.5.5,0,0,1,.06.71A.48.48,0,0,1,26.21,331.22Z"/><path class="cls-1" d="M22.34,330.81a.5.5,0,0,1-.39-.18,3.21,3.21,0,0,1,.56-4.6.51.51,0,0,1,.7.1.5.5,0,0,1-.1.7,2.27,2.27,0,0,0-.86,1.5,2.24,2.24,0,0,0,.48,1.66.52.52,0,0,1-.07.71A.56.56,0,0,1,22.34,330.81Z"/><path class="cls-1" d="M20.18,330.6a.56.56,0,0,1-.27-.08,2.58,2.58,0,0,1-1.08-1.87,4.8,4.8,0,0,1,.26-2,1.25,1.25,0,0,1,.23-.47.84.84,0,0,1,.76-.31.5.5,0,0,1,.41.57.5.5,0,0,1-.42.42l0,.09a3.74,3.74,0,0,0-.22,1.56,1.6,1.6,0,0,0,.63,1.14.49.49,0,0,1,.15.69A.48.48,0,0,1,20.18,330.6Z"/><path class="cls-1" d="M16.87,329.84a.5.5,0,0,1-.47-.32,4.19,4.19,0,0,1,0-3,1,1,0,0,1,.88-.8.5.5,0,0,1,.54.45.5.5,0,0,1-.4.54.4.4,0,0,0-.09.17,3.2,3.2,0,0,0,0,2.26.5.5,0,0,1-.29.65A.47.47,0,0,1,16.87,329.84Z"/><path class="cls-1" d="M83.71,330.75a.45.45,0,0,1-.25-.07.51.51,0,0,1-.19-.68,2.58,2.58,0,0,0-1.2-3.64.49.49,0,0,1-.26-.66.5.5,0,0,1,.66-.26,3.64,3.64,0,0,1,2,2.16,3.59,3.59,0,0,1-.29,2.9A.5.5,0,0,1,83.71,330.75Z"/><path class="cls-1" d="M86.19,330.73a.52.52,0,0,1-.31-.1.51.51,0,0,1-.09-.7,2.31,2.31,0,0,0-.34-3.18.5.5,0,0,1,.64-.77,3.34,3.34,0,0,1,1.16,2.18,3.38,3.38,0,0,1-.66,2.38A.5.5,0,0,1,86.19,330.73Z"/><path class="cls-1" d="M88.63,330.42a.47.47,0,0,1-.3-.1.51.51,0,0,1-.11-.7,1.83,1.83,0,0,0,.35-1.3,1.87,1.87,0,0,0-.63-1.19.5.5,0,1,1,.66-.75,2.84,2.84,0,0,1,1,1.83,2.88,2.88,0,0,1-.53,2A.51.51,0,0,1,88.63,330.42Z"/><path class="cls-1" d="M92.19,329.39h-.1a.49.49,0,0,1-.39-.58,1.9,1.9,0,0,0-1.12-2.05.49.49,0,0,1-.28-.64.5.5,0,0,1,.65-.29A2.89,2.89,0,0,1,92.68,329,.5.5,0,0,1,92.19,329.39Z"/><path class="cls-1" d="M55.47,32.63c0,.12-.13.22-.29.2-.87-.09-3.26-.42-3.47-1.32s1.8-4.56,2.71-6.2c.1-.19.49-.14.51.06Z"/><path class="cls-3" d="M51.37,25.38A.49.49,0,0,1,50.9,25S50.45,24,48.53,24h0c-2,0-2.67.86-2.7.9a.52.52,0,0,1-.7.12.5.5,0,0,1-.12-.69c0-.05.92-1.32,3.52-1.33h0c2.67,0,3.29,1.69,3.31,1.76a.5.5,0,0,1-.3.64A.51.51,0,0,1,51.37,25.38Z"/><path class="cls-3" d="M44.9,22.89a.51.51,0,0,1-.39-.18.49.49,0,0,1,.08-.7,6.28,6.28,0,0,1,3.19-1.35,6.44,6.44,0,0,1,3.43.57.5.5,0,0,1-.43.9,5.29,5.29,0,0,0-5.56.65A.5.5,0,0,1,44.9,22.89Z"/><path class="cls-3" d="M49.35,23.52c.19.05.16.37.17.58a1.14,1.14,0,0,1-2.27,0,1,1,0,0,1,.15-.56A4.21,4.21,0,0,1,49.35,23.52Z"/><path class="cls-3" d="M57.54,25.35a.45.45,0,0,1-.16,0,.5.5,0,0,1-.31-.63c0-.07.64-1.77,3.32-1.78h0c2.58,0,3.47,1.25,3.5,1.3a.51.51,0,0,1-.12.7.5.5,0,0,1-.69-.13,3.37,3.37,0,0,0-2.69-.87h0C58.46,23.91,58,25,58,25A.5.5,0,0,1,57.54,25.35Z"/><path class="cls-3" d="M64,22.82a.52.52,0,0,1-.31-.1A5.22,5.22,0,0,0,61,21.61a5.36,5.36,0,0,0-2.87.49.5.5,0,1,1-.44-.9,6.49,6.49,0,0,1,3.42-.59,6.42,6.42,0,0,1,3.21,1.32.5.5,0,0,1,.08.7A.5.5,0,0,1,64,22.82Z"/><path class="cls-3" d="M61.51,23.49c.15.11.15.36.15.56a1.14,1.14,0,0,1-2.27,0,1.15,1.15,0,0,1,.16-.58S61,23.16,61.51,23.49Z"/><path class="cls-4" d="M49.87,30.75c.07,1.07-1.22,2-2.87,2.14s-3-.68-3.12-1.75,1.21-2,2.87-2.15S49.8,29.67,49.87,30.75Z"/><path class="cls-4" d="M64.69,30c.07,1.08-1.22,2-2.87,2.14s-3-.67-3.12-1.75,1.21-2,2.87-2.14S64.62,29,64.69,30Z"/><path class="cls-1" d="M41.32,30.91a.49.49,0,0,1-.48-.37A16.75,16.75,0,0,0,39,26.36a.5.5,0,0,1,.86-.52,17.83,17.83,0,0,1,1.93,4.43.5.5,0,0,1-.35.62Z"/><path class="cls-1" d="M67.72,30.7h-.11a.5.5,0,0,1-.37-.6,16.12,16.12,0,0,1,1.89-4.58A.51.51,0,0,1,70,26a14.87,14.87,0,0,0-1.78,4.28A.5.5,0,0,1,67.72,30.7Z"/><path class="cls-3" d="M54.47,37a7.08,7.08,0,0,1-1.56-.15.5.5,0,1,1,.22-1s3.42.74,5.3-1.52a.52.52,0,0,1,.71-.07.51.51,0,0,1,.06.71A6,6,0,0,1,54.47,37Z"/></g></g></svg>