<svg xmlns="http://www.w3.org/2000/svg" viewBox="0 0 122.04 335.59"><defs><style>.cls-1{fill:#e06a43;}.cls-2{fill:#2b3448;}.cls-3{fill:#e79e73;}.cls-4{fill:#df895d;}</style></defs><g id="Layer_2" data-name="Layer 2"><g id="OBJECTS"><path class="cls-1" d="M73.34,43.78A20.73,20.73,0,0,1,63.55,49,34.52,34.52,0,0,1,48,48.76l1.19-8.9a37,37,0,0,0,7.24,6.64,11,11,0,0,0,4.14.92,14.78,14.78,0,0,0,2.5-.33,6.44,6.44,0,0,0,1.63-.59,35.52,35.52,0,0,0,8-7.61Z"/><path class="cls-2" d="M45.33,9a6.61,6.61,0,0,1-.45-2.78A4.29,4.29,0,0,1,46.58,3a7.51,7.51,0,0,1,3.51-1C53.88,1.6,57.58.59,61.38.17a14.66,14.66,0,0,1,8.12.93,9.12,9.12,0,0,1,4.59,5.25A4.22,4.22,0,0,1,77,8.81a10.25,10.25,0,0,1,.69,4.37,86.1,86.1,0,0,1-.89,10.64h0c-1,.17-2,2-2,2,.06-1.15.1-1.9.1-1.9a29.17,29.17,0,0,0-1.32-7.59c-1.3-4.21-3.94-5.3-5.43-5.13s-3.14,1-7.57,1-6.09-.83-7.58-1-4.12.92-5.42,5.13A29.17,29.17,0,0,0,46.28,24l.1,1.9s-1-1.86-2-2a1.14,1.14,0,0,0-.78.11,53.74,53.74,0,0,1-.5-10.75,7.27,7.27,0,0,1,.6-2.62A3,3,0,0,1,45.33,9Z"/><path class="cls-3" d="M60.81,47.41H60.6a3.24,3.24,0,0,1-.44,0c-16.57-.35-13.79-21.55-13.79-21.55-.06-1.15-.09-1.9-.09-1.9a29.39,29.39,0,0,1,1.31-7.59c1.31-4.21,3.95-5.3,5.43-5.13s3.14,1,7.58,1,6.08-.83,7.57-1,4.12.92,5.43,5.13A29.39,29.39,0,0,1,74.91,24s0,.75-.09,1.9C74.82,25.85,77.63,47.24,60.81,47.41Z"/><path class="cls-1" d="M61.72,183.06h-1.4s-4-1.42-9.54-6.23-33-14.21-33-14.21c1.49-9.4,2.94-20.25,2.94-20.25s7,18.89,39.91,19.35c33.65-.16,40.71-19.36,40.71-19.36s1.45,10.85,2.93,20.25c0,0-27.46,9.39-33,14.2S61.72,183.06,61.72,183.06Z"/><path class="cls-3" d="M74.82,25.85s1-1.86,2-2h0c1-.15,1.75.66,1.7,3.42a7.74,7.74,0,0,1-2.59,5.49,1.94,1.94,0,0,1-1.67.14h0C74.53,30.43,74.72,27.65,74.82,25.85Z"/><path class="cls-3" d="M46.93,32.87a2,2,0,0,1-1.67-.14,7.66,7.66,0,0,1-2.58-5.49c0-2,.32-3,.93-3.31a1.14,1.14,0,0,1,.78-.11c1,.17,2,2,2,2,.1,1.8.29,4.58.55,7Z"/><path class="cls-3" d="M19.43,135c-2.1,9.82-7.93,27.39-7.93,27.39s4,5.61,5.26,8.7a4.82,4.82,0,0,1,.38,1.36c.11,2.29,2.64,11.13,2.64,11.13s-.14,2.62-2.6,1.1-5.44-8.47-5.44-8.47l-1.44,8.77s3.93,6.52,4,8.81-2.41,2.12-2.41,2.12a1.09,1.09,0,0,1-1.92.43c-.75-.79-6-5.49-6.55-7.07l-.77-2.32a26.78,26.78,0,0,1-2.5-4.33C-.37,181,.5,163.64.5,163.64s.41-16,0-24.66,4.21-21.39,4.21-21.39,2.48-21.38,2-34.54,5-19.66,14-22.87S48,48.76,48,48.76A34.5,34.5,0,0,0,63.56,49a20.7,20.7,0,0,0,9.78-5.22l.66,5S92.29,57,101.28,60.18s14.45,9.69,14,22.85,2,34.56,2,34.56,4.59,12.71,4.21,21.38,0,24.66,0,24.66.87,17.39.31,18.93a27.26,27.26,0,0,1-2.5,4.33l-.77,2.31c-.53,1.6-5.81,6.29-6.56,7.08a1.09,1.09,0,0,1-1.92-.43s-2.52.17-2.41-2.12,4-8.81,4-8.81l-1.45-8.77s-3,7-5.44,8.48-2.6-1.11-2.6-1.11,2.53-8.84,2.65-11.12a4.23,4.23,0,0,1,.38-1.36c1.27-3.09,5.25-8.71,5.25-8.71s-5.82-17.57-7.92-27.39c-.81,4.85-1.28,7.43-1.28,7.43s-7.06,23.2-40.71,23.36c-32.91-.46-39.91-23.35-39.91-23.35S20.23,139.8,19.43,135Z"/><path class="cls-3" d="M61,185c-1.12,11.12-5,50.44-5,52.35,0,2.21-1.93,6.74-1.93,6.74-.14,2.7-7.35,67-7.35,67,.8,2,.06,5.65.06,5.65s3.31,6.68,2.83,9.38-5.28,3-11.19,4.24-7.77,4.75-10.33,4.75-13.33-1.67-13.62-3.85,2.63-2.79,3.34-3.6S29.09,316.92,29.54,315s-.51-12.46-.77-16.7-4.24-41.22-4.24-47.14,2-14.25,2-14.25S23,219.13,20,209.3s-3.29-38.25-3.29-38.25c.15-2.35.53-5.31,1-8.42,0,0,27.47,9.39,33,14.21A21.16,21.16,0,0,0,61,182l-.23,0Z"/><path class="cls-3" d="M107.58,331.23c-.29,2.19-11,3.86-13.62,3.86s-6.43-3.54-12.34-4.76-8.7-1.53-9.18-4.23,2.83-9.38,2.83-9.38-.75-3.63.06-5.64c0,0-7.21-64.32-7.35-67,0,0-1.93-4.52-1.93-6.74,0-1.9-3.92-41.21-5-52.34.18-1.84.29-2.91.29-2.91L61,182a21,21,0,0,0,10.29-5.21c5.54-4.81,33-14.19,33-14.19.49,3.11.88,6.07,1,8.42,0,0-.33,28.41-3.29,38.24s-6.55,27.61-6.55,27.61,2.06,8.35,2.06,14.26-4,42.89-4.25,47.13S92,313.06,92.48,315s11,11.84,11.76,12.65S107.86,329.05,107.58,331.23Z"/><path class="cls-1" d="M26.53,106.15a.52.52,0,0,1-.42-.22c-3.51-5.17-4-22.64-4-23.38a.5.5,0,0,1,.48-.52h0a.51.51,0,0,1,.5.49c0,.18.52,17.92,3.86,22.85a.5.5,0,0,1-.41.78Z"/><path class="cls-1" d="M23.12,91.34a.5.5,0,0,1-.43-.24l-3.14-5a.5.5,0,0,1,.85-.53l3.14,5a.51.51,0,0,1-.42.77Z"/><path class="cls-1" d="M19.43,135.45a.5.5,0,0,1-.5-.46c-1.31-16.35,5.76-32.29,5.83-32.45a.5.5,0,0,1,.66-.25.5.5,0,0,1,.25.66c-.07.16-7,15.87-5.74,32a.49.49,0,0,1-.46.53Z"/><path class="cls-1" d="M79.77,103.25l-.14,0a62.17,62.17,0,0,0-36.45,0,.51.51,0,0,1-.64-.3.49.49,0,0,1,.29-.64,63.24,63.24,0,0,1,37.09,0,.5.5,0,0,1,.33.62A.49.49,0,0,1,79.77,103.25Z"/><path class="cls-1" d="M62.32,144.52a.47.47,0,0,1-.25-.07,8.92,8.92,0,0,1-2.53-2.17.5.5,0,1,1,.78-.62,7.84,7.84,0,0,0,2.25,1.92.52.52,0,0,1,.19.69A.52.52,0,0,1,62.32,144.52Z"/><ellipse class="cls-1" cx="33.36" cy="95.7" rx="2.34" ry="1.61"/><ellipse class="cls-1" cx="87.46" cy="95.7" rx="2.34" ry="1.61"/><path class="cls-1" d="M18.48,185.6h-.24a3.75,3.75,0,0,1-2.66-1.77.5.5,0,1,1,.83-.55,2.78,2.78,0,0,0,1.92,1.32,1.48,1.48,0,0,0,1.61-1,3,3,0,0,0-.61-1.82l-.16-.27a20.06,20.06,0,0,1-1.91-6.3c-.09-.46-.17-.92-.27-1.37-.44-2.22-1.21-5-3.19-6.64a.5.5,0,0,1,.64-.77c2.22,1.87,3,4.84,3.53,7.21.1.46.18.92.27,1.38a19.09,19.09,0,0,0,1.8,6l.15.27a3.71,3.71,0,0,1,.73,2.49A2.47,2.47,0,0,1,18.48,185.6Z"/><path class="cls-1" d="M11.58,176.84a.49.49,0,0,1-.34-.14l-2.7-2.58a.5.5,0,0,1,.7-.72L11.93,176a.48.48,0,0,1,0,.7A.45.45,0,0,1,11.58,176.84Z"/><path class="cls-1" d="M12.13,196.31a.54.54,0,0,1-.35-.14A45.53,45.53,0,0,1,7,191c-1.55-2-4-6.18-3.22-10.83a.5.5,0,1,1,1,.16c-.73,4.28,1.59,8.15,3,10.07a44.23,44.23,0,0,0,4.66,5,.5.5,0,0,1-.35.86Z"/><path class="cls-1" d="M6.05,192.84a.45.45,0,0,1-.31-.11,10.18,10.18,0,0,1-3.24-5.55,29.19,29.19,0,0,1-.59-6.29.5.5,0,0,1,.49-.51h0a.51.51,0,0,1,.5.49,28.06,28.06,0,0,0,.56,6.07,9.31,9.31,0,0,0,2.9,5,.5.5,0,0,1-.32.88Z"/><path class="cls-1" d="M44.48,246c-3.18,0-8.38-1.21-10.7-3.38a.5.5,0,0,1,.69-.73c2.8,2.63,9,3.72,12.73,2.77a.5.5,0,0,1,.61.37.49.49,0,0,1-.36.6A11.91,11.91,0,0,1,44.48,246Z"/><path class="cls-1" d="M43.1,320.18a.5.5,0,0,1-.37-.16.51.51,0,0,1,0-.71,18.27,18.27,0,0,0,2.72-3.1.5.5,0,1,1,.82.57,19.79,19.79,0,0,1-2.86,3.27A.5.5,0,0,1,43.1,320.18Z"/><path class="cls-1" d="M26.77,335.32a.52.52,0,0,1-.29-.09,1.69,1.69,0,0,1-.49-2,3,3,0,0,1,1.24-1.36l.45-.28a6.17,6.17,0,0,0,.8-.53.48.48,0,0,1,.7.06.49.49,0,0,1-.06.7,6.83,6.83,0,0,1-.92.63l-.43.26a2.07,2.07,0,0,0-.85.89.71.71,0,0,0,.14.81.5.5,0,0,1,.12.7A.49.49,0,0,1,26.77,335.32Z"/><path class="cls-1" d="M23.9,335.1a.53.53,0,0,1-.4-.19,3.07,3.07,0,0,1,.68-4.41,5.48,5.48,0,0,1,.52-.31,2,2,0,0,0,.73-.54.5.5,0,0,1,.83.56,3,3,0,0,1-1.08.86l-.43.25a2.07,2.07,0,0,0-.46,3,.5.5,0,0,1-.09.7A.5.5,0,0,1,23.9,335.1Z"/><path class="cls-1" d="M20.28,334.18a.51.51,0,0,1-.36-.15,2.51,2.51,0,0,1,.13-3.61,4.59,4.59,0,0,1,1.26-.73,3.45,3.45,0,0,0,1-.58.5.5,0,1,1,.69.72,4.42,4.42,0,0,1-1.31.78,3.59,3.59,0,0,0-1,.55,1.52,1.52,0,0,0-.08,2.18.49.49,0,0,1,0,.7A.47.47,0,0,1,20.28,334.18Z"/><path class="cls-1" d="M17.14,333.34h-.07l-.13,0a.51.51,0,0,1-.37-.25,2.81,2.81,0,0,1,.86-3.72,5.22,5.22,0,0,1,.74-.39,3,3,0,0,0,.79-.47.5.5,0,0,1,.7.71,3.74,3.74,0,0,1-1.07.67,3.41,3.41,0,0,0-.6.31,1.81,1.81,0,0,0-.74,1.09,1.8,1.8,0,0,0,.1,1.12.5.5,0,0,1-.21.95Z"/><path class="cls-1" d="M95.94,106.42a.51.51,0,0,1-.28-.09.5.5,0,0,1-.13-.69c3.35-4.93,3.86-22.68,3.86-22.85a.5.5,0,0,1,.5-.49h0a.5.5,0,0,1,.48.51c0,.74-.52,18.22-4,23.39A.52.52,0,0,1,95.94,106.42Z"/><path class="cls-1" d="M99.35,91.61a.5.5,0,0,1-.26-.08.5.5,0,0,1-.16-.69l3.14-5a.49.49,0,0,1,.69-.16.51.51,0,0,1,.16.69l-3.14,5A.52.52,0,0,1,99.35,91.61Z"/><path class="cls-1" d="M103,135.71h0a.5.5,0,0,1-.46-.54c1.3-16.09-5.67-31.79-5.74-31.95a.5.5,0,0,1,.25-.66.49.49,0,0,1,.66.25c.07.16,7.14,16.09,5.83,32.44A.5.5,0,0,1,103,135.71Z"/><path class="cls-1" d="M86.78,96c0,.89,1,1.61,2.34,1.61s2.33-.72,2.33-1.61-1-1.61-2.33-1.61S86.78,95.08,86.78,96Z"/><path class="cls-1" d="M103.68,184.87a2.43,2.43,0,0,1-2.43-1.88,3.71,3.71,0,0,1,.73-2.49l.15-.27a19.09,19.09,0,0,0,1.8-6c.09-.46.17-.92.27-1.38.48-2.38,1.31-5.34,3.53-7.21a.5.5,0,1,1,.64.76c-2,1.67-2.75,4.43-3.19,6.65-.1.45-.18.91-.27,1.37a20.06,20.06,0,0,1-1.91,6.3l-.16.27a3,3,0,0,0-.61,1.81,1.49,1.49,0,0,0,1.61,1.05,2.79,2.79,0,0,0,1.92-1.32.5.5,0,0,1,.83.55,3.72,3.72,0,0,1-2.65,1.76Z"/><path class="cls-1" d="M110.59,176.11a.52.52,0,0,1-.36-.16.49.49,0,0,1,0-.7l2.69-2.58a.51.51,0,0,1,.71,0,.5.5,0,0,1,0,.71l-2.7,2.58A.49.49,0,0,1,110.59,176.11Z"/><path class="cls-1" d="M110,195.58a.5.5,0,0,1-.35-.86,44.17,44.17,0,0,0,4.66-5c1.45-1.93,3.77-5.79,3-10.07a.51.51,0,0,1,.41-.58.51.51,0,0,1,.58.41c.79,4.65-1.68,8.79-3.23,10.84a44.62,44.62,0,0,1-4.76,5.13A.52.52,0,0,1,110,195.58Z"/><path class="cls-1" d="M116.12,192.11a.5.5,0,0,1-.39-.18.5.5,0,0,1,.07-.7,9.28,9.28,0,0,0,2.9-5,28.12,28.12,0,0,0,.56-6.07.51.51,0,0,1,.5-.49h0a.5.5,0,0,1,.49.51,28.57,28.57,0,0,1-.59,6.29,10.24,10.24,0,0,1-3.24,5.55A.45.45,0,0,1,116.12,192.11Z"/><path class="cls-1" d="M78,246.23a11.9,11.9,0,0,1-3-.36.51.51,0,0,1-.36-.61.5.5,0,0,1,.61-.36c3.72.94,9.94-.14,12.73-2.77a.5.5,0,0,1,.69.73C86.38,245,81.17,246.23,78,246.23Z"/><path class="cls-1" d="M79.37,320.45a.5.5,0,0,1-.34-.13,19.79,19.79,0,0,1-2.86-3.27.5.5,0,0,1,.82-.58,18.33,18.33,0,0,0,2.72,3.11.5.5,0,0,1,0,.71A.52.52,0,0,1,79.37,320.45Z"/><path class="cls-1" d="M95.7,335.59a.52.52,0,0,1-.41-.21.5.5,0,0,1,.12-.7.7.7,0,0,0,.14-.81,2,2,0,0,0-.85-.89c-.14-.1-.28-.18-.43-.27a5.94,5.94,0,0,1-.92-.62.5.5,0,0,1,.64-.77,7,7,0,0,0,.8.54l.46.28a3,3,0,0,1,1.23,1.35,1.71,1.71,0,0,1-.49,2A.52.52,0,0,1,95.7,335.59Z"/><path class="cls-1" d="M98.58,335.37a.51.51,0,0,1-.31-.11.5.5,0,0,1-.09-.7,2.1,2.1,0,0,0,.41-1.59,2.06,2.06,0,0,0-.87-1.38,3.78,3.78,0,0,0-.43-.26,2.77,2.77,0,0,1-1.07-.85.49.49,0,0,1,.13-.69.5.5,0,0,1,.7.13,1.91,1.91,0,0,0,.72.54,5.39,5.39,0,0,1,.52.3,3.14,3.14,0,0,1,1.29,2.06,3.05,3.05,0,0,1-.61,2.35A.5.5,0,0,1,98.58,335.37Z"/><path class="cls-1" d="M102.19,334.45a.52.52,0,0,1-.35-.14.5.5,0,0,1,0-.71,1.56,1.56,0,0,0,.43-1.1,1.61,1.61,0,0,0-.5-1.07,3.63,3.63,0,0,0-1-.55,4.18,4.18,0,0,1-1.32-.79.5.5,0,0,1,0-.71.51.51,0,0,1,.71,0,3.2,3.2,0,0,0,1,.59,4.5,4.5,0,0,1,1.25.72,2.5,2.5,0,0,1,.13,3.62A.51.51,0,0,1,102.19,334.45Z"/><path class="cls-1" d="M105.33,333.61a.5.5,0,0,1-.49-.44.5.5,0,0,1,.28-.52,1.86,1.86,0,0,0,.11-1.12,1.9,1.9,0,0,0-.75-1.09,5.65,5.65,0,0,0-.6-.31,3.53,3.53,0,0,1-1.07-.67.48.48,0,0,1,0-.7.5.5,0,0,1,.71,0,2.77,2.77,0,0,0,.78.46,4.85,4.85,0,0,1,.74.4,2.81,2.81,0,0,1,.86,3.72.57.57,0,0,1-.37.25h-.2Zm.13-.52h0Z"/><path class="cls-1" d="M61.66,34.08c0,.13-.14.24-.32.22-1-.1-3.57-.46-3.8-1.45s2-5,3-6.8c.12-.21.54-.15.56.07Z"/><path class="cls-2" d="M57.17,26.08a.49.49,0,0,1-.47-.34s-.5-1.23-2.65-1.23h0c-2.25,0-3,1-3,1a.51.51,0,0,1-.69.12.49.49,0,0,1-.13-.69c0-.06,1-1.43,3.82-1.44h0c2.89,0,3.56,1.82,3.59,1.9a.51.51,0,0,1-.31.64A.45.45,0,0,1,57.17,26.08Z"/><path class="cls-2" d="M50.07,23.35a.5.5,0,0,1-.31-.89A7,7,0,0,1,53.24,21a6.86,6.86,0,0,1,3.73.62.5.5,0,0,1-.43.9A6,6,0,0,0,53.36,22a5.92,5.92,0,0,0-3,1.25A.48.48,0,0,1,50.07,23.35Z"/><path class="cls-2" d="M55,24.08c.21.07.18.41.18.64a1.24,1.24,0,1,1-2.48,0,1.26,1.26,0,0,1,.16-.61A4.67,4.67,0,0,1,55,24.08Z"/><path class="cls-2" d="M63.94,26.05a.47.47,0,0,1-.17,0,.5.5,0,0,1-.31-.63c0-.08.69-1.92,3.6-1.93h0c2.8,0,3.76,1.35,3.8,1.41a.5.5,0,1,1-.82.57s-.76-1-3-1h0c-2.17,0-2.64,1.21-2.66,1.26A.52.52,0,0,1,63.94,26.05Z"/><path class="cls-2" d="M71,23.28a.51.51,0,0,1-.31-.11,5.79,5.79,0,0,0-6.15-.68.5.5,0,0,1-.44-.9A6.8,6.8,0,0,1,67.83,21a7,7,0,0,1,3.49,1.43.51.51,0,0,1-.31.9Z"/><path class="cls-2" d="M68.28,24.06c.17.12.17.39.17.61a1.24,1.24,0,0,1-1.24,1.25A1.25,1.25,0,0,1,66,24.68a1.28,1.28,0,0,1,.18-.64S67.77,23.69,68.28,24.06Z"/><path class="cls-4" d="M55.52,32c.08,1.18-1.33,2.23-3.14,2.35S49,33.62,49,32.44s1.33-2.23,3.15-2.35S55.44,30.83,55.52,32Z"/><path class="cls-4" d="M71.77,31.24c.08,1.18-1.33,2.23-3.14,2.35s-3.35-.75-3.43-1.93,1.33-2.23,3.15-2.35S71.69,30.06,71.77,31.24Z"/><path class="cls-1" d="M46.14,32.14a.5.5,0,0,1-.48-.36,18.51,18.51,0,0,0-2-4.61.49.49,0,0,1,.16-.68.5.5,0,0,1,.69.16,20,20,0,0,1,2.12,4.86.5.5,0,0,1-.35.61A.34.34,0,0,1,46.14,32.14Z"/><path class="cls-1" d="M75.1,31.92l-.12,0a.5.5,0,0,1-.37-.6,17.42,17.42,0,0,1,2.08-5,.49.49,0,0,1,.68-.17.51.51,0,0,1,.17.69,16.47,16.47,0,0,0-2,4.71A.52.52,0,0,1,75.1,31.92Z"/><path class="cls-2" d="M60.56,38.85a7.75,7.75,0,0,1-1.7-.17.5.5,0,0,1-.37-.6.49.49,0,0,1,.59-.37S62.87,38.52,65,36a.5.5,0,0,1,.77.65A6.56,6.56,0,0,1,60.56,38.85Z"/></g></g></svg>